<?xml version="1.0" encoding="utf-8"?>
<!-- Generator: Adobe Illustrator 22.0.1, SVG Export Plug-In . SVG Version: 6.00 Build 0)  -->
<svg xmlns="http://www.w3.org/2000/svg" xmlns:xlink="http://www.w3.org/1999/xlink" version="1.1" x="0px" y="0px" viewBox="0 0 700 700" style="enable-background:new 0 0 700 700;" xml:space="preserve">
<style type="text/css">
	.st0{fill:#212121;stroke:#000000;stroke-width:6.5321;}
	.st1{fill:#212121;stroke:#000000;stroke-width:8;}
	.st2{fill:#E0E0E0;stroke:#000000;stroke-width:8;}
	.st3{fill:#CA002D;stroke:#000000;stroke-width:8;}
	.st4{fill:#CA002D;}
	.st5{fill:none;stroke:#000000;stroke-width:11;}
	.st6{fill:#CA002D;stroke:#000000;stroke-width:4.7059;}
	.st7{fill:#FFFFFF;stroke:#000000;stroke-width:3;}
	.st8{opacity:0.43;}
	.st9{fill:url(#SVGID_1_);}
	.st10{fill:url(#SVGID_2_);}
	.st11{fill:url(#SVGID_3_);}
	.st12{fill:url(#SVGID_4_);}
	.st13{fill:url(#SVGID_5_);}
	.st14{fill:url(#SVGID_6_);}
	.st15{fill:url(#SVGID_7_);}
	.st16{fill:url(#SVGID_8_);}
	.st17{fill:url(#SVGID_9_);}
	.st18{fill:url(#SVGID_10_);}
	.st19{fill:url(#SVGID_11_);}
	.st20{fill:url(#SVGID_12_);}
	.st21{fill:url(#SVGID_13_);}
	.st22{fill:url(#SVGID_14_);}
	.st23{fill:url(#SVGID_15_);}
	.st24{fill:url(#SVGID_16_);}
	.st25{fill:url(#SVGID_17_);}
	.st26{fill:url(#SVGID_18_);}
	.st27{fill:url(#SVGID_19_);}
	.st28{fill:url(#SVGID_20_);}
	.st29{fill:url(#SVGID_21_);}
	.st30{fill:url(#SVGID_22_);}
	.st31{fill:url(#SVGID_23_);}
	.st32{fill:url(#SVGID_24_);}
	.st33{fill:url(#SVGID_25_);}
	.st34{fill:url(#SVGID_26_);}
	.st35{fill:url(#SVGID_27_);}
	.st36{fill:url(#SVGID_28_);}
	.st37{fill:url(#SVGID_29_);}
	.st38{fill:url(#SVGID_30_);}
	.st39{fill:url(#SVGID_31_);}
	.st40{fill:url(#SVGID_32_);}
	.st41{fill:url(#SVGID_33_);}
	.st42{fill:url(#SVGID_34_);}
	.st43{fill:url(#SVGID_35_);}
	.st44{fill:url(#SVGID_36_);}
	.st45{fill:url(#SVGID_37_);}
	.st46{display:none;}
	.st47{display:inline;}
	.st48{fill:url(#SVGID_38_);}
	.st49{fill:none;stroke:#000000;stroke-width:2;stroke-miterlimit:10;}
	.st50{fill:#7680B2;}
	.st51{fill:#0C4D8C;stroke:#000000;stroke-width:28;stroke-linecap:round;stroke-linejoin:round;}
	.st52{fill:#DC143C;stroke:#FFFFFF;stroke-width:11;stroke-linecap:round;stroke-linejoin:round;}
	.st53{fill:#084C8D;stroke:#FFFFFF;stroke-width:11;stroke-linecap:round;stroke-linejoin:round;}
	.st54{fill:#DC143C;}
	.st55{fill:#084C8D;}
</style>
<symbol id="BrandonBotHead" viewBox="-212.4898 -269.9475 424.9795 539.895">
	<g>
		<g>
			<path d="M-179.7447-92.8079c0,0-7.2393-17.416-3.2666-25.5234c3.9736-8.1074,12.9082-12.6396,4.1865-23.6807     c4.9072,4.0713,7.544,7.8897,7.544,7.8897s2.1816-5.793-6.0635-14.2637c-8.2432-8.4726-9.0645-21.6465,12.5898-30.2861     c-10.1377,8.4228-9.2363,14.0576-9.2363,14.0576s8.0889-10.666,21.7881-16.6768c13.6982-6.0097,6.9677-14.3125,7.8037-21.7656     c0.833-7.4531,7.1904-16.3008,22.7656-18.5791c-6.4961,3.2959-6.9414,7.2705-6.9414,7.2705s14.1426-9.9853,24.3125-11.8642     c10.1709-1.878,16.5586-4.1817,28.21-12.4336c11.6494-8.2539,16.4131-9.7334,37.0078-8.9326     c20.5967,0.7988,35.9512,0.5078,38.5-1.7217c2.5478-2.2305,0.9551,169.1592,0.9551,169.1592"/>
			<path d="M174.936-93.3088c0,0,7.2393-17.416,3.2666-25.5235c-3.9736-8.1074-12.9082-12.6396-4.1865-23.6806     c-4.9072,4.0713-7.5439,7.8896-7.5439,7.8896s-2.1817-5.7929,6.0635-14.2637c8.2431-8.4726,9.0644-21.6464-12.5899-30.2861     c10.1377,8.4229,9.2363,14.0576,9.2363,14.0576s-8.0888-10.666-21.788-16.6767c-13.6983-6.0098-6.9678-14.3125-7.8038-21.7657     c-0.833-7.4531-7.1904-16.3007-22.7656-18.5791c6.4961,3.2959,6.9414,7.2706,6.9414,7.2706s-14.1426-9.9854-24.3125-11.8643     c-10.1709-1.8779-16.5586-4.1816-28.2099-12.4336c-11.6494-8.2539-16.4131-9.7334-37.0078-8.9326     c-20.5967,0.7988-35.9512,0.5078-38.5-1.7217C-6.812-252.0491-5.2193-80.6594-5.2193-80.6594"/>
			<path d="M-99.728-223.9475c0,0,18-6,22-18s22-22.666,42-18c-5.333,0-17.333,6-17.333,6s22.666-4.666,34.666-6     c12-1.334,16-10,16-10l0.667,10.666l2.667-8.666l10,9.333v-6.667c0,0,18,7.333,36,6s29.332,23.334,38.666,27.334     c-11.333-16.667-11.333-20.667-11.333-20.667s16.667,23.333,34,31.333s-11.333,22-44,22"/>
		</g>
		<path class="st0" d="M16.0004,76.4583c0-13.2549-7.1641-24-16-24h-3.999c-8.836,0-16,10.7451-16,24V197.95    c0,13.2548,7.164,24,16,24h3.999c8.8359,0,16-10.7452,16-24V76.4583z"/>
		<path class="st1" d="M105.3695,29.9622c0-13.2549-8.6806-23.9995-19.3896-23.9995H-89.729    c-10.709,0-19.3896,10.7446-19.3896,23.9995v83.9931c0,13.2549,8.6806,24,19.3896,24H85.98c10.709,0,19.3896-10.7451,19.3896-24    V29.9622z"/>
		<path class="st1" d="M208.4898-55.5325c0-18.7773-15.2227-34-34-34h-348.9795c-18.7774,0-34,15.2227-34,34v81.9927    c0,18.7778,15.2226,34,34,34h348.9795c18.7773,0,34-15.2222,34-34V-55.5325z"/>
		<path class="st2" d="M167.6167-117.5295c0-18.7774-15.2226-34-34-34h-270.9834c-18.7773,0-34,15.2226-34,34V69.4573    c0,18.7778,15.2227,34,34,34h270.9834c18.7774,0,34-15.2222,34-34V-117.5295z"/>
		
			<ellipse transform="matrix(0.0222 -0.9998 0.9998 0.0222 -223.8279 213.057)" class="st3" cx="-2.9986" cy="220.95" rx="44.9976" ry="44.9971"/>
		<path class="st4" d="M22.144,258.2727c3.0976-6.1059,4.8544-13.0073,4.8544-20.3227c0-24.8516-20.1455-44.9976-44.997-44.9976    c-9.3125,0-17.9639,2.8296-25.1426,7.6748c7.4248-14.6372,22.6064-24.6748,40.1426-24.6748    c24.8515,0,44.997,20.146,44.997,44.9976C41.9984,236.489,34.1225,250.1878,22.144,258.2727z"/>
		<g>
			<path class="st5" d="M-156.1764,26.1218c0,0,3.9991-35.9804,11.5498-44.4209c7.5518-8.4404,43.9776-19.1005,88.3985-12.8828     c6.2187,2.2217,20.4336,18.6573,30.206,46.6426c0,0,6.6641,18.2134-5.7744,23.9878     c-15.1386,7.0298-71.0732,18.6572-115.4951,11.5498C-147.2916,50.9983-160.6178,49.6658-156.1764,26.1218z"/>
		</g>
		<g>
			<path class="st5" d="M152.5396,26.1218c0,0-3.9981-35.9804-11.5498-44.4209c-7.5508-8.4404-43.9766-19.1005-88.3975-12.8828     c-6.2188,2.2217-20.4336,18.6573-30.2061,46.6426c0,0-6.664,18.2134,5.7745,23.9878     c15.1386,7.0298,71.0732,18.6572,115.4961,11.5498C143.6568,50.9983,156.9819,49.6658,152.5396,26.1218z"/>
		</g>
		<path d="M-25.062,11.5525c0,0,20,21,45,0v20v5c0,0-18-10.5-42,0.5"/>
		<polyline points="-157.729,46.719 -172.395,44.0525 -171.062,28.0525 -157.729,19.3855"/>
		<polyline points="153.605,46.719 168.271,44.0525 166.938,28.0525 153.605,19.3855"/>
		<circle class="st6" cx="-3.062" cy="-48.9475" r="20"/>
		<path class="st4" d="M10.9115-34.6516c0.6573-1.9814,1.0264-4.0938,1.0264-6.2959c0-11.0459-8.9541-20-20-20    c-5.4414,0-10.3672,2.1797-13.9736,5.7041c2.6396-7.958,10.1299-13.7041,18.9736-13.7041c11.0459,0,20,8.9541,20,20    C16.938-43.342,14.6254-38.2834,10.9115-34.6516z"/>
		<circle class="st7" cx="-89.062" cy="10.0525" r="36"/>
		<circle cx="-93.062" cy="15.0525" r="16"/>
		<path class="st8" d="M-69.7115,40.4026c3.5713-5.5894,5.6494-12.2251,5.6494-19.3501c0-19.8818-16.1182-36-36-36    c-7.125,0-13.7607,2.0781-19.3506,5.6494c6.3945-10.0078,17.5938-16.6494,30.3506-16.6494c19.8818,0,36,16.1182,36,36    C-53.062,22.8098-59.7037,34.0086-69.7115,40.4026z"/>
		<circle class="st7" cx="91.938" cy="10.0525" r="36"/>
		<circle cx="87.938" cy="15.0525" r="16"/>
		<path class="st8" d="M111.2885,40.4026c3.5713-5.5894,5.6494-12.2251,5.6494-19.3501c0-19.8818-16.1182-36-36-36    c-7.125,0-13.7607,2.0781-19.3506,5.6494c6.3945-10.0078,17.5938-16.6494,30.3506-16.6494c19.8818,0,36,16.1182,36,36    C127.938,22.8098,121.2964,34.0086,111.2885,40.4026z"/>
		<path d="M68.9965-102.7844c0-3.9873-31.2266-7.2188-69.7461-7.2188c-38.5205,0-69.7471,3.2315-69.7471,7.2188    c0,3.9873,31.2266,7.2187,69.7471,7.2187C37.77-95.5657,68.9965-98.7971,68.9965-102.7844z"/>
		<path d="M-17.727-72.6145c0,0-17.334,14.666-40.667,5.333l8-2.667c0,0-21.9991-0.667-33.333-8    c-11.334-7.333-8.6661-15.332-22-16.666c-13.334-1.334-21.334-8.666-16.667-18c4,7.333,10,11.333,10,11.333    s-10.667-10.667-2-16.667s4-12,4-12c8,4.667,6,11.334,6,11.334s7.333-3.334,2-9.334c10,2.667,23.334,6.666,24.667,16    c1.333,9.334,22,19.334,42,16.667c-10,6-16,4-16,4s16.666,2.666,27.333-2.667s12.667,10,12.667,10"/>
		<path d="M8.934-69.2805c0,0,17.334,14.666,40.667,5.333l-8-2.667c0,0,21.999-0.667,33.333-8s8.666-15.332,22-16.666    s21.334-8.666,16.667-18c-4,7.333-10,11.333-10,11.333s10.667-10.667,2-16.667c-8.667-6-4-12-4-12c-8,4.667-6,11.334-6,11.334    s-7.333-3.334-2-9.334c-10,2.667-23.334,6.666-24.667,16s-22,19.334-42,16.667c10,6,16,4,16,4s-16.666,2.666-27.333-2.667    s-12.667,10-12.667,10"/>
		<path d="M-167.728-85.2825c0,0,2.667-25.333,28-34c0,0-7.334-2-12.667,4c0-8,24-15.3339,38-14.667    c14,0.667,22.667,7.334,40.667-8.666c-1.333,9.333-10,12.666-10,12.666s14.667-0.666,28.667-13.333s42.666-3.3339,38.666,9.333    c0,0-6.667-7.332-12-8.666c6.667,3.333,12.667,20.666-1.333,24.666c0,0,12.667-2,40.667-2v-50.666c0,0-62-33.334-64.667-34.667    c-2.667-1.333-103.999,35.9991-113.333,61.333c-9.334,25.334-8,42-8,42"/>
		<path d="M166.8726-85.2825c0,0-2.667-25.333-28-34c0,0,7.334-2,12.667,4c0-8-24-15.3339-38-14.667    c-14,0.667-22.667,7.334-40.667-8.666c1.333,9.333,10,12.666,10,12.666s-14.667-0.666-28.667-13.333s-42.666-3.3339-38.666,9.333    c0,0,6.667-7.332,12-8.666c-6.667,3.333-12.667,20.666,1.333,24.666c0,0-12.667-2-40.667-2v-50.666c0,0,62-33.334,64.667-34.667    c2.667-1.333,103.999,35.9991,113.333,61.333c9.334,25.334,8,42,8,42"/>
		<linearGradient id="SVGID_1_" gradientUnits="userSpaceOnUse" x1="-25.8013" y1="257.3628" x2="-2.1344" y2="189.0296">
			<stop offset="0" style="stop-color:#FFFFFF"/>
			<stop offset="0.0658" style="stop-color:#F7D8DF"/>
			<stop offset="0.1616" style="stop-color:#ECA6B6"/>
			<stop offset="0.2622" style="stop-color:#E37991"/>
			<stop offset="0.3656" style="stop-color:#DB5472"/>
			<stop offset="0.4728" style="stop-color:#D53559"/>
			<stop offset="0.5848" style="stop-color:#D01E46"/>
			<stop offset="0.7039" style="stop-color:#CD0D38"/>
			<stop offset="0.8347" style="stop-color:#CB0330"/>
			<stop offset="1" style="stop-color:#CA002D"/>
		</linearGradient>
		<path class="st9" d="M-8.355,227.3406c-8.3965-8.2661-20.0713-10.0215-26.0761-3.9214    c-6.0059,6.1006-4.0684,17.7466,4.3281,26.0122c8.3965,8.2661,20.0713,10.0215,26.0771,3.9214    C1.979,247.2522,0.0414,235.6062-8.355,227.3406z"/>
		<linearGradient id="SVGID_2_" gradientUnits="userSpaceOnUse" x1="-12.0975" y1="-34.3297" x2="-1.7658" y2="-64.1602">
			<stop offset="0" style="stop-color:#FFFFFF"/>
			<stop offset="0.0658" style="stop-color:#F7D8DF"/>
			<stop offset="0.1616" style="stop-color:#ECA6B6"/>
			<stop offset="0.2622" style="stop-color:#E37991"/>
			<stop offset="0.3656" style="stop-color:#DB5472"/>
			<stop offset="0.4728" style="stop-color:#D53559"/>
			<stop offset="0.5848" style="stop-color:#D01E46"/>
			<stop offset="0.7039" style="stop-color:#CD0D38"/>
			<stop offset="0.8347" style="stop-color:#CB0330"/>
			<stop offset="1" style="stop-color:#CA002D"/>
		</linearGradient>
		<path class="st10" d="M-4.482-47.4358c-3.6651-3.6084-8.7617-4.375-11.3828-1.7119c-2.6221,2.6631-1.7764,7.7471,1.8886,11.3555    c3.6661,3.6084,8.7627,4.375,11.3848,1.7129C0.0297-38.7434-0.816-43.8274-4.482-47.4358z"/>
		<linearGradient id="SVGID_3_" gradientUnits="userSpaceOnUse" x1="-99.0975" y1="28.1703" x2="-88.7658" y2="-1.6602">
			<stop offset="0" style="stop-color:#FFFFFF"/>
			<stop offset="0.0658" style="stop-color:#D8D8D8"/>
			<stop offset="0.1616" style="stop-color:#A6A6A6"/>
			<stop offset="0.2622" style="stop-color:#797979"/>
			<stop offset="0.3656" style="stop-color:#545454"/>
			<stop offset="0.4728" style="stop-color:#353535"/>
			<stop offset="0.5848" style="stop-color:#1E1E1E"/>
			<stop offset="0.7039" style="stop-color:#0D0D0D"/>
			<stop offset="0.8347" style="stop-color:#030303"/>
			<stop offset="1" style="stop-color:#000000"/>
		</linearGradient>
		<path class="st11" d="M-91.482,15.0642c-3.6651-3.6084-8.7617-4.375-11.3828-1.7119c-2.6221,2.6631-1.7764,7.7471,1.8886,11.3555    c3.6661,3.6084,8.7627,4.375,11.3848,1.7129C-86.9703,23.7566-87.816,18.6726-91.482,15.0642z"/>
		<linearGradient id="SVGID_4_" gradientUnits="userSpaceOnUse" x1="81.9025" y1="27.6703" x2="92.2342" y2="-2.1602">
			<stop offset="0" style="stop-color:#FFFFFF"/>
			<stop offset="0.0658" style="stop-color:#D8D8D8"/>
			<stop offset="0.1616" style="stop-color:#A6A6A6"/>
			<stop offset="0.2622" style="stop-color:#797979"/>
			<stop offset="0.3656" style="stop-color:#545454"/>
			<stop offset="0.4728" style="stop-color:#353535"/>
			<stop offset="0.5848" style="stop-color:#1E1E1E"/>
			<stop offset="0.7039" style="stop-color:#0D0D0D"/>
			<stop offset="0.8347" style="stop-color:#030303"/>
			<stop offset="1" style="stop-color:#000000"/>
		</linearGradient>
		<path class="st12" d="M89.518,14.5642c-3.6651-3.6084-8.7617-4.375-11.3828-1.7119c-2.6221,2.6631-1.7764,7.7471,1.8886,11.3555    c3.6661,3.6084,8.7627,4.375,11.3848,1.7129C94.0297,23.2566,93.184,18.1726,89.518,14.5642z"/>
		<linearGradient id="SVGID_5_" gradientUnits="userSpaceOnUse" x1="-223.048" y1="50.5315" x2="-177.7126" y2="-22.8057">
			<stop offset="0" style="stop-color:#FFFFFF"/>
			<stop offset="0.3151" style="stop-color:#B0B0B0"/>
			<stop offset="0.646" style="stop-color:#646464"/>
			<stop offset="0.8827" style="stop-color:#333333"/>
			<stop offset="1" style="stop-color:#212121"/>
		</linearGradient>
		<path class="st13" d="M-179.479-62.6135L-179.479-62.6135c-11.7363,0-21.25,9.5137-21.25,21.25V20.636    c0,11.7358,9.5137,21.25,21.25,21.25l0,0"/>
		<linearGradient id="SVGID_6_" gradientUnits="userSpaceOnUse" x1="-93.1723" y1="159.4029" x2="-43.8414" y2="111.405">
			<stop offset="0" style="stop-color:#FFFFFF"/>
			<stop offset="0.3151" style="stop-color:#B0B0B0"/>
			<stop offset="0.646" style="stop-color:#646464"/>
			<stop offset="0.8827" style="stop-color:#333333"/>
			<stop offset="1" style="stop-color:#212121"/>
		</linearGradient>
		<path class="st14" d="M-102.353,113.011L-102.353,113.011c0,11.7363,9.5137,21.25,21.25,21.25h62    c11.7353,0,21.25-9.5137,21.25-21.25l0,0"/>
		
			<linearGradient id="SVGID_7_" gradientUnits="userSpaceOnUse" x1="16968.4082" y1="50.5315" x2="17013.7441" y2="-22.8057" gradientTransform="matrix(-1 0 0 1 17189.916 0)">
			<stop offset="0" style="stop-color:#FFFFFF"/>
			<stop offset="0.3151" style="stop-color:#B0B0B0"/>
			<stop offset="0.646" style="stop-color:#646464"/>
			<stop offset="0.8827" style="stop-color:#333333"/>
			<stop offset="1" style="stop-color:#212121"/>
		</linearGradient>
		<path class="st15" d="M177.938-62.6135L177.938-62.6135c11.7363,0,21.25,9.5137,21.25,21.25V20.636    c0,11.7358-9.5137,21.25-21.25,21.25l0,0"/>
		<linearGradient id="SVGID_8_" gradientUnits="userSpaceOnUse" x1="-79.364" y1="16.8558" x2="-26.3619" y2="-54.1475">
			<stop offset="0" style="stop-color:#FFFFFF"/>
			<stop offset="0.3151" style="stop-color:#B0B0B0"/>
			<stop offset="0.646" style="stop-color:#646464"/>
			<stop offset="0.8827" style="stop-color:#333333"/>
			<stop offset="1" style="stop-color:#212121"/>
		</linearGradient>
		<path class="st16" d="M-147.062-21.2815c0,0,43.667-19.332,94.667-9.666c8.333,5.333,28.999,47.9995,30.666,49.333    c1.667,1.3335,19.334,12.333,40.334-3.667c-2.334-0.332-28.668,4.667-33.334-4.666s-17.667-40.999-34-50.333    S-135.729-42.2825-147.062-21.2815z"/>
		<linearGradient id="SVGID_9_" gradientUnits="userSpaceOnUse" x1="102.9932" y1="-0.9615" x2="166.6613" y2="-27.296">
			<stop offset="0" style="stop-color:#FFFFFF"/>
			<stop offset="0.3151" style="stop-color:#B0B0B0"/>
			<stop offset="0.646" style="stop-color:#646464"/>
			<stop offset="0.8827" style="stop-color:#333333"/>
			<stop offset="1" style="stop-color:#212121"/>
		</linearGradient>
		<path class="st17" d="M49.938-36.2805c0,0,63.666-13.334,98.333,10.333c7,5.333,11.333,21,11.333,21s5.667,26.667,6.334,32    c0.667,5.333-2,3-2,3l-10.333-4.3335c0,0-7-9.6665-7-10.6665s-1.334-40.333-28.667-44s-65.333-6-65.333-6"/>
		<linearGradient id="SVGID_10_" gradientUnits="userSpaceOnUse" x1="-93.6613" y1="-7.5056" x2="-87.3282" y2="71.4948">
			<stop offset="0" style="stop-color:#FFFFFF"/>
			<stop offset="0.3151" style="stop-color:#B0B0B0"/>
			<stop offset="0.646" style="stop-color:#646464"/>
			<stop offset="0.8827" style="stop-color:#333333"/>
			<stop offset="1" style="stop-color:#212121"/>
		</linearGradient>
		<path class="st18" d="M-27.728,28.0525c0,0-52.999,26.666-112.666,13.333c-1.334-0.6665-9.667-34.333,4.333-62    c-13.333,10.333-25.667,56.333-16.667,66s93.333,8.667,128-10.6665"/>
		<linearGradient id="SVGID_11_" gradientUnits="userSpaceOnUse" x1="82.8694" y1="-11.3351" x2="90.2502" y2="80.7348">
			<stop offset="0" style="stop-color:#FFFFFF"/>
			<stop offset="0.3151" style="stop-color:#B0B0B0"/>
			<stop offset="0.646" style="stop-color:#646464"/>
			<stop offset="0.8827" style="stop-color:#333333"/>
			<stop offset="1" style="stop-color:#212121"/>
		</linearGradient>
		<path class="st19" d="M54.272-28.2815c0,0-26.666,42.667-23.333,55.0005s90.333,22,121.333,15c-3,7-3,7-3,7    S105.94,62.052,48.606,46.3855c-22-5.6665-32.001-13.9995-26.334-28.333C27.939,3.7185,35.939-16.2815,54.272-28.2815z"/>
		<linearGradient id="SVGID_12_" gradientUnits="userSpaceOnUse" x1="-25.2888" y1="117.9733" x2="-0.6216" y2="38.6362">
			<stop offset="0" style="stop-color:#FFFFFF"/>
			<stop offset="0.3631" style="stop-color:#F2F2F2"/>
			<stop offset="1" style="stop-color:#E0E0E0"/>
		</linearGradient>
		<path class="st20" d="M-140.395,96.7195c0,0-25.334-1.3335-22-34c7.334,5.3335,298,34,298,34"/>
		<linearGradient id="SVGID_13_" gradientUnits="userSpaceOnUse" x1="-167.3851" y1="-34.4214" x2="-137.4527" y2="-130.6933">
			<stop offset="0" style="stop-color:#FFFFFF"/>
			<stop offset="0.3631" style="stop-color:#F2F2F2"/>
			<stop offset="1" style="stop-color:#E0E0E0"/>
		</linearGradient>
		<path class="st21" d="M-136.397-111.2795c-32,0-26.667,46.667-26.667,46.667l0.667,50L-136.397-111.2795z"/>
		<linearGradient id="SVGID_14_" gradientUnits="userSpaceOnUse" x1="-10.2684" y1="165.2133" x2="-2.4162" y2="139.9584">
			<stop offset="0" style="stop-color:#FFFFFF"/>
			<stop offset="0.3151" style="stop-color:#B0B0B0"/>
			<stop offset="0.646" style="stop-color:#646464"/>
			<stop offset="0.8827" style="stop-color:#333333"/>
			<stop offset="1" style="stop-color:#212121"/>
		</linearGradient>
		<polygon class="st22" points="-1.064,145.3855 -1.064,145.3855 -14.398,145.3855 -14.398,145.3855 -14.398,168.719     -14.398,168.719 -1.064,168.719 -1.064,168.719"/>
	</g>
	<linearGradient id="SVGID_15_" gradientUnits="userSpaceOnUse" x1="-67.4802" y1="-67.6778" x2="-47.4807" y2="-111.011">
		<stop offset="0" style="stop-color:#A33100"/>
		<stop offset="0.1062" style="stop-color:#8F2B00"/>
		<stop offset="0.5386" style="stop-color:#421400"/>
		<stop offset="0.8471" style="stop-color:#120600"/>
		<stop offset="1" style="stop-color:#000000"/>
	</linearGradient>
	<path class="st23" d="M-22.728-91.2805c0,0-15.999,7.666-33.333,4.333c3.666,3,15.333,3.333,21.333,1   c-2.667,4.667-23.333,5.333-30-2c0,0,3,5.667,9,6.667c-4.333,1.666-18.999-6.333-21.333-16s-8-15.334-14-16.667   c4.333,2.667,5.333,10.667,5.333,14.667s2.333,13.666,9.333,18.333c-6.333-1.667-11.333-9.001-11.333-14.667   c-2,3.667,0.333,26.334,41.333,22.667c-6-1.667-6-1.667-6-1.667l13.667,0.667c0,0-4,5.334-11,6.667c7,2,25.333,1,33-13   c-3,1-9,4.333-9,4.333s8.667-4,10-12c-4,2.667-7.667,8.667-22.667,10.667C-32.061-79.9475-22.728-84.6135-22.728-91.2805z"/>
	<linearGradient id="SVGID_16_" gradientUnits="userSpaceOnUse" x1="-106.8515" y1="-95.7967" x2="-92.6673" y2="-126.5295">
		<stop offset="0" style="stop-color:#A33100"/>
		<stop offset="0.1062" style="stop-color:#8F2B00"/>
		<stop offset="0.5386" style="stop-color:#421400"/>
		<stop offset="0.8471" style="stop-color:#120600"/>
		<stop offset="1" style="stop-color:#000000"/>
	</linearGradient>
	<path class="st24" d="M-107.061-101.6145c0,0-9.999-9.667-6.333-14c3.666-4.333,6-6.667,5.333-9.667   c1.667,4.334,1.667,8.001-2.333,11.334c-1.334,2.333-0.334,5,3.333,6.333c-2-2,0-6.333,0-6.333s0.667,2.666,1.667,3.666   c0.666-1.333,0.332-2.334,3.666-6c3.334-3.666,3.334-7,3.334-7s5.334,7,3,12s0.332,13,3.666,17c-9.666-6.666-6.666-15-6.666-15   s-3.666,6,0,11c-4.667-2-6.667-7-6.667-7s-2.333,3.334,3,7.667C-103.394-96.2815-107.061-101.6145-107.061-101.6145z"/>
	<linearGradient id="SVGID_17_" gradientUnits="userSpaceOnUse" x1="18.5908" y1="-72.2573" x2="41.5924" y2="-86.2582">
		<stop offset="0" style="stop-color:#A33100"/>
		<stop offset="0.1062" style="stop-color:#8F2B00"/>
		<stop offset="0.5386" style="stop-color:#421400"/>
		<stop offset="0.8471" style="stop-color:#120600"/>
		<stop offset="1" style="stop-color:#000000"/>
	</linearGradient>
	<path class="st25" d="M33.272-61.2805c0,0-21.666-3.668-26.666-16.334c2.333,1,8.666,5.334,8.666,5.334s-9.334-5-8-15   c5,6,9,13.332,20,14.666c-7.333-2.666-14-11.666-14-11.666s14,12.999,30,3.666c0,0-3.332,4.334-14.666,5.334   c11.666,1.333,19.667,0.667,25-10c0,0-1.667,8.332-8.667,11.666c1.333,1.667,10.333-1.666,10.333-1.666s-13.666,8.667-22.666,6   c3,2.333,8.333,5.333,8.333,5.333s-7.999-0.333-16.333-4.333C24.939-67.9475,26.938-63.2805,33.272-61.2805z"/>
	<linearGradient id="SVGID_18_" gradientUnits="userSpaceOnUse" x1="51.2311" y1="-81.5823" x2="84.6594" y2="-101.93">
		<stop offset="0" style="stop-color:#A33100"/>
		<stop offset="0.1062" style="stop-color:#8F2B00"/>
		<stop offset="0.5386" style="stop-color:#421400"/>
		<stop offset="0.8471" style="stop-color:#120600"/>
		<stop offset="1" style="stop-color:#000000"/>
	</linearGradient>
	<path class="st26" d="M47.606-89.2815c0,0,17.999-6.334,22.666-15s3.333-11.333,19-17.333   c-9.333,5.333-11.666,10.333-11.666,10.333s6.332-3,9.666-4.333c-6,5.667-9.667,12.001-12,16.667c11-10.334,12.334-12,12.334-12   l-6,11.333l6.666-5c0,0-8,11.001-11,18.667c5.667-7.334,9.334-9.334,10.667-9.334c-3,2.667-6.333,10.666-7.333,13   s-16.334,12.668-31.667,12.334c12.667-3.334,19-6.334,19-6.334s-12,3.334-20,3.334c7.667-0.334,18.333-4.334,23.333-12.334   c-6.666,5-19.333,8.333-25.333,8c11-1.666,18.334-7.666,20.667-12.666c0,0-16.667,9-29.667,6.333c5.333,0.333,13.333-3,13.333-3   l-9.666-1.667L47.606-89.2815z"/>
	<linearGradient id="SVGID_19_" gradientUnits="userSpaceOnUse" x1="-186.2482" y1="-114.9551" x2="-124.2492" y2="-158.9545">
		<stop offset="0" style="stop-color:#A33100"/>
		<stop offset="0.1062" style="stop-color:#8F2B00"/>
		<stop offset="0.5386" style="stop-color:#421400"/>
		<stop offset="0.8471" style="stop-color:#120600"/>
		<stop offset="1" style="stop-color:#000000"/>
	</linearGradient>
	<path class="st27" d="M-173.728-98.6145c0,0-6.667-7.334-0.667-18.667s12-20.666,6.667-28.666c0,0,6.666,8.667,5.333,16   c-1.333,7.333,5.334-15.334-2.666-27.334c5.333,3.334,14.666,14.668,10.666,25.334s-10.666,16.666-12.666,30.666   c-2-12.666,0-16,0-16S-174.395-109.9475-173.728-98.6145z"/>
	<linearGradient id="SVGID_20_" gradientUnits="userSpaceOnUse" x1="-155.5721" y1="-183.2643" x2="-64.5739" y2="-212.7637">
		<stop offset="0" style="stop-color:#A33100"/>
		<stop offset="0.1062" style="stop-color:#8F2B00"/>
		<stop offset="0.5386" style="stop-color:#421400"/>
		<stop offset="0.8471" style="stop-color:#120600"/>
		<stop offset="1" style="stop-color:#000000"/>
	</linearGradient>
	<path class="st28" d="M-149.062-168.4475c0,0,13,3.5,16.5-17s13.5-28.5,35-33s24-14.5,26-23.5c2,14.5-7.5,23-26.5,28   s-25,17-25.5,25.5c2-12,14-16.5,20.5-18.5c-7.5,8.5-14,12-14,21.5c6.5-11,9.5-12.5,9.5-12.5s-11.5,16-7.5,33   c-4.5-10.5-4.5-13-4.5-13l-5,11.5c0,0-0.5-14.5,3.5-19.5c-6.5,10.5-7.5,15-7.5,15s0-14.5,2-20.5c-3.5,9.5-4.5,11-5.5,17.5   S-148.562-165.9475-149.062-168.4475z"/>
	<linearGradient id="SVGID_21_" gradientUnits="userSpaceOnUse" x1="-141.818" y1="-135.0048" x2="-65.5401" y2="-159.7322">
		<stop offset="0" style="stop-color:#A33100"/>
		<stop offset="0.1062" style="stop-color:#8F2B00"/>
		<stop offset="0.5386" style="stop-color:#421400"/>
		<stop offset="0.8471" style="stop-color:#120600"/>
		<stop offset="1" style="stop-color:#000000"/>
	</linearGradient>
	<path class="st29" d="M-104.062-134.4475c0,0,24,6,34-21.5c-6,6.5-13.5,13.5-13.5,13.5s12-6,15-33c-1,11.5-5.5,24-22,29   s-35,2-49,14c7-1.5,14-6.5,31.5-7c-4,3-11.5,3.5-11.5,3.5L-104.062-134.4475z"/>
	<linearGradient id="SVGID_22_" gradientUnits="userSpaceOnUse" x1="-75.3925" y1="-240.5401" x2="-55.663" y2="-246.9359">
		<stop offset="0" style="stop-color:#A33100"/>
		<stop offset="0.1062" style="stop-color:#8F2B00"/>
		<stop offset="0.5386" style="stop-color:#421400"/>
		<stop offset="0.8471" style="stop-color:#120600"/>
		<stop offset="1" style="stop-color:#000000"/>
	</linearGradient>
	<path class="st30" d="M-72.562-232.9475c0,0,2.5-15,15-21.5C-67.562-252.4475-72.562-249.9475-72.562-232.9475z"/>
	<linearGradient id="SVGID_23_" gradientUnits="userSpaceOnUse" x1="-58.2204" y1="-241.1366" x2="-7.509" y2="-257.5759">
		<stop offset="0" style="stop-color:#A33100"/>
		<stop offset="0.1062" style="stop-color:#8F2B00"/>
		<stop offset="0.5386" style="stop-color:#421400"/>
		<stop offset="0.8471" style="stop-color:#120600"/>
		<stop offset="1" style="stop-color:#000000"/>
	</linearGradient>
	<path class="st31" d="M-56.562-238.9475c0,0,5.5-9.5,24-12s25.5-9.5,25.5-9.5s-8,9-21,11S-47.562-246.4475-56.562-238.9475z"/>
	<linearGradient id="SVGID_24_" gradientUnits="userSpaceOnUse" x1="-35.4955" y1="-138.9745" x2="5.0035" y2="-177.9736">
		<stop offset="0" style="stop-color:#A33100"/>
		<stop offset="0.1062" style="stop-color:#8F2B00"/>
		<stop offset="0.5386" style="stop-color:#421400"/>
		<stop offset="0.8471" style="stop-color:#120600"/>
		<stop offset="1" style="stop-color:#000000"/>
	</linearGradient>
	<path class="st32" d="M-9.062-133.9475c0,0-0.5-23-41.5-21C-32.562-161.4475-7.562-150.9475-9.062-133.9475z"/>
	<linearGradient id="SVGID_25_" gradientUnits="userSpaceOnUse" x1="-57.7466" y1="-142.5476" x2="17.9189" y2="-215.4107">
		<stop offset="0" style="stop-color:#A33100"/>
		<stop offset="0.1062" style="stop-color:#8F2B00"/>
		<stop offset="0.5386" style="stop-color:#421400"/>
		<stop offset="0.8471" style="stop-color:#120600"/>
		<stop offset="1" style="stop-color:#000000"/>
	</linearGradient>
	<path class="st33" d="M-70.062-155.9475c0,0,26-12.5,53.5-1C-21.062-160.4475-43.562-171.4475-70.062-155.9475z"/>
	<linearGradient id="SVGID_26_" gradientUnits="userSpaceOnUse" x1="-110.0998" y1="-171.1" x2="-45.523" y2="-233.2851">
		<stop offset="0" style="stop-color:#A33100"/>
		<stop offset="0.1062" style="stop-color:#8F2B00"/>
		<stop offset="0.5386" style="stop-color:#421400"/>
		<stop offset="0.8471" style="stop-color:#120600"/>
		<stop offset="1" style="stop-color:#000000"/>
	</linearGradient>
	<path class="st34" d="M-106.562-167.9475c0,0,7-22,20-27.5C-99.562-192.9475-106.062-179.9475-106.562-167.9475z"/>
	<linearGradient id="SVGID_27_" gradientUnits="userSpaceOnUse" x1="-55.5896" y1="-210.0845" x2="14.3644" y2="-277.4476">
		<stop offset="0" style="stop-color:#A33100"/>
		<stop offset="0.1062" style="stop-color:#8F2B00"/>
		<stop offset="0.5386" style="stop-color:#421400"/>
		<stop offset="0.8471" style="stop-color:#120600"/>
		<stop offset="1" style="stop-color:#000000"/>
	</linearGradient>
	<path class="st35" d="M-51.062-205.9475c0,0,3.5-26,20.5-31C-41.062-236.9475-53.562-221.9475-51.062-205.9475z"/>
	<linearGradient id="SVGID_28_" gradientUnits="userSpaceOnUse" x1="-73.0896" y1="-205.5845" x2="-3.1356" y2="-272.9476">
		<stop offset="0" style="stop-color:#A33100"/>
		<stop offset="0.1062" style="stop-color:#8F2B00"/>
		<stop offset="0.5386" style="stop-color:#421400"/>
		<stop offset="0.8471" style="stop-color:#120600"/>
		<stop offset="1" style="stop-color:#000000"/>
	</linearGradient>
	<path class="st36" d="M-68.562-201.4475c0,0,3.5-26,20.5-31C-58.562-232.4475-71.062-217.4475-68.562-201.4475z"/>
	<linearGradient id="SVGID_29_" gradientUnits="userSpaceOnUse" x1="-40.176" y1="-212.9046" x2="6.2607" y2="-257.6215">
		<stop offset="0" style="stop-color:#A33100"/>
		<stop offset="0.1062" style="stop-color:#8F2B00"/>
		<stop offset="0.5386" style="stop-color:#421400"/>
		<stop offset="0.8471" style="stop-color:#120600"/>
		<stop offset="1" style="stop-color:#000000"/>
	</linearGradient>
	<path class="st37" d="M-37.1705-210.1584c0,0,2.3232-17.2598,13.6084-20.5782C-30.5328-230.7366-38.8307-220.7795-37.1705-210.1584   z"/>
	<linearGradient id="SVGID_30_" gradientUnits="userSpaceOnUse" x1="16.3108" y1="-127.8736" x2="115.6717" y2="-223.5544">
		<stop offset="0" style="stop-color:#A33100"/>
		<stop offset="0.1062" style="stop-color:#8F2B00"/>
		<stop offset="0.5386" style="stop-color:#421400"/>
		<stop offset="0.8471" style="stop-color:#120600"/>
		<stop offset="1" style="stop-color:#000000"/>
	</linearGradient>
	<path class="st38" d="M5.938-139.4475c0,0,21.5-25,59-13C41.438-157.9475,26.438-163.9475,5.938-139.4475z"/>
	<linearGradient id="SVGID_31_" gradientUnits="userSpaceOnUse" x1="-5.9115" y1="-163.5091" x2="21.8797" y2="-190.2711">
		<stop offset="0" style="stop-color:#A33100"/>
		<stop offset="0.1062" style="stop-color:#8F2B00"/>
		<stop offset="0.5386" style="stop-color:#421400"/>
		<stop offset="0.8471" style="stop-color:#120600"/>
		<stop offset="1" style="stop-color:#000000"/>
	</linearGradient>
	<path class="st39" d="M5.438-151.9475c0,0,4.5-21-14-31.5C-8.562-183.4475,12.438-177.4475,5.438-151.9475z"/>
	<linearGradient id="SVGID_32_" gradientUnits="userSpaceOnUse" x1="5.114" y1="-176.8763" x2="15.1139" y2="-186.5058">
		<stop offset="0" style="stop-color:#A33100"/>
		<stop offset="0.1062" style="stop-color:#8F2B00"/>
		<stop offset="0.5386" style="stop-color:#421400"/>
		<stop offset="0.8471" style="stop-color:#120600"/>
		<stop offset="1" style="stop-color:#000000"/>
	</linearGradient>
	<path class="st40" d="M13.438-168.4475c0,0-2.5-12.5-16.5-17C3.938-187.9475,12.938-178.9475,13.438-168.4475z"/>
	<linearGradient id="SVGID_33_" gradientUnits="userSpaceOnUse" x1="34.9254" y1="-218.1946" x2="53.576" y2="-236.1545">
		<stop offset="0" style="stop-color:#A33100"/>
		<stop offset="0.1062" style="stop-color:#8F2B00"/>
		<stop offset="0.5386" style="stop-color:#421400"/>
		<stop offset="0.8471" style="stop-color:#120600"/>
		<stop offset="1" style="stop-color:#000000"/>
	</linearGradient>
	<path class="st41" d="M51.438-201.9475c0,0,4.5-25.5-32.5-33C18.938-234.9475,46.938-228.9475,51.438-201.9475z"/>
	<linearGradient id="SVGID_34_" gradientUnits="userSpaceOnUse" x1="105.9254" y1="-197.1946" x2="124.576" y2="-215.1545">
		<stop offset="0" style="stop-color:#A33100"/>
		<stop offset="0.1062" style="stop-color:#8F2B00"/>
		<stop offset="0.5386" style="stop-color:#421400"/>
		<stop offset="0.8471" style="stop-color:#120600"/>
		<stop offset="1" style="stop-color:#000000"/>
	</linearGradient>
	<path class="st42" d="M122.438-180.9475c0,0,4.5-25.5-32.5-33C89.938-213.9475,117.938-207.9475,122.438-180.9475z"/>
	
		<linearGradient id="SVGID_35_" gradientUnits="userSpaceOnUse" x1="21269.8066" y1="-7678.0708" x2="21288.457" y2="-7696.0308" gradientTransform="matrix(-0.7071 0.7071 -0.7071 -0.7071 9708.5576 -20610.416)">
		<stop offset="0" style="stop-color:#A33100"/>
		<stop offset="0.1062" style="stop-color:#8F2B00"/>
		<stop offset="0.5386" style="stop-color:#421400"/>
		<stop offset="0.8471" style="stop-color:#120600"/>
		<stop offset="1" style="stop-color:#000000"/>
	</linearGradient>
	<path class="st43" d="M74.6772-141.1848c0,0,14.8486,21.2129,46.3154,0.3535C120.9927-140.8313,96.9506-125.2756,74.6772-141.1848z   "/>
	<linearGradient id="SVGID_36_" gradientUnits="userSpaceOnUse" x1="147.9254" y1="-163.6946" x2="166.576" y2="-181.6545">
		<stop offset="0" style="stop-color:#A33100"/>
		<stop offset="0.1062" style="stop-color:#8F2B00"/>
		<stop offset="0.5386" style="stop-color:#421400"/>
		<stop offset="0.8471" style="stop-color:#120600"/>
		<stop offset="1" style="stop-color:#000000"/>
	</linearGradient>
	<path class="st44" d="M164.438-147.4475c0,0,4.5-25.5-32.5-33C131.938-180.4475,159.938-174.4475,164.438-147.4475z"/>
	<linearGradient id="SVGID_37_" gradientUnits="userSpaceOnUse" x1="43.4254" y1="-219.6946" x2="62.076" y2="-237.6545">
		<stop offset="0" style="stop-color:#A33100"/>
		<stop offset="0.1062" style="stop-color:#8F2B00"/>
		<stop offset="0.5386" style="stop-color:#421400"/>
		<stop offset="0.8471" style="stop-color:#120600"/>
		<stop offset="1" style="stop-color:#000000"/>
	</linearGradient>
	<path class="st45" d="M59.938-203.4475c0,0,4.5-25.5-32.5-33C27.438-236.4475,55.438-230.4475,59.938-203.4475z"/>
</symbol>
<g id="BG_x2F_Border" class="st46">
	<g class="st47">
		<radialGradient id="SVGID_38_" cx="350" cy="350" r="347" gradientUnits="userSpaceOnUse">
			<stop offset="0" style="stop-color:#00F6FF"/>
			<stop offset="0.1708" style="stop-color:#00A3FF"/>
			<stop offset="0.25" style="stop-color:#0081FF"/>
			<stop offset="0.5" style="stop-color:#0019B5"/>
			<stop offset="0.75" style="stop-color:#200061"/>
			<stop offset="1" style="stop-color:#000000"/>
		</radialGradient>
		<path class="st48" d="M3,687c0,5.5228,4.4772,10,10,10h674c5.5228,0,10-4.4772,10-10V13c0-5.5228-4.4772-10-10-10H13    C7.4772,3,3,7.4772,3,13V687z"/>
		<path class="st49" d="M3,687c0,5.5228,4.4772,10,10,10h674c5.5228,0,10-4.4772,10-10V13c0-5.5228-4.4772-10-10-10H13    C7.4772,3,3,7.4772,3,13V687z"/>
	</g>
</g>
<g id="Buffer">
	<g>
		
		<g>
			<ellipse class="st50" cx="350" cy="508.1621" rx="288.5952" ry="145.5"/>
		</g>
	</g>
</g>
<g id="Text">
	<g id="BrandonBotText">
		
		<g>
			<g>
				<g>
					<g>
						<path class="st51" d="M50.3516,373.9531c5.2104,0.1006,10.3145-1.1836,15.3145-3.8506        c1.6069-0.8457,3.2383-1.9092,4.8989-3.1924c1.6587-1.2822,3.3438-2.751,5.0542-4.4014        c2.7007-2.5781,4.3589-3.8604,4.978-3.8486c3.0464,2.3506,5.6196,4.1025,7.7173,5.2559        c2.0986,1.1523,3.6777,1.7393,4.7368,1.7588c7.5059,0.1445,11.3745-5.6797,11.6016-17.4717l0.2729-14.1504l0.2583-13.4424        c0.0225-1.1484,0.041-2.123,0.0571-2.9326c0.0142-0.7422-0.021-1.2822-0.1016-1.6191        c-0.5039-1.3604-1.5962-2.0537-3.2729-2.0859c-1.9399-0.2402-5.0928-0.4873-9.4614-0.7383        c-4.3687-0.2539-10.042-0.4805-17.0161-0.6816c-6.9766-0.2021-13.3345-0.3584-19.0747-0.4688        c-5.6523-0.1084-10.7305-0.207-15.2344-0.2939c-0.5298-0.0107-1.2144-0.0586-2.0518-0.1416        c-0.8389-0.082-1.7197-0.1504-2.647-0.2012c-0.9263-0.0527-1.8091-0.1201-2.646-0.2021        c-0.8389-0.083-1.5215-0.1309-2.0513-0.1416c-1.7681-0.0342-2.6724,1.127-2.7178,3.4873l-0.0996,5.1543l-0.6421,33.3564        c-0.4331,4.1025,1.9077,8.665,7.0249,13.6846C39.8418,371.458,44.8745,373.8467,50.3516,373.9531z M82.8721,329.9883        l12.7197,0.1426l0.1011,8.4961c-0.0508,2.6289-0.7632,5.2432-2.1382,7.8467l-4.9121,0.4111        c-1.562-1.4473-3.4595-3.9102-5.688-7.3906c-1.1152-1.7754-2.1436-3.4287-3.0854-4.9639        c-0.9434-1.5352-1.8438-2.9854-2.6992-4.3486C78.3203,330.001,80.2227,329.9365,82.8721,329.9883z M42.5132,333.71        c0.1206-1.7842,0.3374-3.7529,0.6436-5.9043l2.396-0.5596c0.8823,0.0176,2.7153,0.0859,5.4961,0.207        c2.7808,0.1201,6.5977,0.2949,11.4531,0.5234c4.2427,9.0469,6.4409,14.1455,6.5967,15.2949        c-1.0063,1.7324-3.7881,4.0381-8.3496,6.918c-4.2056,2.6807-7.3223,4.0039-9.353,3.9639        c-2.4741-0.0459-4.6475-1.9092-6.519-5.585c-1.7935-3.2041-2.6572-6.4893-2.5928-9.8584        C42.314,337.1602,42.3896,335.4922,42.5132,333.71z"/>
						<path class="st51" d="M88.2354,440.3672c3.6709,4.6924,7.0928,7.791,10.2681,9.2949        c3.666,1.8252,7.9922,1.8379,12.9761,0.0342c5.9805-2.1641,8.6089-7.4873,7.8892-15.9707        c-0.3052-2.4004-0.8862-5.2354-1.7412-8.5098c-0.8564-3.2734-2.0522-7.0352-3.5884-11.2803l-7.396-20.4385        c-0.9233-2.0303-2.0298-2.8857-3.3223-2.5605c-21.7349,7.4346-37.5845,12.9551-47.5513,16.5615l-15.6436,5.4453        c-3.4883,1.2617-5.2534,2.6162-5.2925,4.0654l2.6831,7.415c0.8027,2.2178,1.7715,3.3379,2.9058,3.3564        c0.4224,0.1328,1.9224-0.2656,4.4985-1.1982c1.3276-0.4795,2.9473-1.0654,4.8589-1.7578        c1.9937-0.7217,4.3721-1.5459,7.1362-2.4746s5.1001-1.7383,7.0117-2.4297c1.9937-0.7217,3.6133-1.3076,4.8589-1.7588        c0.4917,0.3232,1.1392,0.8779,1.9409,1.6641c0.7993,0.7852,1.8726,1.8652,3.2163,3.2441        c2.4512,2.623,3.7939,4.2529,4.0234,4.8877c0.6421,1.7725-3.7935,6.7832-13.3027,15.0264        c-4.6802,4.2021-8.3125,7.4697-10.8965,9.8027c-2.5854,2.333-4.1299,3.8398-4.6328,4.5264l4.6177,11.9824        c0.3901,1.0762,0.7812,1.9023,1.1782,2.4766c0.3945,0.5723,0.7979,1.0361,1.208,1.3906        c2.9604-2.7207,5.8428-5.4648,8.645-8.2354c2.8013-2.7715,5.6724-5.5469,8.6104-8.3301        C82.5239,447.5576,87.4717,442.1494,88.2354,440.3672z M98.9434,408.4326l5.8135,16.0654        c1.4448,3.9932,1.1279,6.3652-0.9478,7.1162c-2.2427,0.8115-5.7534-1.3584-10.5288-6.5107        c-2.7671-3.2285-6.0342-6.418-9.8032-9.5693l-0.4814-1.3311L98.9434,408.4326z"/>
						<path class="st51" d="M155.7329,516.8369l8.7588-7.0811c2.3511-1.8652,3.6011-3.418,3.749-4.6523l-14.6431-18.4521        c-0.7949-0.5742-1.5659-1.1895-2.3105-1.8438c-0.7471-0.6553-1.5161-1.2725-2.3096-1.8447        c-1.8267-1.3066-3.9834-2.1748-6.4697-2.6104c-6.7817-0.7275-14.4507,0.1963-23.0059,2.7705        c-5.3828,1.6045-13.3105,4.7568-23.7886,9.458c-5.7114,2.4678-10.6113,4.5703-14.6987,6.3105        c-4.0903,1.7393-7.4307,3.0352-10.0229,3.8887c0.0151,0.5889,0.1436,1.1758,0.3833,1.7617        c0.2373,0.5859,0.5889,1.2754,1.0503,2.0703c0.4619,0.7939,1.0835,1.7207,1.8662,2.7773        c0.7817,1.0576,1.7603,2.3232,2.9336,3.8027c1.2573,1.584,2.6562,2.4941,4.1997,2.7334        c0.2207-0.0049,0.7275-0.1484,1.5186-0.4316c0.7891-0.2842,1.9883-0.7607,3.5972-1.4355        c3.4771-1.7266,6.1387-2.6348,7.9868-2.7236c0.2095,0.2627,0.7544,0.9502,1.6343,2.0586s2.1489,2.6377,3.8115,4.5889        l9.6597,12.5977c-2.1597,1.541-4.0464,2.9316-5.6577,4.1689c-1.6143,1.2344-3.0288,2.2939-4.2461,3.1758        c-1.1216,0.7168-0.9277,2.0264,0.5806,3.9277l7.3535,9.2637c1.0464,1.3193,3.4512,0.2295,7.2134-3.2715l6.353-4.7842        l19.4517-14.9219L155.7329,516.8369z M125.2256,519.1084l-8.5469-10.7695l-0.8809-1.1084        c-0.5869-0.7402-1.4321-1.876-2.5352-3.4082c-1.2178-1.96-1.8135-2.9932-1.7847-3.1016        c1.1089-0.0205,2.5605-0.29,4.3496-0.8066c1.7891-0.5156,3.916-1.2803,6.3848-2.293        c4.9619-2.1299,8.9023-3.0635,11.8193-2.7979c4.3901,0.5596,8.6455,3.5068,12.7681,8.8398l-18.2666,14.498        C127.6045,518.9824,126.5024,519.2988,125.2256,519.1084z"/>
						<path class="st51" d="M207.3574,534.4775c-7.1387-4.7246-16.4727-6.5586-28-5.5039        c-9.5547,0.8799-14.8525,1.5576-15.8945,2.0332c-0.7842,0.3281-1.5898,1.1201-2.418,2.3721l-19.2397,27.7822l-6.5083,9.834        c-2.6821,4.0527-3.4043,6.4863-2.1675,7.3047c0.2803,0.1855,1.3784,0.9678,3.2988,2.3428        c1.917,1.376,4.6587,3.4014,8.2222,6.0781c1.5479-1.7295,3.855-4.7568,6.9209-9.084        c3.0654-4.3271,6.8906-9.9512,11.4741-16.876l4.5786-6.1846l4.5454-6.6846c1.8892-0.6562,3.8682-1.1729,5.9375-1.5508        c2.0693-0.3789,4.3032-0.6729,6.7075-0.8838c5.4551-0.3076,9.5625,0.4502,12.3164,2.2734        c0.3926,0.2588,0.7607,0.5576,1.1074,0.8906c0.3428,0.335,0.6113,0.7236,0.8027,1.168        c3.8887,5.1152,3.0283,11.9102-2.5781,20.3799c-7.0215,10.6055-18.5781,19.6406-34.6709,27.1035l1.6865,1.1152        c0.231,0.2607,0.7144,0.6592,1.4492,1.1982c0.7339,0.54,1.7471,1.2373,3.0405,2.0928        c1.3398,0.7822,2.4336,1.4512,3.2769,2.0098c0.8984,0.5938,1.6016,1.0605,2.1074,1.3945        c0.7861,0.5205,1.3164,0.8193,1.5908,0.8936c1.7227,0.083,3.5869-0.5371,5.5942-1.8574        c2.2632-1.4668,4.2065-2.7227,5.8286-3.7695c1.6201-1.0459,3.0264-1.9141,4.2148-2.6123        c8.042-5.7998,14.2812-12.0508,18.7178-18.7549c5.2168-7.8809,8.0527-15.6445,8.5049-23.2881        C218.2012,546.4229,214.7188,539.3506,207.3574,534.4775z"/>
						<path class="st51" d="M290.7812,580.6377c-3.3105-4.043-7.29-7.5146-11.9385-10.4209        c-5.2246-3.4033-11.4131-5.9443-18.5645-7.6221c-2.2324-0.5234-4.1055-0.5068-5.6182,0.0439l-10.8711,45.8994        c-3.4092,14.5352-5.6426,23.1748-6.7031,25.9209c1.4082,0.7842,4.9033,1.8984,10.4824,3.3428        c5.5811,1.4443,13.292,3.3213,23.1348,5.6309c4.1338,0.9697,7.7578,1.5254,10.876,1.667        c3.1152,0.1416,5.7656-0.166,7.9531-0.9258c5.4131-1.541,8.9189-5.709,10.5127-12.5029l1.7559-7.4824        c2.2588-9.6309,1.3125-19.4707-2.8369-29.5186C296.8164,589.3594,294.0898,584.6816,290.7812,580.6377z M284.3701,612.6143        c-0.9082,3.8691-3.4561,6.7666-7.6455,8.6855c-1.3184,0.5996-3.4434,0.8057-6.374,0.6143        c-2.9336-0.1875-6.6523-0.8555-11.1602-2.0049l-3.248-0.7617c0.0811-0.3438,0.5537-2.0693,1.4229-5.1777        c0.8672-3.1084,2.1055-7.6484,3.7148-13.624c0.8154-4.0723,1.5977-7.6992,2.3447-10.8818        c0.7461-3.1807,1.3916-5.9336,1.9365-8.2559c6.5977,4.6328,11.5693,9.7012,14.917,15.2041        C284.0947,602.5693,285.459,607.9697,284.3701,612.6143z"/>
						<path class="st51" d="M413.8887,598.2959c-2.2246-5.3496-4.9053-9.3174-8.042-11.9004        c-1.8037-1.5752-3.6768-3.0107-5.6182-4.3057c-1.9414-1.2939-4.0244-2.4844-6.2471-3.5693        c-5.4062-2.8633-9.7842-4.1074-13.1328-3.7354c-1.1582-0.0469-2.5801-0.0215-4.2637,0.0762        c-1.6846,0.1006-3.6172,0.4043-5.7979,0.915c-1.4824,0.6982-2.625,1.0918-3.4287,1.1826        c-9.5254,3.375-16.7129,8.8428-21.5654,16.4053c-4.8906,7.834-6.7666,16.8438-5.6309,27.0264        c1.2051,10.7979,6.0371,19.457,14.4961,25.9805c8.4014,6.6162,18.0947,9.3125,29.0811,8.0869        c10.582-1.1816,19.1787-6.1846,25.79-15.0117c6.6289-8.6494,9.416-17.7158,8.3574-27.1973        C417.3584,607.5078,416.0254,602.8584,413.8887,598.2959z M396.417,626.7773c-3.8555,4.9639-8.1592,7.7109-12.915,8.2412        l-3.918,0.4375c-5.2246,0.583-10.4131-0.9258-15.5615-4.5293c-5.0254-3.7061-7.8115-8.0146-8.3604-12.9326        c-0.7148-6.4082,0.835-11.96,4.6523-16.6523c3.6729-4.7627,8.958-7.5312,15.8584-8.3018        c3.415-0.3809,6.5898-0.2021,9.5195,0.5381c2.9316,0.7393,5.5225,1.9395,7.7773,3.5977        c2.2529,1.6611,4.0977,3.7646,5.5361,6.3154c1.4375,2.5508,2.3379,5.4512,2.7002,8.6973        C402.2158,616.7539,400.4521,621.6182,396.417,626.7773z"/>
						<path class="st51" d="M515.168,604.9248c-0.1543-2.6934-0.2832-5.002-0.3877-6.9307        c-0.1064-1.9248-0.167-3.5762-0.1846-4.9561c-1.0586-9.8574-3.3994-18.373-7.0273-25.5469        c-4.2646-8.4336-9.6064-14.7412-16.0244-18.9199c-7.8584-4.9355-15.7266-5.4102-23.6055-1.4258        c-7.6387,3.8623-13.8535,11.0645-18.6445,21.6025c-3.9648,8.7373-5.999,13.6758-6.1025,14.8154        c-0.1016,0.8447,0.1855,1.9365,0.8633,3.2764l14.6152,30.4707l5.3213,10.5234c2.1934,4.3359,3.9502,6.1689,5.2734,5.499        c0.2998-0.1504,1.5234-0.7197,3.6689-1.7061c2.1445-0.9844,5.2617-2.3643,9.3506-4.1357        c-0.7363-2.2012-2.2246-5.7041-4.4648-10.5098c-2.2422-4.8057-5.2354-10.9131-8.9824-18.3232l-3.1074-7.041l-3.5566-7.2588        c0.3652-1.9658,0.8955-3.9414,1.5908-5.9258c0.6953-1.9863,1.5469-4.0732,2.5537-6.2656        c2.4346-4.8916,5.124-8.0859,8.0723-9.5762c0.4199-0.2129,0.8623-0.3848,1.3223-0.5215        c0.4609-0.1318,0.9326-0.1729,1.4121-0.1191c6.3701-0.8457,11.8477,3.2656,16.4316,12.3301        c5.7393,11.3516,7.8672,25.8652,6.3838,43.543l1.8037-0.9141c0.3408-0.0723,0.9277-0.2939,1.7588-0.666        c0.833-0.3701,1.9385-0.9062,3.3232-1.6055c1.3438-0.7773,2.4668-1.3965,3.3682-1.8525        c0.9619-0.4863,1.7139-0.8662,2.2559-1.1396c0.8408-0.4268,1.3633-0.7393,1.5635-0.9395        C514.9375,609.25,515.3223,607.3223,515.168,604.9248z"/>
					</g>
					<g>
						<path class="st51" d="M597.0645,508.5713c-3.874-3.4834-8.5742-5.8525-14.1006-7.1074        c-1.7686-0.4111-3.6982-0.6748-5.793-0.791c-2.0938-0.1143-4.3281-0.1055-6.7031,0.0234        c-3.7275,0.1816-5.8213,0.0664-6.2812-0.3477c-0.7666-3.7695-1.5664-6.7793-2.3984-9.0225        c-0.833-2.2451-1.6436-3.7227-2.4316-4.4316c-5.5811-5.0195-12.3184-3.1445-20.2041,5.625l-9.4648,10.5225l-8.9912,9.9971        c-0.7676,0.8525-1.4199,1.5791-1.9609,2.1797c-0.4961,0.5527-0.8232,0.9834-0.9824,1.292        c-0.5088,1.3574-0.1367,2.5967,1.1104,3.7188c1.3096,1.4502,3.5322,3.7002,6.6719,6.748        c3.1377,3.0488,7.2793,6.9336,12.4229,11.6494c5.1436,4.7168,9.8506,8.9941,14.1182,12.833        c4.2051,3.7822,7.9805,7.1768,11.3301,10.1895c0.3945,0.3545,0.8809,0.8389,1.46,1.4492        c0.5791,0.6123,1.2002,1.2402,1.8682,1.8848c0.667,0.6455,1.29,1.2744,1.8691,1.8848        c0.5811,0.6123,1.0654,1.0938,1.459,1.4482c1.3154,1.1826,2.7588,0.8955,4.3369-0.8594l3.4482-3.833l22.3086-24.8057        c3.0127-2.8193,4.2275-7.8008,3.6416-14.9453C603.3818,517.335,601.1387,512.2354,597.0645,508.5713z M549.8633,513.3018        c-0.3184,2.0723-0.6221,3.9951-0.9141,5.7715c-0.291,1.7793-0.5596,3.4648-0.8047,5.0566        c-0.9873-0.6182-2.4688-1.8125-4.4385-3.5859l-9.5254-8.4307l5.4814-6.4912c1.7578-1.9531,4.0078-3.4648,6.751-4.5342        l3.9834,2.9033C550.6328,506.1064,550.4551,509.2109,549.8633,513.3018z M584.5977,531.3506        c-0.7402,3.5967-2.2363,6.6475-4.4893,9.1523c-1.0371,1.1533-2.1846,2.3643-3.4453,3.6318        c-1.2588,1.2705-2.71,2.6172-4.3486,4.043l-2.1787-1.1436c-0.6553-0.5898-1.998-1.8408-4.0215-3.752        c-2.0244-1.9102-4.7969-4.5391-8.3184-7.8896c2.71-9.6162,4.3828-14.9102,5.0176-15.8838        c1.8945-0.6514,5.5068-0.5742,10.8408,0.2324c4.9355,0.7227,8.1572,1.7627,9.668,3.1211        C585.1621,524.5166,585.5869,527.3467,584.5977,531.3506z"/>
						<path class="st51" d="M634.0225,403.6875c-4.4678-1.6689-9.2197-2.582-14.2539-2.7373        c-5.7803-0.4326-10.5293,0.167-14.251,1.7969c-2.2207,0.8984-4.3477,1.9209-6.3799,3.0664        c-2.0312,1.1484-4.0342,2.4678-6.0068,3.96c-4.9971,3.5293-8.0859,6.873-9.2646,10.0283        c-0.5664,1.0117-1.1865,2.292-1.8594,3.8389c-0.6719,1.5469-1.2744,3.4092-1.8047,5.585        c-0.0469,1.6377-0.2109,2.835-0.4941,3.5918c-1.293,10.0234,0.3379,18.9072,4.8906,26.6523        c4.7793,7.9033,11.9688,13.6475,21.5654,17.2344c10.1777,3.8047,20.0869,3.4072,29.7275-1.1934        c9.7002-4.5039,16.4834-11.9326,20.3535-22.2881c3.7285-9.9727,3.1494-19.9033-1.7373-29.79        C649.7871,413.6104,642.959,407.0283,634.0225,403.6875z M638.7979,444.6514l-1.3818,3.6934        c-1.8398,4.9238-5.5293,8.8711-11.0703,11.835c-5.5771,2.8096-10.6807,3.3467-15.3154,1.6152        c-6.0391-2.2568-10.29-6.1494-12.752-11.6738c-2.5908-5.4287-2.6719-11.3965-0.2412-17.8994        c1.2031-3.2188,2.7959-5.9688,4.7812-8.25c1.9844-2.2793,4.2256-4.0508,6.7236-5.3125c2.5-1.2588,5.2109-1.9541,8.1348-2.085        c2.9268-0.1289,5.9199,0.377,8.9795,1.5215c4.3037,1.6084,7.8457,5.3799,10.625,11.3105        C639.9668,435.0879,640.4727,440.1699,638.7979,444.6514z"/>
						<path class="st51" d="M672.3125,343.8135c0.0566-1.3486,0.0742-2.3936,0.0566-3.1357        c-0.0195-0.7402-0.0322-1.2783-0.04-1.6172l-57.6211,1.4072c-3.2656,0.0801-4.9229-0.7891-4.9678-2.6094l-0.3135-12.835        c-0.043-1.751-2.0488-4.3311-6.0205-7.7402c-4.0586-3.3398-6.791-4.957-8.2041-4.8564        c-0.6953,0.4209-1.0098,2.0479-0.9414,4.877c0.0244,1.0107-0.0029,5.2588-0.085,12.7432l1.127,40.7275l0.04,1.6172        l0.0381,1.6172l0.0205,0.8086c7.7188,4.8682,12.1953,7.2861,13.4316,7.2559c0.3535-0.0078,0.8789-0.1895,1.5771-0.5439        l-0.5264-21.5264c1.04-0.835,2.667-1.2109,4.877-1.1309l10.334-0.1514c12.8994-0.1123,22.7715-0.1846,29.6172-0.2168        c6.8477-0.0322,10.7568-0.0615,11.7275-0.085c1.8564,0.0225,3.6602-0.292,5.4111-0.9404        C672.8838,356.375,673.0381,351.8203,672.3125,343.8135z"/>
					</g>
				</g>
				<g>
					<g>
						<path class="st52" d="M50.3516,373.9531c5.2104,0.1006,10.3145-1.1836,15.3145-3.8506        c1.6069-0.8457,3.2383-1.9092,4.8989-3.1924c1.6587-1.2822,3.3438-2.751,5.0542-4.4014        c2.7007-2.5781,4.3589-3.8604,4.978-3.8486c3.0464,2.3506,5.6196,4.1025,7.7173,5.2559        c2.0986,1.1523,3.6777,1.7393,4.7368,1.7588c7.5059,0.1445,11.3745-5.6797,11.6016-17.4717l0.2729-14.1504l0.2583-13.4424        c0.0225-1.1484,0.041-2.123,0.0571-2.9326c0.0142-0.7422-0.021-1.2822-0.1016-1.6191        c-0.5039-1.3604-1.5962-2.0537-3.2729-2.0859c-1.9399-0.2402-5.0928-0.4873-9.4614-0.7383        c-4.3687-0.2539-10.042-0.4805-17.0161-0.6816c-6.9766-0.2021-13.3345-0.3584-19.0747-0.4688        c-5.6523-0.1084-10.7305-0.207-15.2344-0.2939c-0.5298-0.0107-1.2144-0.0586-2.0518-0.1416        c-0.8389-0.082-1.7197-0.1504-2.647-0.2012c-0.9263-0.0527-1.8091-0.1201-2.646-0.2021        c-0.8389-0.083-1.5215-0.1309-2.0513-0.1416c-1.7681-0.0342-2.6724,1.127-2.7178,3.4873l-0.0996,5.1543l-0.6421,33.3564        c-0.4331,4.1025,1.9077,8.665,7.0249,13.6846C39.8418,371.458,44.8745,373.8467,50.3516,373.9531z M82.8721,329.9883        l12.7197,0.1426l0.1011,8.4961c-0.0508,2.6289-0.7632,5.2432-2.1382,7.8467l-4.9121,0.4111        c-1.562-1.4473-3.4595-3.9102-5.688-7.3906c-1.1152-1.7754-2.1436-3.4287-3.0854-4.9639        c-0.9434-1.5352-1.8438-2.9854-2.6992-4.3486C78.3203,330.001,80.2227,329.9365,82.8721,329.9883z M42.5132,333.71        c0.1206-1.7842,0.3374-3.7529,0.6436-5.9043l2.396-0.5596c0.8823,0.0176,2.7153,0.0859,5.4961,0.207        c2.7808,0.1201,6.5977,0.2949,11.4531,0.5234c4.2427,9.0469,6.4409,14.1455,6.5967,15.2949        c-1.0063,1.7324-3.7881,4.0381-8.3496,6.918c-4.2056,2.6807-7.3223,4.0039-9.353,3.9639        c-2.4741-0.0459-4.6475-1.9092-6.519-5.585c-1.7935-3.2041-2.6572-6.4893-2.5928-9.8584        C42.314,337.1602,42.3896,335.4922,42.5132,333.71z"/>
						<path class="st52" d="M88.2354,440.3672c3.6709,4.6924,7.0928,7.791,10.2681,9.2949        c3.666,1.8252,7.9922,1.8379,12.9761,0.0342c5.9805-2.1641,8.6089-7.4873,7.8892-15.9707        c-0.3052-2.4004-0.8862-5.2354-1.7412-8.5098c-0.8564-3.2734-2.0522-7.0352-3.5884-11.2803l-7.396-20.4385        c-0.9233-2.0303-2.0298-2.8857-3.3223-2.5605c-21.7349,7.4346-37.5845,12.9551-47.5513,16.5615l-15.6436,5.4453        c-3.4883,1.2617-5.2534,2.6162-5.2925,4.0654l2.6831,7.415c0.8027,2.2178,1.7715,3.3379,2.9058,3.3564        c0.4224,0.1328,1.9224-0.2656,4.4985-1.1982c1.3276-0.4795,2.9473-1.0654,4.8589-1.7578        c1.9937-0.7217,4.3721-1.5459,7.1362-2.4746s5.1001-1.7383,7.0117-2.4297c1.9937-0.7217,3.6133-1.3076,4.8589-1.7588        c0.4917,0.3232,1.1392,0.8779,1.9409,1.6641c0.7993,0.7852,1.8726,1.8652,3.2163,3.2441        c2.4512,2.623,3.7939,4.2529,4.0234,4.8877c0.6421,1.7725-3.7935,6.7832-13.3027,15.0264        c-4.6802,4.2021-8.3125,7.4697-10.8965,9.8027c-2.5854,2.333-4.1299,3.8398-4.6328,4.5264l4.6177,11.9824        c0.3901,1.0762,0.7812,1.9023,1.1782,2.4766c0.3945,0.5723,0.7979,1.0361,1.208,1.3906        c2.9604-2.7207,5.8428-5.4648,8.645-8.2354c2.8013-2.7715,5.6724-5.5469,8.6104-8.3301        C82.5239,447.5576,87.4717,442.1494,88.2354,440.3672z M98.9434,408.4326l5.8135,16.0654        c1.4448,3.9932,1.1279,6.3652-0.9478,7.1162c-2.2427,0.8115-5.7534-1.3584-10.5288-6.5107        c-2.7671-3.2285-6.0342-6.418-9.8032-9.5693l-0.4814-1.3311L98.9434,408.4326z"/>
						<path class="st52" d="M155.7329,516.8369l8.7588-7.0811c2.3511-1.8652,3.6011-3.418,3.749-4.6523l-14.6431-18.4521        c-0.7949-0.5742-1.5659-1.1895-2.3105-1.8438c-0.7471-0.6553-1.5161-1.2725-2.3096-1.8447        c-1.8267-1.3066-3.9834-2.1748-6.4697-2.6104c-6.7817-0.7275-14.4507,0.1963-23.0059,2.7705        c-5.3828,1.6045-13.3105,4.7568-23.7886,9.458c-5.7114,2.4678-10.6113,4.5703-14.6987,6.3105        c-4.0903,1.7393-7.4307,3.0352-10.0229,3.8887c0.0151,0.5889,0.1436,1.1758,0.3833,1.7617        c0.2373,0.5859,0.5889,1.2754,1.0503,2.0703c0.4619,0.7939,1.0835,1.7207,1.8662,2.7773        c0.7817,1.0576,1.7603,2.3232,2.9336,3.8027c1.2573,1.584,2.6562,2.4941,4.1997,2.7334        c0.2207-0.0049,0.7275-0.1484,1.5186-0.4316c0.7891-0.2842,1.9883-0.7607,3.5972-1.4355        c3.4771-1.7266,6.1387-2.6348,7.9868-2.7236c0.2095,0.2627,0.7544,0.9502,1.6343,2.0586s2.1489,2.6377,3.8115,4.5889        l9.6597,12.5977c-2.1597,1.541-4.0464,2.9316-5.6577,4.1689c-1.6143,1.2344-3.0288,2.2939-4.2461,3.1758        c-1.1216,0.7168-0.9277,2.0264,0.5806,3.9277l7.3535,9.2637c1.0464,1.3193,3.4512,0.2295,7.2134-3.2715l6.353-4.7842        l19.4517-14.9219L155.7329,516.8369z M125.2256,519.1084l-8.5469-10.7695l-0.8809-1.1084        c-0.5869-0.7402-1.4321-1.876-2.5352-3.4082c-1.2178-1.96-1.8135-2.9932-1.7847-3.1016        c1.1089-0.0205,2.5605-0.29,4.3496-0.8066c1.7891-0.5156,3.916-1.2803,6.3848-2.293        c4.9619-2.1299,8.9023-3.0635,11.8193-2.7979c4.3901,0.5596,8.6455,3.5068,12.7681,8.8398l-18.2666,14.498        C127.6045,518.9824,126.5024,519.2988,125.2256,519.1084z"/>
						<path class="st52" d="M207.3574,534.4775c-7.1387-4.7246-16.4727-6.5586-28-5.5039        c-9.5547,0.8799-14.8525,1.5576-15.8945,2.0332c-0.7842,0.3281-1.5898,1.1201-2.418,2.3721l-19.2397,27.7822l-6.5083,9.834        c-2.6821,4.0527-3.4043,6.4863-2.1675,7.3047c0.2803,0.1855,1.3784,0.9678,3.2988,2.3428        c1.917,1.376,4.6587,3.4014,8.2222,6.0781c1.5479-1.7295,3.855-4.7568,6.9209-9.084        c3.0654-4.3271,6.8906-9.9512,11.4741-16.876l4.5786-6.1846l4.5454-6.6846c1.8892-0.6562,3.8682-1.1729,5.9375-1.5508        c2.0693-0.3789,4.3032-0.6729,6.7075-0.8838c5.4551-0.3076,9.5625,0.4502,12.3164,2.2734        c0.3926,0.2588,0.7607,0.5576,1.1074,0.8906c0.3428,0.335,0.6113,0.7236,0.8027,1.168        c3.8887,5.1152,3.0283,11.9102-2.5781,20.3799c-7.0215,10.6055-18.5781,19.6406-34.6709,27.1035l1.6865,1.1152        c0.231,0.2607,0.7144,0.6592,1.4492,1.1982c0.7339,0.54,1.7471,1.2373,3.0405,2.0928        c1.3398,0.7822,2.4336,1.4512,3.2769,2.0098c0.8984,0.5938,1.6016,1.0605,2.1074,1.3945        c0.7861,0.5205,1.3164,0.8193,1.5908,0.8936c1.7227,0.083,3.5869-0.5371,5.5942-1.8574        c2.2632-1.4668,4.2065-2.7227,5.8286-3.7695c1.6201-1.0459,3.0264-1.9141,4.2148-2.6123        c8.042-5.7998,14.2812-12.0508,18.7178-18.7549c5.2168-7.8809,8.0527-15.6445,8.5049-23.2881        C218.2012,546.4229,214.7188,539.3506,207.3574,534.4775z"/>
						<path class="st52" d="M290.7812,580.6377c-3.3105-4.043-7.29-7.5146-11.9385-10.4209        c-5.2246-3.4033-11.4131-5.9443-18.5645-7.6221c-2.2324-0.5234-4.1055-0.5068-5.6182,0.0439l-10.8711,45.8994        c-3.4092,14.5352-5.6426,23.1748-6.7031,25.9209c1.4082,0.7842,4.9033,1.8984,10.4824,3.3428        c5.5811,1.4443,13.292,3.3213,23.1348,5.6309c4.1338,0.9697,7.7578,1.5254,10.876,1.667        c3.1152,0.1416,5.7656-0.166,7.9531-0.9258c5.4131-1.541,8.9189-5.709,10.5127-12.5029l1.7559-7.4824        c2.2588-9.6309,1.3125-19.4707-2.8369-29.5186C296.8164,589.3594,294.0898,584.6816,290.7812,580.6377z M284.3701,612.6143        c-0.9082,3.8691-3.4561,6.7666-7.6455,8.6855c-1.3184,0.5996-3.4434,0.8057-6.374,0.6143        c-2.9336-0.1875-6.6523-0.8555-11.1602-2.0049l-3.248-0.7617c0.0811-0.3438,0.5537-2.0693,1.4229-5.1777        c0.8672-3.1084,2.1055-7.6484,3.7148-13.624c0.8154-4.0723,1.5977-7.6992,2.3447-10.8818        c0.7461-3.1807,1.3916-5.9336,1.9365-8.2559c6.5977,4.6328,11.5693,9.7012,14.917,15.2041        C284.0947,602.5693,285.459,607.9697,284.3701,612.6143z"/>
						<path class="st52" d="M413.8887,598.2959c-2.2246-5.3496-4.9053-9.3174-8.042-11.9004        c-1.8037-1.5752-3.6768-3.0107-5.6182-4.3057c-1.9414-1.2939-4.0244-2.4844-6.2471-3.5693        c-5.4062-2.8633-9.7842-4.1074-13.1328-3.7354c-1.1582-0.0469-2.5801-0.0215-4.2637,0.0762        c-1.6846,0.1006-3.6172,0.4043-5.7979,0.915c-1.4824,0.6982-2.625,1.0918-3.4287,1.1826        c-9.5254,3.375-16.7129,8.8428-21.5654,16.4053c-4.8906,7.834-6.7666,16.8438-5.6309,27.0264        c1.2051,10.7979,6.0371,19.457,14.4961,25.9805c8.4014,6.6162,18.0947,9.3125,29.0811,8.0869        c10.582-1.1816,19.1787-6.1846,25.79-15.0117c6.6289-8.6494,9.416-17.7158,8.3574-27.1973        C417.3584,607.5078,416.0254,602.8584,413.8887,598.2959z M396.417,626.7773c-3.8555,4.9639-8.1592,7.7109-12.915,8.2412        l-3.918,0.4375c-5.2246,0.583-10.4131-0.9258-15.5615-4.5293c-5.0254-3.7061-7.8115-8.0146-8.3604-12.9326        c-0.7148-6.4082,0.835-11.96,4.6523-16.6523c3.6729-4.7627,8.958-7.5312,15.8584-8.3018        c3.415-0.3809,6.5898-0.2021,9.5195,0.5381c2.9316,0.7393,5.5225,1.9395,7.7773,3.5977        c2.2529,1.6611,4.0977,3.7646,5.5361,6.3154c1.4375,2.5508,2.3379,5.4512,2.7002,8.6973        C402.2158,616.7539,400.4521,621.6182,396.417,626.7773z"/>
						<path class="st52" d="M515.168,604.9248c-0.1543-2.6934-0.2832-5.002-0.3877-6.9307        c-0.1064-1.9248-0.167-3.5762-0.1846-4.9561c-1.0586-9.8574-3.3994-18.373-7.0273-25.5469        c-4.2646-8.4336-9.6064-14.7412-16.0244-18.9199c-7.8584-4.9355-15.7266-5.4102-23.6055-1.4258        c-7.6387,3.8623-13.8535,11.0645-18.6445,21.6025c-3.9648,8.7373-5.999,13.6758-6.1025,14.8154        c-0.1016,0.8447,0.1855,1.9365,0.8633,3.2764l14.6152,30.4707l5.3213,10.5234c2.1934,4.3359,3.9502,6.1689,5.2734,5.499        c0.2998-0.1504,1.5234-0.7197,3.6689-1.7061c2.1445-0.9844,5.2617-2.3643,9.3506-4.1357        c-0.7363-2.2012-2.2246-5.7041-4.4648-10.5098c-2.2422-4.8057-5.2354-10.9131-8.9824-18.3232l-3.1074-7.041l-3.5566-7.2588        c0.3652-1.9658,0.8955-3.9414,1.5908-5.9258c0.6953-1.9863,1.5469-4.0732,2.5537-6.2656        c2.4346-4.8916,5.124-8.0859,8.0723-9.5762c0.4199-0.2129,0.8623-0.3848,1.3223-0.5215        c0.4609-0.1318,0.9326-0.1729,1.4121-0.1191c6.3701-0.8457,11.8477,3.2656,16.4316,12.3301        c5.7393,11.3516,7.8672,25.8652,6.3838,43.543l1.8037-0.9141c0.3408-0.0723,0.9277-0.2939,1.7588-0.666        c0.833-0.3701,1.9385-0.9062,3.3232-1.6055c1.3438-0.7773,2.4668-1.3965,3.3682-1.8525        c0.9619-0.4863,1.7139-0.8662,2.2559-1.1396c0.8408-0.4268,1.3633-0.7393,1.5635-0.9395        C514.9375,609.25,515.3223,607.3223,515.168,604.9248z"/>
					</g>
					<g>
						<path class="st53" d="M597.0645,508.5713c-3.874-3.4834-8.5742-5.8525-14.1006-7.1074        c-1.7686-0.4111-3.6982-0.6748-5.793-0.791c-2.0938-0.1143-4.3281-0.1055-6.7031,0.0234        c-3.7275,0.1816-5.8213,0.0664-6.2812-0.3477c-0.7666-3.7695-1.5664-6.7793-2.3984-9.0225        c-0.833-2.2451-1.6436-3.7227-2.4316-4.4316c-5.5811-5.0195-12.3184-3.1445-20.2041,5.625l-9.4648,10.5225l-8.9912,9.9971        c-0.7676,0.8525-1.4199,1.5791-1.9609,2.1797c-0.4961,0.5527-0.8232,0.9834-0.9824,1.292        c-0.5088,1.3574-0.1367,2.5967,1.1104,3.7188c1.3096,1.4502,3.5322,3.7002,6.6719,6.748        c3.1377,3.0488,7.2793,6.9336,12.4229,11.6494c5.1436,4.7168,9.8506,8.9941,14.1182,12.833        c4.2051,3.7822,7.9805,7.1768,11.3301,10.1895c0.3945,0.3545,0.8809,0.8389,1.46,1.4492        c0.5791,0.6123,1.2002,1.2402,1.8682,1.8848c0.667,0.6455,1.29,1.2744,1.8691,1.8848        c0.5811,0.6123,1.0654,1.0938,1.459,1.4482c1.3154,1.1826,2.7588,0.8955,4.3369-0.8594l3.4482-3.833l22.3086-24.8057        c3.0127-2.8193,4.2275-7.8008,3.6416-14.9453C603.3818,517.335,601.1387,512.2354,597.0645,508.5713z M549.8633,513.3018        c-0.3184,2.0723-0.6221,3.9951-0.9141,5.7715c-0.291,1.7793-0.5596,3.4648-0.8047,5.0566        c-0.9873-0.6182-2.4688-1.8125-4.4385-3.5859l-9.5254-8.4307l5.4814-6.4912c1.7578-1.9531,4.0078-3.4648,6.751-4.5342        l3.9834,2.9033C550.6328,506.1064,550.4551,509.2109,549.8633,513.3018z M584.5977,531.3506        c-0.7402,3.5967-2.2363,6.6475-4.4893,9.1523c-1.0371,1.1533-2.1846,2.3643-3.4453,3.6318        c-1.2588,1.2705-2.71,2.6172-4.3486,4.043l-2.1787-1.1436c-0.6553-0.5898-1.998-1.8408-4.0215-3.752        c-2.0244-1.9102-4.7969-4.5391-8.3184-7.8896c2.71-9.6162,4.3828-14.9102,5.0176-15.8838        c1.8945-0.6514,5.5068-0.5742,10.8408,0.2324c4.9355,0.7227,8.1572,1.7627,9.668,3.1211        C585.1621,524.5166,585.5869,527.3467,584.5977,531.3506z"/>
						<path class="st53" d="M634.0225,403.6875c-4.4678-1.6689-9.2197-2.582-14.2539-2.7373        c-5.7803-0.4326-10.5293,0.167-14.251,1.7969c-2.2207,0.8984-4.3477,1.9209-6.3799,3.0664        c-2.0312,1.1484-4.0342,2.4678-6.0068,3.96c-4.9971,3.5293-8.0859,6.873-9.2646,10.0283        c-0.5664,1.0117-1.1865,2.292-1.8594,3.8389c-0.6719,1.5469-1.2744,3.4092-1.8047,5.585        c-0.0469,1.6377-0.2109,2.835-0.4941,3.5918c-1.293,10.0234,0.3379,18.9072,4.8906,26.6523        c4.7793,7.9033,11.9688,13.6475,21.5654,17.2344c10.1777,3.8047,20.0869,3.4072,29.7275-1.1934        c9.7002-4.5039,16.4834-11.9326,20.3535-22.2881c3.7285-9.9727,3.1494-19.9033-1.7373-29.79        C649.7871,413.6104,642.959,407.0283,634.0225,403.6875z M638.7979,444.6514l-1.3818,3.6934        c-1.8398,4.9238-5.5293,8.8711-11.0703,11.835c-5.5771,2.8096-10.6807,3.3467-15.3154,1.6152        c-6.0391-2.2568-10.29-6.1494-12.752-11.6738c-2.5908-5.4287-2.6719-11.3965-0.2412-17.8994        c1.2031-3.2188,2.7959-5.9688,4.7812-8.25c1.9844-2.2793,4.2256-4.0508,6.7236-5.3125c2.5-1.2588,5.2109-1.9541,8.1348-2.085        c2.9268-0.1289,5.9199,0.377,8.9795,1.5215c4.3037,1.6084,7.8457,5.3799,10.625,11.3105        C639.9668,435.0879,640.4727,440.1699,638.7979,444.6514z"/>
						<path class="st53" d="M672.3125,343.8135c0.0566-1.3486,0.0742-2.3936,0.0566-3.1357        c-0.0195-0.7402-0.0322-1.2783-0.04-1.6172l-57.6211,1.4072c-3.2656,0.0801-4.9229-0.7891-4.9678-2.6094l-0.3135-12.835        c-0.043-1.751-2.0488-4.3311-6.0205-7.7402c-4.0586-3.3398-6.791-4.957-8.2041-4.8564        c-0.6953,0.4209-1.0098,2.0479-0.9414,4.877c0.0244,1.0107-0.0029,5.2588-0.085,12.7432l1.127,40.7275l0.04,1.6172        l0.0381,1.6172l0.0205,0.8086c7.7188,4.8682,12.1953,7.2861,13.4316,7.2559c0.3535-0.0078,0.8789-0.1895,1.5771-0.5439        l-0.5264-21.5264c1.04-0.835,2.667-1.2109,4.877-1.1309l10.334-0.1514c12.8994-0.1123,22.7715-0.1846,29.6172-0.2168        c6.8477-0.0322,10.7568-0.0615,11.7275-0.085c1.8564,0.0225,3.6602-0.292,5.4111-0.9404        C672.8838,356.375,673.0381,351.8203,672.3125,343.8135z"/>
					</g>
				</g>
				<g>
					<g>
						<path class="st54" d="M50.3579,373.9844c5.21,0.0996,10.314-1.1846,15.314-3.8525c1.6064-0.8457,3.2383-1.9092,4.8984-3.1924        c1.6582-1.2822,3.3428-2.752,5.0537-4.4023c2.7002-2.5771,4.3584-3.8604,4.9775-3.8486        c3.0464,2.3496,5.6196,4.1016,7.7183,5.2539c2.0981,1.1533,3.6772,1.7393,4.7373,1.7598        c7.5054,0.1436,11.3735-5.6816,11.5986-17.4727l0.2715-14.1514l0.2573-13.4434c0.022-1.1475,0.041-2.123,0.0562-2.9316        c0.0142-0.7422-0.021-1.2822-0.1011-1.6201c-0.5044-1.3594-1.5967-2.0518-3.2734-2.085        c-1.9404-0.2393-5.0933-0.4863-9.4619-0.7373c-4.3682-0.2529-10.0415-0.4795-17.0161-0.6797        c-6.9761-0.2012-13.334-0.3564-19.0747-0.4668c-5.6528-0.1074-10.7305-0.2051-15.2339-0.292        c-0.5303-0.0098-1.2148-0.0576-2.0522-0.1396c-0.8389-0.084-1.7197-0.1514-2.6465-0.2021        c-0.9268-0.0527-1.8096-0.1201-2.6465-0.2021c-0.8389-0.083-1.5215-0.1309-2.0513-0.1406        c-1.7681-0.0342-2.6724,1.127-2.7178,3.4873l-0.0986,5.1543l-0.6382,33.3564c-0.4331,4.1025,1.9082,8.6641,7.0264,13.6836        C39.8477,371.4912,44.8809,373.8789,50.3579,373.9844z M82.8735,330.0156l12.7192,0.1416l0.1025,8.4961        c-0.0503,2.6289-0.7632,5.2432-2.1382,7.8467l-4.9111,0.4121c-1.5625-1.4463-3.46-3.9092-5.6895-7.3896        c-1.1152-1.7754-2.144-3.4297-3.0859-4.9639c-0.9438-1.5342-1.8438-2.9854-2.6997-4.3486        C78.3218,330.0293,80.2236,329.9648,82.8735,330.0156z M42.5146,333.7422c0.1206-1.7852,0.3369-3.7529,0.6431-5.9033        l2.396-0.5605c0.8823,0.0176,2.7153,0.0859,5.4961,0.2061c2.7803,0.1201,6.5977,0.2949,11.4531,0.5225        c4.2437,9.0469,6.4424,14.1445,6.5986,15.2939c-1.0068,1.7324-3.7886,4.0391-8.3491,6.9189        c-4.2051,2.6816-7.3223,4.0049-9.3525,3.9658c-2.4741-0.0469-4.6475-1.9092-6.5195-5.585        c-1.7939-3.2041-2.6587-6.4893-2.5942-9.8574C42.3159,337.1924,42.3916,335.5244,42.5146,333.7422z"/>
						<path class="st54" d="M88.2388,440.3701c3.6709,4.6924,7.0928,7.7891,10.2676,9.2939        c3.6665,1.8262,7.9927,1.8389,12.9761,0.0342c5.9805-2.1641,8.6094-7.4873,7.8892-15.9707        c-0.3042-2.3994-0.8857-5.2344-1.7407-8.5088c-0.856-3.2744-2.0522-7.0352-3.5884-11.2803l-7.3955-20.4395        c-0.9238-2.0303-2.0303-2.8857-3.3218-2.5615c-21.7358,7.4355-37.585,12.9561-47.5522,16.5635l-15.6431,5.4443        c-3.4888,1.2617-5.2539,2.6162-5.2925,4.0654l2.6826,7.415c0.8032,2.2178,1.7715,3.3379,2.9058,3.3564        c0.4224,0.1318,1.9229-0.2656,4.4985-1.1982c1.3276-0.4795,2.9473-1.0654,4.8589-1.7578        c1.9937-0.7217,4.3721-1.5459,7.1367-2.4746c2.7637-0.9287,5.0996-1.7373,7.0117-2.4297        c1.9932-0.7217,3.6128-1.3076,4.8584-1.7578c0.4917,0.3223,1.1392,0.8779,1.9409,1.6631        c0.7993,0.7861,1.8726,1.8652,3.2168,3.2441c2.4512,2.624,3.7939,4.2529,4.0229,4.8877        c0.6421,1.7725-3.7935,6.7832-13.3027,15.0264c-4.6797,4.2021-8.3125,7.4697-10.8965,9.8027        c-2.5859,2.333-4.1294,3.8398-4.6333,4.5264l4.6182,11.9814c0.3901,1.0762,0.7808,1.9043,1.1777,2.4775        c0.3945,0.5723,0.7979,1.0361,1.208,1.3906c2.9614-2.7217,5.8428-5.4648,8.6455-8.2354        c2.8018-2.7715,5.6724-5.5459,8.6104-8.3311C82.5269,447.5605,87.4751,442.1514,88.2388,440.3701z M98.9468,408.4346        l5.8135,16.0654c1.4448,3.9932,1.1274,6.3662-0.9478,7.1162c-2.2427,0.8125-5.7534-1.3584-10.5288-6.5107        c-2.7671-3.2295-6.0342-6.418-9.8032-9.5703l-0.4814-1.3301L98.9468,408.4346z"/>
						<path class="st54" d="M155.7344,516.8369l8.7588-7.0801c2.3511-1.8662,3.6011-3.4189,3.749-4.6533l-14.6431-18.4512        c-0.7944-0.5742-1.5654-1.1904-2.3105-1.8447c-0.7471-0.6553-1.5161-1.2715-2.3096-1.8447        c-1.8267-1.3057-3.9834-2.1748-6.4697-2.6094c-6.7812-0.7285-14.4507,0.1953-23.0059,2.7695        c-5.3823,1.6045-13.3105,4.7568-23.7886,9.458c-5.7114,2.4688-10.6113,4.5693-14.6987,6.3105        c-4.0903,1.7383-7.4307,3.0352-10.0229,3.8887c0.0151,0.5889,0.1436,1.1758,0.3833,1.7617        c0.2373,0.5859,0.5889,1.2744,1.0503,2.0703c0.4619,0.7939,1.0835,1.7207,1.8662,2.7773        c0.7817,1.0566,1.7603,2.3242,2.9336,3.8027c1.2573,1.584,2.6562,2.4941,4.1997,2.7334        c0.2207-0.0049,0.7275-0.1484,1.5186-0.4307c0.7891-0.2842,1.9883-0.7617,3.5972-1.4365        c3.4771-1.7266,6.1387-2.6338,7.9868-2.7236c0.2095,0.2627,0.7544,0.9502,1.6343,2.0586s2.1489,2.6377,3.811,4.5898        l9.6602,12.5967c-2.1602,1.541-4.0464,2.9316-5.6577,4.168c-1.6143,1.2363-3.0288,2.2959-4.2461,3.1768        c-1.1216,0.7168-0.9277,2.0273,0.5806,3.9277l7.353,9.2637c1.0469,1.3203,3.4512,0.2305,7.2139-3.2715l6.3525-4.7842        l19.4521-14.9219L155.7344,516.8369z M125.2271,519.1084l-8.5474-10.7695l-0.8799-1.1084        c-0.5874-0.7402-1.4326-1.876-2.5356-3.4082c-1.2178-1.9609-1.813-2.9941-1.7847-3.1016        c1.1094-0.0205,2.5605-0.29,4.3496-0.8066c1.7891-0.5156,3.916-1.2803,6.3848-2.293        c4.9619-2.1299,8.9023-3.0635,11.8193-2.7969c4.3906,0.5586,8.6455,3.5059,12.7681,8.8398l-18.2666,14.4971        C127.606,518.9824,126.5039,519.2988,125.2271,519.1084z"/>
						<path class="st54" d="M207.3584,534.4795c-7.1377-4.7246-16.4717-6.5586-27.9995-5.5039        c-9.5542,0.8799-14.8525,1.5576-15.8945,2.0332c-0.7842,0.3281-1.5898,1.1201-2.418,2.3711l-19.2393,27.7832l-6.5088,9.834        c-2.6821,4.0527-3.4043,6.4863-2.1675,7.3047c0.2803,0.1855,1.3784,0.9678,3.2988,2.3428        c1.9175,1.376,4.6592,3.4014,8.2222,6.0781c1.5479-1.7295,3.8555-4.7568,6.9214-9.084        c3.0649-4.3271,6.8906-9.9512,11.4736-16.876l4.5786-6.1846l4.5454-6.6846c1.8892-0.6562,3.8682-1.1729,5.9375-1.5508        c2.0693-0.3789,4.3037-0.6729,6.708-0.8838c5.4551-0.3076,9.5615,0.4492,12.3154,2.2734        c0.3926,0.2588,0.7617,0.5576,1.1074,0.8906c0.3428,0.335,0.6123,0.7236,0.8037,1.168        c3.8877,5.1152,3.0273,11.9102-2.5791,20.3799c-7.0205,10.6055-18.5776,19.6406-34.6704,27.1035l1.6865,1.1152        c0.231,0.2607,0.7144,0.6592,1.4497,1.1982c0.7334,0.54,1.7466,1.2363,3.04,2.0928c1.3398,0.7822,2.4336,1.4512,3.2769,2.0098        c0.8984,0.5938,1.6016,1.0605,2.1074,1.3945c0.7866,0.5205,1.3169,0.8193,1.5908,0.8926        c1.7227,0.084,3.5874-0.5361,5.5942-1.8564c2.2627-1.4668,4.2061-2.7227,5.8281-3.7695        c1.6211-1.0459,3.0264-1.915,4.2148-2.6123c8.042-5.7998,14.2812-12.0508,18.7188-18.7549        c5.2168-7.8809,8.0518-15.6445,8.5049-23.2881C218.2021,546.4248,214.7207,539.3525,207.3584,534.4795z"/>
						<path class="st54" d="M290.7822,580.6377c-3.3105-4.042-7.29-7.5146-11.9385-10.4199        c-5.2246-3.4033-11.4131-5.9443-18.5645-7.6221c-2.2324-0.5234-4.1055-0.5078-5.6182,0.0439l-10.8701,45.8994        c-3.4092,14.5352-5.6436,23.1748-6.7031,25.9209c1.4072,0.7842,4.9023,1.8984,10.4824,3.3428s13.291,3.3213,23.1338,5.6309        c4.1338,0.9688,7.7578,1.5254,10.876,1.666c3.1162,0.1416,5.7666-0.166,7.9531-0.9248        c5.4141-1.541,8.9199-5.71,10.5137-12.5039l1.7549-7.4814c2.2588-9.6318,1.3125-19.4707-2.8369-29.5186        C296.8184,589.3594,294.0908,584.6816,290.7822,580.6377z M284.3711,612.6143c-0.9072,3.8701-3.4561,6.7666-7.6445,8.6865        c-1.3184,0.5996-3.4434,0.8047-6.375,0.6143c-2.9326-0.1875-6.6523-0.8564-11.1602-2.0049l-3.248-0.7627        c0.0811-0.3428,0.5537-2.0684,1.4229-5.1768c0.8672-3.1084,2.1055-7.6494,3.7148-13.624        c0.8164-4.0723,1.5986-7.7002,2.3447-10.8818s1.3916-5.9336,1.9365-8.2559c6.5977,4.6328,11.5693,9.7002,14.917,15.2031        C284.0957,602.5703,285.4609,607.9697,284.3711,612.6143z"/>
						<path class="st54" d="M413.8906,598.2969c-2.2246-5.3516-4.9053-9.3174-8.042-11.9004        c-1.8037-1.5762-3.6768-3.0107-5.6182-4.3057c-1.9424-1.2949-4.0244-2.4844-6.2471-3.5703        c-5.4062-2.8633-9.7842-4.1064-13.1328-3.7344c-1.1592-0.0469-2.5811-0.0215-4.2637,0.0762        c-1.6846,0.1006-3.6172,0.4043-5.7988,0.915c-1.4824,0.6982-2.624,1.0918-3.4277,1.1826        c-9.5254,3.374-16.7129,8.8428-21.5664,16.4043c-4.8896,7.835-6.7666,16.8447-5.6299,27.0273        c1.2051,10.7979,6.0371,19.457,14.4961,25.9795c8.4014,6.6172,18.0947,9.3125,29.0811,8.0859        c10.582-1.1797,19.1787-6.1826,25.79-15.0098c6.6289-8.6494,9.416-17.7158,8.3574-27.1973        C417.3594,607.5088,416.0273,602.8594,413.8906,598.2969z M396.4189,626.7783c-3.8555,4.9629-8.1602,7.7109-12.915,8.2412        l-3.918,0.4365c-5.2246,0.584-10.4131-0.9248-15.5615-4.5293c-5.0264-3.7051-7.8115-8.0146-8.3604-12.9316        c-0.7148-6.4082,0.835-11.96,4.6523-16.6523c3.6719-4.7627,8.958-7.5322,15.8574-8.3018        c3.416-0.3809,6.5898-0.2031,9.5205,0.5371c2.9316,0.7402,5.5225,1.9404,7.7764,3.5986        c2.2539,1.6602,4.0986,3.7646,5.5371,6.3145c1.4375,2.5518,2.3379,5.4512,2.7002,8.6982        C402.2178,616.7549,400.4541,621.6182,396.4189,626.7783z"/>
						<path class="st54" d="M515.1729,604.9248c-0.1543-2.6924-0.2832-5.002-0.3887-6.9307        c-0.1064-1.9248-0.166-3.5762-0.1836-4.9551c-1.0586-9.8584-3.3994-18.374-7.0273-25.5479        c-4.2646-8.4346-9.6064-14.7412-16.0244-18.9199c-7.8584-4.9346-15.7266-5.4111-23.6055-1.4268        c-7.6387,3.8633-13.8535,11.0654-18.6445,21.6025c-3.9648,8.7383-5.999,13.6768-6.1025,14.8164        c-0.1016,0.8447,0.1855,1.9355,0.8633,3.2754l14.6143,30.4707l5.3223,10.5244c2.1924,4.3359,3.9492,6.1689,5.2734,5.499        c0.2998-0.1504,1.5225-0.7188,3.668-1.7061c2.1445-0.9854,5.2617-2.3643,9.3516-4.1357        c-0.7363-2.2012-2.2246-5.7041-4.4648-10.5107c-2.2432-4.8047-5.2354-10.9121-8.9824-18.3223l-3.1074-7.042l-3.5566-7.2578        c0.3652-1.9668,0.8945-3.9414,1.5908-5.9258c0.6953-1.9863,1.5469-4.0732,2.5537-6.2656        c2.4346-4.8926,5.124-8.085,8.0723-9.5762c0.4199-0.2129,0.8613-0.3848,1.3223-0.5205        c0.4609-0.1328,0.9326-0.1738,1.4121-0.1211c6.3701-0.8438,11.8477,3.2676,16.4307,12.3311        c5.7402,11.3525,7.8682,25.8652,6.3838,43.543l1.8047-0.9141c0.3408-0.0723,0.9268-0.2939,1.7588-0.666        c0.832-0.3701,1.9385-0.9053,3.3223-1.6064c1.3447-0.7764,2.4668-1.3955,3.3691-1.8516        c0.9609-0.4863,1.7139-0.8652,2.2549-1.1396c0.8418-0.4268,1.3633-0.7383,1.5645-0.9395        C514.9424,609.25,515.3262,607.3223,515.1729,604.9248z"/>
					</g>
					<g>
						<path class="st55" d="M597.0713,508.5732c-3.875-3.4834-8.5752-5.8525-14.1016-7.1074        c-1.7686-0.4111-3.6973-0.6738-5.792-0.791c-2.0938-0.1143-4.3291-0.1055-6.7031,0.0225        c-3.7285,0.1826-5.8213,0.0674-6.2822-0.3467c-0.7656-3.7695-1.5654-6.7793-2.3984-9.0234        c-0.833-2.2451-1.6426-3.7217-2.4307-4.4307c-5.582-5.0195-12.3184-3.1465-20.2051,5.624l-9.4648,10.5225l-8.9912,9.9971        c-0.7666,0.8535-1.4199,1.5791-1.96,2.1797c-0.4971,0.5527-0.8242,0.9834-0.9834,1.291        c-0.5088,1.3584-0.1367,2.5986,1.1104,3.7197c1.3105,1.4492,3.5332,3.7002,6.6719,6.748        c3.1377,3.0498,7.2793,6.9336,12.4229,11.6494c5.1436,4.7168,9.8506,8.9951,14.1182,12.834        c4.2041,3.7812,7.9805,7.1768,11.3301,10.1895c0.3945,0.3545,0.8809,0.8379,1.459,1.4492        c0.5801,0.6123,1.2012,1.2402,1.8691,1.8848c0.666,0.6455,1.29,1.2744,1.8691,1.8848        c0.5801,0.6113,1.0654,1.0928,1.459,1.4482c1.3145,1.1826,2.7588,0.8955,4.3359-0.8594l3.4492-3.833l22.3096-24.8047        c3.0107-2.8193,4.2256-7.8018,3.6406-14.9463C603.3877,517.3379,601.1436,512.2373,597.0713,508.5732z M549.8701,513.3037        c-0.3184,2.0723-0.6221,3.9951-0.915,5.7715c-0.291,1.7793-0.5586,3.4639-0.8037,5.0557        c-0.9883-0.6172-2.4688-1.8115-4.4395-3.585l-9.5244-8.4307l5.4814-6.4912c1.7568-1.9551,4.0078-3.4668,6.751-4.5342        l3.9824,2.9023C550.6387,506.1074,550.4609,509.2129,549.8701,513.3037z M584.6035,531.3535        c-0.7402,3.5957-2.2363,6.6465-4.4893,9.1514c-1.0371,1.1533-2.1855,2.3652-3.4453,3.6318        c-1.2588,1.2705-2.71,2.6172-4.3486,4.043l-2.1787-1.1436c-0.6553-0.5908-1.9971-1.8408-4.0215-3.7529        c-2.0244-1.9092-4.7969-4.5381-8.3184-7.8896c2.7109-9.6162,4.3828-14.9102,5.0176-15.8828        c1.8955-0.6514,5.5078-0.5742,10.8408,0.2324c4.9355,0.7236,8.1582,1.7617,9.668,3.1211        C585.168,524.5186,585.5928,527.3486,584.6035,531.3535z"/>
						<path class="st55" d="M634.0293,403.6895c-4.4678-1.6699-9.2197-2.582-14.2539-2.7373        c-5.7803-0.4336-10.5293,0.166-14.251,1.7969c-2.2207,0.8965-4.3467,1.9199-6.3799,3.0664        c-2.0312,1.1465-4.0342,2.4678-6.0068,3.959c-4.9971,3.5283-8.0859,6.8721-9.2656,10.0283        c-0.5664,1.0127-1.1855,2.292-1.8584,3.8389c-0.6719,1.5479-1.2744,3.4092-1.8057,5.585        c-0.0459,1.6387-0.21,2.835-0.4932,3.5918c-1.293,10.0234,0.3379,18.9072,4.8906,26.6514        c4.7793,7.9043,11.9678,13.6484,21.5645,17.2363c10.1777,3.8047,20.0869,3.4072,29.7275-1.1934        c9.7002-4.5039,16.4844-11.9326,20.3545-22.2871c3.7275-9.9736,3.1494-19.9043-1.7373-29.791        C649.7939,413.6133,642.9648,407.0303,634.0293,403.6895z M638.8037,444.6533l-1.3809,3.6934        c-1.8398,4.9238-5.5293,8.8701-11.0713,11.834c-5.5771,2.8105-10.6797,3.3467-15.3154,1.6143        c-6.0381-2.2568-10.29-6.1475-12.752-11.6729c-2.5898-5.4297-2.6719-11.3955-0.2402-17.8984        c1.2031-3.2207,2.7959-5.9697,4.7812-8.25c1.9844-2.2812,4.2246-4.0508,6.7236-5.3125c2.5-1.2588,5.2109-1.9541,8.1338-2.0859        c2.9268-0.1289,5.9209,0.3779,8.9814,1.5225c4.3027,1.6084,7.8438,5.3789,10.624,11.3096        C639.9736,435.0898,640.4795,440.1709,638.8037,444.6533z"/>
						<path class="st55" d="M672.3203,343.8154c0.0566-1.3486,0.0742-2.3936,0.0566-3.1367        c-0.0186-0.7393-0.0322-1.2783-0.04-1.6162l-57.6211,1.4072c-3.2656,0.0801-4.9229-0.79-4.9678-2.6094l-0.3135-12.835        c-0.043-1.752-2.0479-4.3311-6.0205-7.7402c-4.0586-3.3398-6.791-4.957-8.2041-4.8564        c-0.6943,0.4209-1.0098,2.0469-0.9414,4.877c0.0244,1.0098-0.0029,5.2588-0.085,12.7432l1.127,40.7275l0.04,1.6172        l0.0381,1.6162l0.0205,0.8096c7.7188,4.8672,12.1953,7.2861,13.4316,7.2559c0.3535-0.0088,0.8789-0.1895,1.5771-0.5439        l-0.5264-21.5264c1.04-0.835,2.667-1.2119,4.877-1.1309l10.334-0.1523c12.8994-0.1113,22.7715-0.1836,29.6172-0.2168        c6.8477-0.0312,10.7578-0.0615,11.7275-0.084c1.8564,0.0225,3.6602-0.292,5.4111-0.9414        C672.8916,356.377,673.0459,351.8223,672.3203,343.8154z"/>
					</g>
				</g>
			</g>
		</g>
	</g>
</g>
<g id="Head">
	<g id="XMLID_1_">
		
		<g>
			
				<use xlink:href="#BrandonBotHead" width="424.9795" height="539.895" x="-212.4898" y="-269.9475" transform="matrix(1 0 0 -1 350 290)" style="overflow:visible;"/>
		</g>
	</g>
</g>
</svg>
