<svg xmlns="http://www.w3.org/2000/svg" xmlns:xlink="http://www.w3.org/1999/xlink" viewBox="0 0 700 700">
    <style>
        .st1 {
            fill: #212121;
            stroke: #000;
            stroke-width: 8
        }

        .st4 {
            fill: #ca002d
        }

        .st5, .st7 {
            fill: none;
            stroke: #000;
            stroke-width: 11
        }

        .st7 {
            fill: #fff;
            stroke-width: 3
        }

        .st8 {
            opacity: .43
        }

        .st51, .st52, .st53 {
            fill: #0c4d8c;
            stroke: #000;
            stroke-width: 28;
            stroke-linecap: round;
            stroke-linejoin: round
        }

        .st52, .st53 {
            fill: #dc143c;
            stroke: #fff;
            stroke-width: 11
        }

        .st53 {
            fill: #084c8d
        }

        .st54 {
            fill: #dc143c
        }

        .st55 {
            fill: #084c8d
        }
    </style>
    <symbol id="BrandonBotHead" viewBox="-212.49 -269.947 424.979 539.895">
        <path d="M-179.745-92.808s-7.239-17.416-3.266-25.523c3.973-8.108 12.908-12.64 4.186-23.681 4.907 4.071 7.544 7.89 7.544 7.89s2.182-5.793-6.063-14.264c-8.244-8.473-9.065-21.646 12.59-30.286-10.138 8.423-9.237 14.057-9.237 14.057s8.09-10.665 21.788-16.676c13.699-6.01 6.968-14.313 7.804-21.766.833-7.453 7.19-16.3 22.766-18.579-6.496 3.296-6.942 7.27-6.942 7.27s14.143-9.985 24.313-11.864c10.17-1.878 16.558-4.181 28.21-12.433 11.65-8.254 16.413-9.734 37.008-8.933 20.596.799 35.95.508 38.5-1.722 2.547-2.23.955 169.16.955 169.16"/>
        <path d="M174.936-93.309s7.24-17.416 3.267-25.523c-3.974-8.108-12.909-12.64-4.187-23.68-4.907 4.07-7.544 7.889-7.544 7.889s-2.181-5.793 6.064-14.264c8.243-8.473 9.064-21.646-12.59-30.286 10.138 8.423 9.236 14.057 9.236 14.057s-8.089-10.665-21.788-16.676c-13.698-6.01-6.968-14.313-7.804-21.766-.833-7.453-7.19-16.3-22.765-18.579 6.496 3.296 6.941 7.27 6.941 7.27s-14.142-9.985-24.312-11.864c-10.171-1.878-16.559-4.181-28.21-12.433-11.65-8.254-16.413-9.734-37.008-8.933-20.597.799-35.951.508-38.5-1.722-2.548-2.23-.955 169.16-.955 169.16"/>
        <path d="M-99.728-223.947s18-6 22-18 22-22.666 42-18c-5.333 0-17.333 6-17.333 6s22.666-4.666 34.666-6c12-1.334 16-10 16-10l.667 10.666 2.667-8.666 10 9.333v-6.667s18 7.333 36 6 29.332 23.334 38.666 27.334c-11.333-16.667-11.333-20.667-11.333-20.667s16.667 23.333 34 31.333-11.333 22-44 22"/>
        <path d="M16 76.458c0-13.255-7.164-24-16-24h-3.999c-8.836 0-16 10.745-16 24V197.95c0 13.255 7.164 24 16 24h4c8.835 0 16-10.745 16-24V76.458z" fill="#212121" stroke="#000" stroke-width="6.532"/>
        <path class="st1" d="M105.37 29.962c0-13.255-8.681-24-19.39-24H-89.73c-10.709 0-19.39 10.745-19.39 24v83.993c0 13.255 8.681 24 19.39 24H85.98c10.709 0 19.39-10.745 19.39-24V29.962z"/>
        <path class="st1" d="M208.49-55.532c0-18.778-15.223-34-34-34h-348.98c-18.777 0-34 15.222-34 34V26.46c0 18.778 15.223 34 34 34h348.98c18.777 0 34-15.222 34-34v-81.993z"/>
        <path d="M167.617-117.53c0-18.777-15.223-34-34-34h-270.984c-18.777 0-34 15.223-34 34V69.458c0 18.778 15.223 34 34 34h270.984c18.777 0 34-15.222 34-34V-117.53z" fill="#e0e0e0" stroke="#000" stroke-width="8"/>
        <ellipse transform="rotate(-88.728 -2.994 220.945)" cx="-2.999" cy="220.95" rx="44.998" ry="44.997" fill="#ca002d" stroke="#000" stroke-width="8"/>
        <path class="st4" d="M22.144 258.273a44.787 44.787 0 0 0 4.854-20.323c0-24.852-20.145-44.998-44.997-44.998a44.79 44.79 0 0 0-25.142 7.675C-35.716 185.99-20.535 175.952-3 175.952c24.852 0 44.997 20.146 44.997 44.998 0 15.539-7.875 29.238-19.854 37.323z"/>
        <path class="st5" d="M-156.176 26.122s3.999-35.98 11.55-44.421c7.551-8.44 43.977-19.1 88.398-12.883 6.219 2.222 20.434 18.657 30.206 46.643 0 0 6.664 18.213-5.774 23.987-15.14 7.03-71.074 18.658-115.496 11.55 0 0-13.326-1.332-8.884-24.876zM152.54 26.122s-3.998-35.98-11.55-44.421c-7.551-8.44-43.977-19.1-88.398-12.883-6.218 2.222-20.433 18.657-30.206 46.643 0 0-6.664 18.213 5.775 23.987 15.138 7.03 71.073 18.658 115.496 11.55 0 0 13.325-1.332 8.883-24.876z"/>
        <path d="M-25.062 11.553s20 21 45 0v25s-18-10.5-42 .5M-157.729 46.719l-14.666-2.666 1.333-16 13.333-8.668M153.605 46.719l14.666-2.666-1.333-16-13.333-8.668"/>
        <circle cx="-3.062" cy="-48.947" r="20" fill="#ca002d" stroke="#000" stroke-width="4.706"/>
        <path class="st4" d="M10.912-34.652a19.948 19.948 0 0 0 1.026-6.296c0-11.045-8.954-20-20-20-5.441 0-10.367 2.18-13.974 5.705 2.64-7.958 10.13-13.705 18.974-13.705 11.046 0 20 8.955 20 20 0 5.606-2.313 10.665-6.026 14.296z"/>
        <circle class="st7" cx="-89.062" cy="10.053" r="36"/>
        <circle cx="-93.062" cy="15.053" r="16"/>
        <path class="st8" d="M-69.712 40.403a35.816 35.816 0 0 0 5.65-19.35c0-19.882-16.118-36-36-36a35.82 35.82 0 0 0-19.35 5.649c6.394-10.008 17.593-16.65 30.35-16.65 19.882 0 36 16.119 36 36 0 12.758-6.642 23.957-16.65 30.35z"/>
        <circle class="st7" cx="91.938" cy="10.053" r="36"/>
        <circle cx="87.938" cy="15.053" r="16"/>
        <path class="st8" d="M111.288 40.403a35.816 35.816 0 0 0 5.65-19.35c0-19.882-16.118-36-36-36a35.82 35.82 0 0 0-19.35 5.649c6.394-10.008 17.593-16.65 30.35-16.65 19.882 0 36 16.119 36 36 0 12.758-6.642 23.957-16.65 30.35z"/>
        <path d="M68.996-102.784c0-3.988-31.226-7.22-69.746-7.22-38.52 0-69.747 3.232-69.747 7.22 0 3.987 31.227 7.218 69.747 7.218 38.52 0 69.746-3.231 69.746-7.218z"/>
        <path d="M-17.727-72.615s-17.334 14.666-40.667 5.333l8-2.667s-22-.667-33.333-8c-11.334-7.333-8.666-15.332-22-16.666-13.334-1.334-21.334-8.666-16.667-18 4 7.333 10 11.333 10 11.333s-10.667-10.667-2-16.667 4-12 4-12c8 4.667 6 11.334 6 11.334s7.333-3.334 2-9.334c10 2.667 23.334 6.666 24.667 16 1.333 9.334 22 19.334 42 16.667-10 6-16 4-16 4s16.666 2.666 27.333-2.667 12.667 10 12.667 10M8.934-69.28s17.334 14.665 40.667 5.332l-8-2.667s21.999-.667 33.333-8 8.666-15.332 22-16.666 21.334-8.665 16.667-18c-4 7.334-10 11.334-10 11.334s10.667-10.668 2-16.668-4-12-4-12c-8 4.667-6 11.334-6 11.334s-7.333-3.333-2-9.333c-10 2.666-23.334 6.665-24.667 16s-22 19.333-42 16.666c10 6 16 4 16 4s-16.666 2.666-27.333-2.667-12.667 10-12.667 10"/>
        <path d="M-167.728-85.282s2.667-25.334 28-34c0 0-7.334-2-12.667 4 0-8 24-15.334 38-14.668 14 .667 22.667 7.334 40.667-8.666-1.333 9.334-10 12.667-10 12.667s14.667-.667 28.667-13.334 42.666-3.333 38.666 9.333c0 0-6.667-7.332-12-8.666 6.667 3.334 12.667 20.667-1.333 24.667 0 0 12.667-2 40.667-2v-50.666s-62-33.334-64.667-34.667c-2.667-1.333-103.999 35.999-113.333 61.333-9.334 25.334-8 42-8 42"/>
        <path d="M166.873-85.282s-2.667-25.334-28-34c0 0 7.334-2 12.667 4 0-8-24-15.334-38-14.668-14 .667-22.667 7.334-40.667-8.666 1.333 9.334 10 12.667 10 12.667s-14.667-.667-28.667-13.334-42.666-3.333-38.666 9.333c0 0 6.667-7.332 12-8.666-6.667 3.334-12.667 20.667 1.333 24.667 0 0-12.667-2-40.667-2v-50.666s62-33.334 64.667-34.667c2.667-1.333 103.999 35.999 113.333 61.333 9.334 25.334 8 42 8 42"/>
        <linearGradient id="SVGID_1_" gradientUnits="userSpaceOnUse" x1="-25.801" y1="257.363" x2="-2.134" y2="189.03">
            <stop offset="0" stop-color="#fff"/>
            <stop offset=".066" stop-color="#f7d8df"/>
            <stop offset=".162" stop-color="#eca6b6"/>
            <stop offset=".262" stop-color="#e37991"/>
            <stop offset=".366" stop-color="#db5472"/>
            <stop offset=".473" stop-color="#d53559"/>
            <stop offset=".585" stop-color="#d01e46"/>
            <stop offset=".704" stop-color="#cd0d38"/>
            <stop offset=".835" stop-color="#cb0330"/>
            <stop offset="1" stop-color="#ca002d"/>
        </linearGradient>
        <path d="M-8.355 227.34c-8.396-8.266-20.071-10.02-26.076-3.92-6.006 6.1-4.069 17.746 4.328 26.011 8.396 8.266 20.071 10.022 26.077 3.922 6.005-6.1 4.067-17.747-4.329-26.012z" fill="url(#SVGID_1_)"/>
        <linearGradient id="SVGID_2_" gradientUnits="userSpaceOnUse" x1="-12.098" y1="-34.33" x2="-1.766" y2="-64.16">
            <stop offset="0" stop-color="#fff"/>
            <stop offset=".066" stop-color="#f7d8df"/>
            <stop offset=".162" stop-color="#eca6b6"/>
            <stop offset=".262" stop-color="#e37991"/>
            <stop offset=".366" stop-color="#db5472"/>
            <stop offset=".473" stop-color="#d53559"/>
            <stop offset=".585" stop-color="#d01e46"/>
            <stop offset=".704" stop-color="#cd0d38"/>
            <stop offset=".835" stop-color="#cb0330"/>
            <stop offset="1" stop-color="#ca002d"/>
        </linearGradient>
        <path d="M-4.482-47.436c-3.665-3.608-8.762-4.375-11.383-1.712-2.622 2.663-1.776 7.747 1.889 11.356 3.666 3.608 8.763 4.375 11.385 1.713 2.62-2.664 1.775-7.748-1.891-11.357z" fill="url(#SVGID_2_)"/>
        <linearGradient id="SVGID_3_" gradientUnits="userSpaceOnUse" x1="-99.097" y1="28.17" x2="-88.766" y2="-1.66">
            <stop offset="0" stop-color="#fff"/>
            <stop offset=".066" stop-color="#d8d8d8"/>
            <stop offset=".162" stop-color="#a6a6a6"/>
            <stop offset=".262" stop-color="#797979"/>
            <stop offset=".366" stop-color="#545454"/>
            <stop offset=".473" stop-color="#353535"/>
            <stop offset=".585" stop-color="#1e1e1e"/>
            <stop offset=".704" stop-color="#0d0d0d"/>
            <stop offset=".835" stop-color="#030303"/>
            <stop offset="1"/>
        </linearGradient>
        <path d="M-91.482 15.064c-3.665-3.608-8.762-4.375-11.383-1.712-2.622 2.663-1.776 7.747 1.889 11.356 3.666 3.608 8.762 4.375 11.385 1.713 2.62-2.664 1.775-7.748-1.891-11.357z" fill="url(#SVGID_3_)"/>
        <linearGradient id="SVGID_4_" gradientUnits="userSpaceOnUse" x1="81.903" y1="27.67" x2="92.234" y2="-2.16">
            <stop offset="0" stop-color="#fff"/>
            <stop offset=".066" stop-color="#d8d8d8"/>
            <stop offset=".162" stop-color="#a6a6a6"/>
            <stop offset=".262" stop-color="#797979"/>
            <stop offset=".366" stop-color="#545454"/>
            <stop offset=".473" stop-color="#353535"/>
            <stop offset=".585" stop-color="#1e1e1e"/>
            <stop offset=".704" stop-color="#0d0d0d"/>
            <stop offset=".835" stop-color="#030303"/>
            <stop offset="1"/>
        </linearGradient>
        <path d="M89.518 14.564c-3.665-3.608-8.762-4.375-11.383-1.712-2.622 2.663-1.776 7.747 1.889 11.356 3.666 3.608 8.762 4.375 11.385 1.713 2.62-2.664 1.775-7.748-1.891-11.357z" fill="url(#SVGID_4_)"/>
        <linearGradient id="SVGID_5_" gradientUnits="userSpaceOnUse" x1="-223.048" y1="50.532" x2="-177.713" y2="-22.806">
            <stop offset="0" stop-color="#fff"/>
            <stop offset=".315" stop-color="#b0b0b0"/>
            <stop offset=".646" stop-color="#646464"/>
            <stop offset=".883" stop-color="#333"/>
            <stop offset="1" stop-color="#212121"/>
        </linearGradient>
        <path d="M-179.479-62.614c-11.736 0-21.25 9.514-21.25 21.25v62c0 11.736 9.514 21.25 21.25 21.25" fill="url(#SVGID_5_)"/>
        <linearGradient id="SVGID_6_" gradientUnits="userSpaceOnUse" x1="-93.172" y1="159.403" x2="-43.841" y2="111.405">
            <stop offset="0" stop-color="#fff"/>
            <stop offset=".315" stop-color="#b0b0b0"/>
            <stop offset=".646" stop-color="#646464"/>
            <stop offset=".883" stop-color="#333"/>
            <stop offset="1" stop-color="#212121"/>
        </linearGradient>
        <path d="M-102.353 113.011c0 11.736 9.514 21.25 21.25 21.25h62c11.735 0 21.25-9.514 21.25-21.25" fill="url(#SVGID_6_)"/>
        <linearGradient id="SVGID_7_" gradientUnits="userSpaceOnUse" x1="16968.408" y1="50.532" x2="17013.744" y2="-22.806" gradientTransform="matrix(-1 0 0 1 17189.916 0)">
            <stop offset="0" stop-color="#fff"/>
            <stop offset=".315" stop-color="#b0b0b0"/>
            <stop offset=".646" stop-color="#646464"/>
            <stop offset=".883" stop-color="#333"/>
            <stop offset="1" stop-color="#212121"/>
        </linearGradient>
        <path d="M177.938-62.614c11.736 0 21.25 9.514 21.25 21.25v62c0 11.736-9.514 21.25-21.25 21.25" fill="url(#SVGID_7_)"/>
        <linearGradient id="SVGID_8_" gradientUnits="userSpaceOnUse" x1="-79.364" y1="16.856" x2="-26.362" y2="-54.148">
            <stop offset="0" stop-color="#fff"/>
            <stop offset=".315" stop-color="#b0b0b0"/>
            <stop offset=".646" stop-color="#646464"/>
            <stop offset=".883" stop-color="#333"/>
            <stop offset="1" stop-color="#212121"/>
        </linearGradient>
        <path d="M-147.062-21.282s43.667-19.332 94.667-9.666c8.333 5.333 28.999 48 30.666 49.334 1.667 1.333 19.334 12.332 40.334-3.668-2.334-.332-28.668 4.667-33.334-4.666s-17.667-40.999-34-50.333-87-2.002-98.333 19z" fill="url(#SVGID_8_)"/>
        <linearGradient id="SVGID_9_" gradientUnits="userSpaceOnUse" x1="102.993" y1="-.962" x2="166.661" y2="-27.296">
            <stop offset="0" stop-color="#fff"/>
            <stop offset=".315" stop-color="#b0b0b0"/>
            <stop offset=".646" stop-color="#646464"/>
            <stop offset=".883" stop-color="#333"/>
            <stop offset="1" stop-color="#212121"/>
        </linearGradient>
        <path d="M49.938-36.28s63.666-13.335 98.333 10.332c7 5.333 11.333 21 11.333 21s5.667 26.667 6.334 32c.667 5.333-2 3-2 3l-10.333-4.333s-7-9.667-7-10.667-1.334-40.333-28.667-44-65.333-6-65.333-6" fill="url(#SVGID_9_)"/>
        <linearGradient id="SVGID_10_" gradientUnits="userSpaceOnUse" x1="-93.661" y1="-7.506" x2="-87.328" y2="71.495">
            <stop offset="0" stop-color="#fff"/>
            <stop offset=".315" stop-color="#b0b0b0"/>
            <stop offset=".646" stop-color="#646464"/>
            <stop offset=".883" stop-color="#333"/>
            <stop offset="1" stop-color="#212121"/>
        </linearGradient>
        <path d="M-27.728 28.052s-52.999 26.666-112.666 13.333c-1.334-.666-9.667-34.332 4.333-62-13.333 10.333-25.667 56.334-16.667 66s93.333 8.668 128-10.666" fill="url(#SVGID_10_)"/>
        <linearGradient id="SVGID_11_" gradientUnits="userSpaceOnUse" x1="82.869" y1="-11.335" x2="90.25" y2="80.735">
            <stop offset="0" stop-color="#fff"/>
            <stop offset=".315" stop-color="#b0b0b0"/>
            <stop offset=".646" stop-color="#646464"/>
            <stop offset=".883" stop-color="#333"/>
            <stop offset="1" stop-color="#212121"/>
        </linearGradient>
        <path d="M54.272-28.282S27.606 14.386 30.939 26.72s90.333 22 121.333 15l-3 7S105.94 62.052 48.606 46.385c-22-5.666-32.001-13.999-26.334-28.332 5.667-14.335 13.667-34.335 32-46.335z" fill="url(#SVGID_11_)"/>
        <linearGradient id="SVGID_12_" gradientUnits="userSpaceOnUse" x1="-25.289" y1="117.973" x2="-.622" y2="38.636">
            <stop offset="0" stop-color="#fff"/>
            <stop offset=".363" stop-color="#f2f2f2"/>
            <stop offset="1" stop-color="#e0e0e0"/>
        </linearGradient>
        <path d="M-140.395 96.72s-25.334-1.334-22-34c7.334 5.333 298 34 298 34" fill="url(#SVGID_12_)"/>
        <linearGradient id="SVGID_13_" gradientUnits="userSpaceOnUse" x1="-167.385" y1="-34.421" x2="-137.453" y2="-130.693">
            <stop offset="0" stop-color="#fff"/>
            <stop offset=".363" stop-color="#f2f2f2"/>
            <stop offset="1" stop-color="#e0e0e0"/>
        </linearGradient>
        <path d="M-136.397-111.28c-32 0-26.667 46.668-26.667 46.668l.667 50 26-96.668z" fill="url(#SVGID_13_)"/>
        <linearGradient id="SVGID_14_" gradientUnits="userSpaceOnUse" x1="-10.268" y1="165.213" x2="-2.416" y2="139.958">
            <stop offset="0" stop-color="#fff"/>
            <stop offset=".315" stop-color="#b0b0b0"/>
            <stop offset=".646" stop-color="#646464"/>
            <stop offset=".883" stop-color="#333"/>
            <stop offset="1" stop-color="#212121"/>
        </linearGradient>
        <path fill="url(#SVGID_14_)" d="M-1.064 145.386h-13.334v23.333h13.334z"/>
        <linearGradient id="SVGID_15_" gradientUnits="userSpaceOnUse" x1="-67.48" y1="-67.678" x2="-47.481" y2="-111.011">
            <stop offset="0" stop-color="#a33100"/>
            <stop offset=".106" stop-color="#8f2b00"/>
            <stop offset=".539" stop-color="#421400"/>
            <stop offset=".847" stop-color="#120600"/>
            <stop offset="1"/>
        </linearGradient>
        <path d="M-22.728-91.28s-15.999 7.665-33.333 4.332c3.666 3 15.333 3.333 21.333 1-2.667 4.667-23.333 5.333-30-2 0 0 3 5.667 9 6.667-4.333 1.667-18.999-6.332-21.333-16s-8-15.333-14-16.666c4.333 2.666 5.333 10.666 5.333 14.666s2.333 13.667 9.333 18.334c-6.333-1.668-11.333-9.002-11.333-14.668-2 3.667.333 26.334 41.333 22.667l-6-1.667 13.667.667s-4 5.334-11 6.667c7 2 25.333 1 33-13-3 1-9 4.334-9 4.334s8.667-4 10-12c-4 2.666-7.667 8.666-22.667 10.666 6.334-2.666 15.667-7.332 15.667-14z" fill="url(#SVGID_15_)"/>
        <linearGradient id="SVGID_16_" gradientUnits="userSpaceOnUse" x1="-106.852" y1="-95.797" x2="-92.667" y2="-126.529">
            <stop offset="0" stop-color="#a33100"/>
            <stop offset=".106" stop-color="#8f2b00"/>
            <stop offset=".539" stop-color="#421400"/>
            <stop offset=".847" stop-color="#120600"/>
            <stop offset="1"/>
        </linearGradient>
        <path d="M-107.061-101.615s-9.999-9.667-6.333-14c3.666-4.333 6-6.667 5.333-9.667 1.667 4.334 1.667 8.001-2.333 11.334-1.334 2.333-.334 5 3.333 6.333-2-2 0-6.333 0-6.333s.667 2.666 1.667 3.666c.666-1.333.332-2.334 3.666-6s3.334-7 3.334-7 5.334 7 3 12 .332 13 3.666 17c-9.666-6.666-6.666-15-6.666-15s-3.666 6 0 11c-4.667-2-6.667-7-6.667-7s-2.333 3.334 3 7.667c-1.333 1.334-5-4-5-4z" fill="url(#SVGID_16_)"/>
        <linearGradient id="SVGID_17_" gradientUnits="userSpaceOnUse" x1="18.591" y1="-72.257" x2="41.592" y2="-86.258">
            <stop offset="0" stop-color="#a33100"/>
            <stop offset=".106" stop-color="#8f2b00"/>
            <stop offset=".539" stop-color="#421400"/>
            <stop offset=".847" stop-color="#120600"/>
            <stop offset="1"/>
        </linearGradient>
        <path d="M33.272-61.28S11.606-64.95 6.606-77.615c2.333 1 8.666 5.334 8.666 5.334s-9.334-5-8-15c5 6 9 13.333 20 14.667-7.333-2.667-14-11.667-14-11.667s14 13 30 3.667c0 0-3.332 4.333-14.666 5.333 11.666 1.334 19.667.668 25-10 0 0-1.667 8.333-8.667 11.667 1.333 1.666 10.333-1.667 10.333-1.667s-13.666 8.668-22.666 6c3 2.334 8.333 5.334 8.333 5.334s-7.999-.334-16.333-4.334c.333.334 2.332 5 8.666 7z" fill="url(#SVGID_17_)"/>
        <linearGradient id="SVGID_18_" gradientUnits="userSpaceOnUse" x1="51.231" y1="-81.582" x2="84.659" y2="-101.93">
            <stop offset="0" stop-color="#a33100"/>
            <stop offset=".106" stop-color="#8f2b00"/>
            <stop offset=".539" stop-color="#421400"/>
            <stop offset=".847" stop-color="#120600"/>
            <stop offset="1"/>
        </linearGradient>
        <path d="M47.606-89.281s17.999-6.334 22.666-15 3.333-11.333 19-17.333c-9.333 5.333-11.666 10.333-11.666 10.333s6.332-3 9.666-4.333c-6 5.667-9.667 12-12 16.667 11-10.334 12.334-12 12.334-12l-6 11.333 6.666-5s-8 11-11 18.667c5.667-7.334 9.334-9.334 10.667-9.334-3 2.667-6.333 10.666-7.333 13S64.272-69.613 48.939-69.947c12.667-3.334 19-6.334 19-6.334s-12 3.334-20 3.334c7.667-.334 18.333-4.334 23.333-12.334-6.666 5-19.333 8.333-25.333 8 11-1.666 18.334-7.666 20.667-12.666 0 0-16.667 9-29.667 6.333 5.333.333 13.333-3 13.333-3l-9.666-1.667 7-1z" fill="url(#SVGID_18_)"/>
        <linearGradient id="SVGID_19_" gradientUnits="userSpaceOnUse" x1="-186.248" y1="-114.955" x2="-124.249" y2="-158.954">
            <stop offset="0" stop-color="#a33100"/>
            <stop offset=".106" stop-color="#8f2b00"/>
            <stop offset=".539" stop-color="#421400"/>
            <stop offset=".847" stop-color="#120600"/>
            <stop offset="1"/>
        </linearGradient>
        <path d="M-173.728-98.615s-6.667-7.334-.667-18.667 12-20.666 6.667-28.666c0 0 6.666 8.667 5.333 16-1.333 7.333 5.334-15.334-2.666-27.334 5.333 3.334 14.666 14.668 10.666 25.334s-10.666 16.666-12.666 30.666c-2-12.666 0-16 0-16s-7.334 7.334-6.667 18.667z" fill="url(#SVGID_19_)"/>
        <linearGradient id="SVGID_20_" gradientUnits="userSpaceOnUse" x1="-155.572" y1="-183.264" x2="-64.574" y2="-212.764">
            <stop offset="0" stop-color="#a33100"/>
            <stop offset=".106" stop-color="#8f2b00"/>
            <stop offset=".539" stop-color="#421400"/>
            <stop offset=".847" stop-color="#120600"/>
            <stop offset="1"/>
        </linearGradient>
        <path d="M-149.062-168.447s13 3.5 16.5-17 13.5-28.5 35-33 24-14.5 26-23.5c2 14.5-7.5 23-26.5 28s-25 17-25.5 25.5c2-12 14-16.5 20.5-18.5-7.5 8.5-14 12-14 21.5 6.5-11 9.5-12.5 9.5-12.5s-11.5 16-7.5 33c-4.5-10.5-4.5-13-4.5-13l-5 11.5s-.5-14.5 3.5-19.5c-6.5 10.5-7.5 15-7.5 15s0-14.5 2-20.5c-3.5 9.5-4.5 11-5.5 17.5s-16.5 8-17 5.5z" fill="url(#SVGID_20_)"/>
        <linearGradient id="SVGID_21_" gradientUnits="userSpaceOnUse" x1="-141.818" y1="-135.005" x2="-65.54" y2="-159.732">
            <stop offset="0" stop-color="#a33100"/>
            <stop offset=".106" stop-color="#8f2b00"/>
            <stop offset=".539" stop-color="#421400"/>
            <stop offset=".847" stop-color="#120600"/>
            <stop offset="1"/>
        </linearGradient>
        <path d="M-104.062-134.447s24 6 34-21.5c-6 6.5-13.5 13.5-13.5 13.5s12-6 15-33c-1 11.5-5.5 24-22 29s-35 2-49 14c7-1.5 14-6.5 31.5-7-4 3-11.5 3.5-11.5 3.5l15.5 1.5z" fill="url(#SVGID_21_)"/>
        <linearGradient id="SVGID_22_" gradientUnits="userSpaceOnUse" x1="-75.392" y1="-240.54" x2="-55.663" y2="-246.936">
            <stop offset="0" stop-color="#a33100"/>
            <stop offset=".106" stop-color="#8f2b00"/>
            <stop offset=".539" stop-color="#421400"/>
            <stop offset=".847" stop-color="#120600"/>
            <stop offset="1"/>
        </linearGradient>
        <path d="M-72.562-232.947s2.5-15 15-21.5c-10 2-15 4.5-15 21.5z" fill="url(#SVGID_22_)"/>
        <linearGradient id="SVGID_23_" gradientUnits="userSpaceOnUse" x1="-58.22" y1="-241.137" x2="-7.509" y2="-257.576">
            <stop offset="0" stop-color="#a33100"/>
            <stop offset=".106" stop-color="#8f2b00"/>
            <stop offset=".539" stop-color="#421400"/>
            <stop offset=".847" stop-color="#120600"/>
            <stop offset="1"/>
        </linearGradient>
        <path d="M-56.562-238.947s5.5-9.5 24-12 25.5-9.5 25.5-9.5-8 9-21 11-19.5 3-28.5 10.5z" fill="url(#SVGID_23_)"/>
        <linearGradient id="SVGID_24_" gradientUnits="userSpaceOnUse" x1="-35.495" y1="-138.975" x2="5.003" y2="-177.974">
            <stop offset="0" stop-color="#a33100"/>
            <stop offset=".106" stop-color="#8f2b00"/>
            <stop offset=".539" stop-color="#421400"/>
            <stop offset=".847" stop-color="#120600"/>
            <stop offset="1"/>
        </linearGradient>
        <path d="M-9.062-133.947s-.5-23-41.5-21c18-6.5 43 4 41.5 21z" fill="url(#SVGID_24_)"/>
        <linearGradient id="SVGID_25_" gradientUnits="userSpaceOnUse" x1="-57.747" y1="-142.548" x2="17.919" y2="-215.411">
            <stop offset="0" stop-color="#a33100"/>
            <stop offset=".106" stop-color="#8f2b00"/>
            <stop offset=".539" stop-color="#421400"/>
            <stop offset=".847" stop-color="#120600"/>
            <stop offset="1"/>
        </linearGradient>
        <path d="M-70.062-155.947s26-12.5 53.5-1c-4.5-3.5-27-14.5-53.5 1z" fill="url(#SVGID_25_)"/>
        <linearGradient id="SVGID_26_" gradientUnits="userSpaceOnUse" x1="-110.1" y1="-171.1" x2="-45.523" y2="-233.285">
            <stop offset="0" stop-color="#a33100"/>
            <stop offset=".106" stop-color="#8f2b00"/>
            <stop offset=".539" stop-color="#421400"/>
            <stop offset=".847" stop-color="#120600"/>
            <stop offset="1"/>
        </linearGradient>
        <path d="M-106.562-167.947s7-22 20-27.5c-13 2.5-19.5 15.5-20 27.5z" fill="url(#SVGID_26_)"/>
        <linearGradient id="SVGID_27_" gradientUnits="userSpaceOnUse" x1="-55.59" y1="-210.084" x2="14.364" y2="-277.448">
            <stop offset="0" stop-color="#a33100"/>
            <stop offset=".106" stop-color="#8f2b00"/>
            <stop offset=".539" stop-color="#421400"/>
            <stop offset=".847" stop-color="#120600"/>
            <stop offset="1"/>
        </linearGradient>
        <path d="M-51.062-205.947s3.5-26 20.5-31c-10.5 0-23 15-20.5 31z" fill="url(#SVGID_27_)"/>
        <linearGradient id="SVGID_28_" gradientUnits="userSpaceOnUse" x1="-73.09" y1="-205.584" x2="-3.136" y2="-272.948">
            <stop offset="0" stop-color="#a33100"/>
            <stop offset=".106" stop-color="#8f2b00"/>
            <stop offset=".539" stop-color="#421400"/>
            <stop offset=".847" stop-color="#120600"/>
            <stop offset="1"/>
        </linearGradient>
        <path d="M-68.562-201.447s3.5-26 20.5-31c-10.5 0-23 15-20.5 31z" fill="url(#SVGID_28_)"/>
        <linearGradient id="SVGID_29_" gradientUnits="userSpaceOnUse" x1="-40.176" y1="-212.905" x2="6.261" y2="-257.622">
            <stop offset="0" stop-color="#a33100"/>
            <stop offset=".106" stop-color="#8f2b00"/>
            <stop offset=".539" stop-color="#421400"/>
            <stop offset=".847" stop-color="#120600"/>
            <stop offset="1"/>
        </linearGradient>
        <path d="M-37.17-210.158s2.323-17.26 13.608-20.579c-6.97 0-15.269 9.957-13.608 20.579z" fill="url(#SVGID_29_)"/>
        <linearGradient id="SVGID_30_" gradientUnits="userSpaceOnUse" x1="16.311" y1="-127.874" x2="115.672" y2="-223.554">
            <stop offset="0" stop-color="#a33100"/>
            <stop offset=".106" stop-color="#8f2b00"/>
            <stop offset=".539" stop-color="#421400"/>
            <stop offset=".847" stop-color="#120600"/>
            <stop offset="1"/>
        </linearGradient>
        <path d="M5.938-139.447s21.5-25 59-13c-23.5-5.5-38.5-11.5-59 13z" fill="url(#SVGID_30_)"/>
        <linearGradient id="SVGID_31_" gradientUnits="userSpaceOnUse" x1="-5.912" y1="-163.509" x2="21.88" y2="-190.271">
            <stop offset="0" stop-color="#a33100"/>
            <stop offset=".106" stop-color="#8f2b00"/>
            <stop offset=".539" stop-color="#421400"/>
            <stop offset=".847" stop-color="#120600"/>
            <stop offset="1"/>
        </linearGradient>
        <path d="M5.438-151.947s4.5-21-14-31.5c0 0 21 6 14 31.5z" fill="url(#SVGID_31_)"/>
        <linearGradient id="SVGID_32_" gradientUnits="userSpaceOnUse" x1="5.114" y1="-176.876" x2="15.114" y2="-186.506">
            <stop offset="0" stop-color="#a33100"/>
            <stop offset=".106" stop-color="#8f2b00"/>
            <stop offset=".539" stop-color="#421400"/>
            <stop offset=".847" stop-color="#120600"/>
            <stop offset="1"/>
        </linearGradient>
        <path d="M13.438-168.447s-2.5-12.5-16.5-17c7-2.5 16 6.5 16.5 17z" fill="url(#SVGID_32_)"/>
        <linearGradient id="SVGID_33_" gradientUnits="userSpaceOnUse" x1="34.925" y1="-218.195" x2="53.576" y2="-236.155">
            <stop offset="0" stop-color="#a33100"/>
            <stop offset=".106" stop-color="#8f2b00"/>
            <stop offset=".539" stop-color="#421400"/>
            <stop offset=".847" stop-color="#120600"/>
            <stop offset="1"/>
        </linearGradient>
        <path d="M51.438-201.947s4.5-25.5-32.5-33c0 0 28 6 32.5 33z" fill="url(#SVGID_33_)"/>
        <linearGradient id="SVGID_34_" gradientUnits="userSpaceOnUse" x1="105.925" y1="-197.195" x2="124.576" y2="-215.155">
            <stop offset="0" stop-color="#a33100"/>
            <stop offset=".106" stop-color="#8f2b00"/>
            <stop offset=".539" stop-color="#421400"/>
            <stop offset=".847" stop-color="#120600"/>
            <stop offset="1"/>
        </linearGradient>
        <path d="M122.438-180.947s4.5-25.5-32.5-33c0 0 28 6 32.5 33z" fill="url(#SVGID_34_)"/>
        <linearGradient id="SVGID_35_" gradientUnits="userSpaceOnUse" x1="21269.807" y1="-7678.071" x2="21288.457" y2="-7696.031" gradientTransform="rotate(134.999 9122.863 -8294.558)">
            <stop offset="0" stop-color="#a33100"/>
            <stop offset=".106" stop-color="#8f2b00"/>
            <stop offset=".539" stop-color="#421400"/>
            <stop offset=".847" stop-color="#120600"/>
            <stop offset="1"/>
        </linearGradient>
        <path d="M74.677-141.185s14.849 21.213 46.316.354c0 0-24.042 15.555-46.316-.354z" fill="url(#SVGID_35_)"/>
        <linearGradient id="SVGID_36_" gradientUnits="userSpaceOnUse" x1="147.925" y1="-163.695" x2="166.576" y2="-181.655">
            <stop offset="0" stop-color="#a33100"/>
            <stop offset=".106" stop-color="#8f2b00"/>
            <stop offset=".539" stop-color="#421400"/>
            <stop offset=".847" stop-color="#120600"/>
            <stop offset="1"/>
        </linearGradient>
        <path d="M164.438-147.447s4.5-25.5-32.5-33c0 0 28 6 32.5 33z" fill="url(#SVGID_36_)"/>
        <linearGradient id="SVGID_37_" gradientUnits="userSpaceOnUse" x1="43.425" y1="-219.695" x2="62.076" y2="-237.655">
            <stop offset="0" stop-color="#a33100"/>
            <stop offset=".106" stop-color="#8f2b00"/>
            <stop offset=".539" stop-color="#421400"/>
            <stop offset=".847" stop-color="#120600"/>
            <stop offset="1"/>
        </linearGradient>
        <path d="M59.938-203.447s4.5-25.5-32.5-33c0 0 28 6 32.5 33z" fill="url(#SVGID_37_)"/>
    </symbol>
    <ellipse cx="350" cy="508.162" rx="288.595" ry="145.5" fill="#7680b2" id="Buffer"/>
    <g id="Text">
        <g id="BrandonBotText">
            <path class="st51" d="M50.352 373.953c5.21.1 10.314-1.183 15.314-3.85 1.607-.846 3.238-1.91 4.899-3.193a61.419 61.419 0 0 0 5.054-4.401c2.7-2.578 4.36-3.86 4.978-3.849 3.047 2.35 5.62 4.103 7.717 5.256 2.1 1.152 3.678 1.74 4.737 1.759 7.506.144 11.375-5.68 11.602-17.472l.273-14.15.258-13.443.057-2.932c.014-.742-.02-1.282-.101-1.62-.504-1.36-1.597-2.053-3.273-2.085-1.94-.24-5.093-.488-9.462-.739-4.368-.253-10.042-.48-17.016-.681-6.976-.202-13.334-.359-19.074-.469-5.653-.108-10.731-.207-15.235-.294-.53-.01-1.214-.058-2.052-.141-.839-.082-1.72-.15-2.647-.202a65.13 65.13 0 0 1-2.646-.202 27.367 27.367 0 0 0-2.051-.141c-1.768-.035-2.672 1.127-2.718 3.487l-.1 5.154-.641 33.357c-.434 4.102 1.907 8.665 7.024 13.684 4.593 4.672 9.625 7.06 15.103 7.167zm32.52-43.965l12.72.143.1 8.496c-.05 2.629-.762 5.243-2.137 7.847l-4.912.41c-1.562-1.447-3.46-3.91-5.688-7.39a555.525 555.525 0 0 1-3.086-4.964 547.362 547.362 0 0 0-2.699-4.348c1.15-.181 3.053-.245 5.702-.194zm-40.359 3.722c.12-1.784.338-3.753.644-5.904l2.396-.56c.882.018 2.715.086 5.496.207 2.78.12 6.598.295 11.453.524 4.243 9.046 6.44 14.145 6.597 15.294-1.007 1.733-3.788 4.038-8.35 6.918-4.206 2.681-7.322 4.004-9.353 3.964-2.474-.046-4.647-1.909-6.519-5.585-1.793-3.204-2.657-6.489-2.593-9.858.03-1.55.106-3.218.23-5zM88.235 440.367c3.671 4.693 7.093 7.791 10.268 9.295 3.667 1.825 7.993 1.838 12.977.034 5.98-2.164 8.609-7.487 7.889-15.97-.305-2.4-.886-5.236-1.741-8.51-.857-3.274-2.053-7.035-3.589-11.28l-7.396-20.439c-.923-2.03-2.03-2.886-3.322-2.56-21.735 7.434-37.585 12.955-47.551 16.561l-15.644 5.445c-3.488 1.262-5.253 2.617-5.293 4.066l2.684 7.415c.802 2.218 1.771 3.338 2.905 3.356.423.133 1.923-.265 4.499-1.198 1.328-.48 2.947-1.065 4.859-1.758 1.994-.722 4.372-1.546 7.136-2.474s5.1-1.739 7.012-2.43l4.859-1.759c.491.323 1.139.878 1.94 1.664.8.785 1.873 1.865 3.217 3.244 2.451 2.623 3.794 4.253 4.023 4.888.642 1.772-3.793 6.783-13.302 15.026-4.68 4.202-8.313 7.47-10.897 9.803-2.585 2.333-4.13 3.84-4.633 4.526l4.618 11.983c.39 1.076.781 1.902 1.178 2.476.395.573.798 1.037 1.208 1.391 2.96-2.72 5.843-5.465 8.645-8.235a552.197 552.197 0 0 1 8.61-8.33c9.13-9.04 14.078-14.448 14.841-16.23zm10.708-31.934l5.814 16.065c1.445 3.993 1.128 6.365-.948 7.116-2.243.812-5.753-1.358-10.529-6.51-2.767-3.229-6.034-6.418-9.803-9.57l-.481-1.33 15.947-5.771zM155.733 516.837l8.759-7.081c2.35-1.865 3.6-3.418 3.749-4.652l-14.643-18.453a31.009 31.009 0 0 1-2.31-1.843 31.037 31.037 0 0 0-2.31-1.845c-1.827-1.307-3.984-2.175-6.47-2.61-6.782-.728-14.45.196-23.006 2.77-5.383 1.605-13.31 4.757-23.789 9.458a3034.192 3034.192 0 0 1-14.698 6.31c-4.09 1.74-7.431 3.036-10.023 3.89.015.588.143 1.175.383 1.76.237.587.589 1.276 1.05 2.071.462.794 1.084 1.72 1.867 2.778.781 1.057 1.76 2.323 2.933 3.802 1.257 1.584 2.656 2.494 4.2 2.734.22-.005.727-.149 1.518-.432.79-.284 1.989-.76 3.598-1.435 3.477-1.727 6.138-2.635 7.986-2.724l1.635 2.059c.88 1.109 2.149 2.637 3.811 4.588l9.66 12.598a202.82 202.82 0 0 0-5.658 4.169 209.427 209.427 0 0 1-4.246 3.176c-1.121.717-.928 2.026.58 3.928l7.354 9.263c1.047 1.32 3.451.23 7.214-3.271l6.353-4.785 19.451-14.921 15.052-11.302zm-30.507 2.271l-8.547-10.77-.881-1.108c-.587-.74-1.432-1.876-2.535-3.408-1.218-1.96-1.814-2.993-1.785-3.101 1.109-.02 2.56-.29 4.35-.807 1.789-.516 3.915-1.28 6.384-2.293 4.962-2.13 8.903-3.063 11.82-2.798 4.39.56 8.645 3.507 12.768 8.84l-18.267 14.498c-.928.821-2.03 1.138-3.307.947zM207.357 534.477c-7.138-4.724-16.472-6.558-28-5.503-9.554.88-14.852 1.557-15.894 2.033-.784.328-1.59 1.12-2.418 2.372l-19.24 27.782-6.508 9.834c-2.682 4.053-3.404 6.486-2.168 7.305.28.185 1.379.968 3.3 2.343 1.916 1.376 4.658 3.401 8.221 6.078 1.548-1.73 3.855-4.757 6.921-9.084 3.066-4.327 6.89-9.952 11.474-16.876l4.579-6.185 4.545-6.685a39.931 39.931 0 0 1 5.938-1.55 72.496 72.496 0 0 1 6.707-.884c5.456-.308 9.563.45 12.317 2.273.392.26.76.558 1.107.89.343.336.612.724.803 1.169 3.889 5.115 3.028 11.91-2.578 20.38-7.022 10.605-18.578 19.64-34.671 27.103l1.686 1.115c.231.261.715.66 1.45 1.199.733.54 1.747 1.237 3.04 2.092a70.634 70.634 0 0 1 3.277 2.01l2.107 1.395c.787.52 1.317.82 1.591.893 1.723.083 3.587-.537 5.594-1.857 2.264-1.467 4.207-2.723 5.829-3.77a119.51 119.51 0 0 1 4.215-2.612c8.042-5.8 14.281-12.05 18.718-18.755 5.216-7.88 8.052-15.644 8.505-23.288.397-9.271-3.085-16.343-10.447-21.216zM290.781 580.638c-3.31-4.043-7.29-7.515-11.938-10.421-5.225-3.403-11.413-5.944-18.565-7.622-2.232-.524-4.105-.507-5.618.044l-10.871 45.899c-3.41 14.535-5.643 23.175-6.703 25.92 1.408.785 4.903 1.9 10.482 3.344 5.581 1.444 13.292 3.321 23.135 5.63 4.134.97 7.758 1.526 10.876 1.668 3.115.141 5.766-.166 7.953-.926 5.413-1.541 8.919-5.71 10.513-12.503l1.756-7.482c2.259-9.631 1.312-19.471-2.837-29.52-2.148-5.31-4.874-9.987-8.183-14.031zm-6.41 31.976c-.91 3.87-3.457 6.767-7.646 8.686-1.319.6-3.444.806-6.374.614-2.934-.187-6.653-.855-11.16-2.005l-3.249-.762c.081-.343.554-2.069 1.423-5.177.867-3.109 2.106-7.649 3.715-13.624a341.47 341.47 0 0 1 2.345-10.882l1.936-8.256c6.598 4.633 11.57 9.701 14.917 15.204 3.817 6.157 5.181 11.558 4.092 16.202zM413.889 598.296c-2.225-5.35-4.906-9.318-8.042-11.9a54.605 54.605 0 0 0-5.618-4.306 53.8 53.8 0 0 0-6.248-3.57c-5.406-2.863-9.784-4.107-13.132-3.735-1.159-.047-2.58-.021-4.264.076-1.685.1-3.617.405-5.798.915-1.482.698-2.625 1.092-3.429 1.183-9.525 3.375-16.713 8.843-21.565 16.405-4.89 7.834-6.767 16.844-5.631 27.027 1.205 10.797 6.037 19.457 14.496 25.98 8.402 6.616 18.095 9.313 29.081 8.087 10.582-1.182 19.179-6.185 25.79-15.012 6.63-8.65 9.416-17.716 8.358-27.197-.529-4.741-1.862-9.39-3.998-13.953zm-17.472 28.481c-3.856 4.964-8.16 7.711-12.915 8.241l-3.918.438c-5.225.583-10.413-.926-15.562-4.53-5.025-3.705-7.811-8.014-8.36-12.932-.715-6.408.835-11.96 4.652-16.652 3.673-4.763 8.958-7.531 15.859-8.302 3.415-.38 6.59-.202 9.52.538 2.93.74 5.522 1.94 7.777 3.598 2.252 1.66 4.097 3.764 5.536 6.315 1.437 2.551 2.338 5.451 2.7 8.698.51 4.565-1.254 9.43-5.289 14.588zM515.168 604.925c-.154-2.694-.283-5.002-.388-6.93a118.96 118.96 0 0 1-.184-4.957c-1.059-9.857-3.4-18.373-7.028-25.547-4.264-8.434-9.606-14.741-16.024-18.92-7.858-4.935-15.727-5.41-23.606-1.426-7.638 3.863-13.853 11.065-18.644 21.603-3.965 8.737-5.999 13.676-6.103 14.815-.101.845.186 1.937.864 3.277l14.615 30.47 5.321 10.524c2.194 4.336 3.95 6.169 5.274 5.499.3-.15 1.523-.72 3.669-1.706 2.144-.985 5.261-2.365 9.35-4.136-.736-2.201-2.224-5.704-4.465-10.51-2.242-4.806-5.235-10.913-8.982-18.323l-3.107-7.041-3.557-7.259a40.017 40.017 0 0 1 1.59-5.926 72.388 72.388 0 0 1 2.554-6.265c2.435-4.892 5.124-8.086 8.073-9.576.42-.213.862-.385 1.322-.522.461-.132.933-.173 1.412-.119 6.37-.846 11.848 3.266 16.432 12.33 5.74 11.352 7.867 25.865 6.384 43.543l1.803-.914c.341-.072.928-.294 1.76-.666a79.12 79.12 0 0 0 3.322-1.606 71.291 71.291 0 0 1 3.368-1.852l2.256-1.14c.841-.426 1.364-.739 1.564-.94.924-1.455 1.31-3.383 1.155-5.78z"/>
            <g>
                <path class="st51" d="M597.064 508.571c-3.874-3.483-8.574-5.852-14.1-7.107-1.769-.411-3.698-.675-5.793-.791a61.818 61.818 0 0 0-6.703.023c-3.728.182-5.821.067-6.281-.347-.767-3.77-1.567-6.78-2.399-9.023-.833-2.245-1.643-3.723-2.431-4.431-5.582-5.02-12.319-3.145-20.205 5.625l-9.464 10.522-8.992 9.997-1.96 2.18c-.497.553-.824.983-.983 1.292-.509 1.357-.137 2.597 1.11 3.719 1.31 1.45 3.533 3.7 6.672 6.748 3.138 3.048 7.28 6.933 12.423 11.649 5.144 4.717 9.851 8.994 14.119 12.833l11.33 10.19c.394.354.88.838 1.46 1.449.579.612 1.2 1.24 1.868 1.885a62.27 62.27 0 0 1 1.869 1.884 27.293 27.293 0 0 0 1.459 1.449c1.315 1.182 2.759.895 4.337-.86l3.448-3.833 22.309-24.806c3.012-2.819 4.227-7.8 3.641-14.945-.416-6.538-2.66-11.638-6.734-15.302zm-47.2 4.73a562.283 562.283 0 0 1-.915 5.772c-.29 1.78-.56 3.465-.804 5.057-.988-.618-2.47-1.813-4.439-3.586l-9.525-8.43 5.481-6.492c1.758-1.953 4.008-3.465 6.751-4.534l3.983 2.903c.237 2.115.06 5.22-.533 9.31zm34.734 18.05c-.74 3.596-2.237 6.647-4.49 9.152a99.783 99.783 0 0 1-3.445 3.632 80.958 80.958 0 0 1-4.348 4.043l-2.18-1.144c-.654-.59-1.997-1.84-4.02-3.752-2.025-1.91-4.798-4.539-8.32-7.89 2.71-9.616 4.384-14.91 5.019-15.883 1.894-.652 5.506-.574 10.84.232 4.936.723 8.158 1.763 9.668 3.121 1.84 1.655 2.265 4.485 1.276 8.489zM634.023 403.688c-4.468-1.67-9.22-2.582-14.254-2.738-5.78-.432-10.53.167-14.251 1.797a54.929 54.929 0 0 0-6.38 3.066 54.088 54.088 0 0 0-6.007 3.96c-4.997 3.53-8.086 6.873-9.265 10.029-.566 1.011-1.186 2.292-1.86 3.839-.671 1.547-1.273 3.409-1.804 5.585-.047 1.637-.21 2.835-.494 3.591-1.293 10.024.338 18.908 4.89 26.653 4.78 7.903 11.97 13.647 21.566 17.234 10.178 3.805 20.087 3.407 29.728-1.193 9.7-4.504 16.483-11.933 20.353-22.288 3.729-9.973 3.15-19.904-1.737-29.79-4.72-9.823-11.549-16.405-20.486-19.745zm4.775 40.963l-1.382 3.694c-1.84 4.924-5.53 8.87-11.07 11.835-5.577 2.81-10.68 3.346-15.316 1.615-6.039-2.257-10.29-6.15-12.752-11.674-2.59-5.428-2.671-11.396-.24-17.9 1.202-3.218 2.795-5.968 4.78-8.25 1.985-2.278 4.226-4.05 6.724-5.312 2.5-1.258 5.21-1.954 8.135-2.085 2.927-.129 5.92.377 8.98 1.522 4.303 1.608 7.845 5.38 10.624 11.31 2.686 5.682 3.192 10.764 1.517 15.245zM672.313 343.813c.056-1.348.074-2.393.056-3.135-.02-.74-.032-1.279-.04-1.617l-57.621 1.407c-3.266.08-4.923-.79-4.968-2.61l-.313-12.835c-.043-1.75-2.05-4.33-6.02-7.74-4.06-3.34-6.792-4.957-8.205-4.856-.695.42-1.01 2.048-.941 4.877.024 1.01-.003 5.259-.085 12.743l1.127 40.727.04 1.618.038 1.617.02.809c7.72 4.868 12.196 7.286 13.432 7.255.353-.007.879-.19 1.577-.543l-.526-21.527c1.04-.835 2.667-1.21 4.877-1.13l10.334-.152c12.899-.113 22.771-.185 29.617-.217 6.847-.032 10.757-.061 11.727-.085 1.857.023 3.66-.292 5.411-.94 1.034-1.104 1.188-5.659.462-13.666z"/>
            </g>
            <g>
                <path class="st52" d="M50.352 373.953c5.21.1 10.314-1.183 15.314-3.85 1.607-.846 3.238-1.91 4.899-3.193a61.419 61.419 0 0 0 5.054-4.401c2.7-2.578 4.36-3.86 4.978-3.849 3.047 2.35 5.62 4.103 7.717 5.256 2.1 1.152 3.678 1.74 4.737 1.759 7.506.144 11.375-5.68 11.602-17.472l.273-14.15.258-13.443.057-2.932c.014-.742-.02-1.282-.101-1.62-.504-1.36-1.597-2.053-3.273-2.085-1.94-.24-5.093-.488-9.462-.739-4.368-.253-10.042-.48-17.016-.681-6.976-.202-13.334-.359-19.074-.469-5.653-.108-10.731-.207-15.235-.294-.53-.01-1.214-.058-2.052-.141-.839-.082-1.72-.15-2.647-.202a65.13 65.13 0 0 1-2.646-.202 27.367 27.367 0 0 0-2.051-.141c-1.768-.035-2.672 1.127-2.718 3.487l-.1 5.154-.641 33.357c-.434 4.102 1.907 8.665 7.024 13.684 4.593 4.672 9.625 7.06 15.103 7.167zm32.52-43.965l12.72.143.1 8.496c-.05 2.629-.762 5.243-2.137 7.847l-4.912.41c-1.562-1.447-3.46-3.91-5.688-7.39a555.525 555.525 0 0 1-3.086-4.964 547.362 547.362 0 0 0-2.699-4.348c1.15-.181 3.053-.245 5.702-.194zm-40.359 3.722c.12-1.784.338-3.753.644-5.904l2.396-.56c.882.018 2.715.086 5.496.207 2.78.12 6.598.295 11.453.524 4.243 9.046 6.44 14.145 6.597 15.294-1.007 1.733-3.788 4.038-8.35 6.918-4.206 2.681-7.322 4.004-9.353 3.964-2.474-.046-4.647-1.909-6.519-5.585-1.793-3.204-2.657-6.489-2.593-9.858.03-1.55.106-3.218.23-5zM88.235 440.367c3.671 4.693 7.093 7.791 10.268 9.295 3.667 1.825 7.993 1.838 12.977.034 5.98-2.164 8.609-7.487 7.889-15.97-.305-2.4-.886-5.236-1.741-8.51-.857-3.274-2.053-7.035-3.589-11.28l-7.396-20.439c-.923-2.03-2.03-2.886-3.322-2.56-21.735 7.434-37.585 12.955-47.551 16.561l-15.644 5.445c-3.488 1.262-5.253 2.617-5.293 4.066l2.684 7.415c.802 2.218 1.771 3.338 2.905 3.356.423.133 1.923-.265 4.499-1.198 1.328-.48 2.947-1.065 4.859-1.758 1.994-.722 4.372-1.546 7.136-2.474s5.1-1.739 7.012-2.43l4.859-1.759c.491.323 1.139.878 1.94 1.664.8.785 1.873 1.865 3.217 3.244 2.451 2.623 3.794 4.253 4.023 4.888.642 1.772-3.793 6.783-13.302 15.026-4.68 4.202-8.313 7.47-10.897 9.803-2.585 2.333-4.13 3.84-4.633 4.526l4.618 11.983c.39 1.076.781 1.902 1.178 2.476.395.573.798 1.037 1.208 1.391 2.96-2.72 5.843-5.465 8.645-8.235a552.197 552.197 0 0 1 8.61-8.33c9.13-9.04 14.078-14.448 14.841-16.23zm10.708-31.934l5.814 16.065c1.445 3.993 1.128 6.365-.948 7.116-2.243.812-5.753-1.358-10.529-6.51-2.767-3.229-6.034-6.418-9.803-9.57l-.481-1.33 15.947-5.771zM155.733 516.837l8.759-7.081c2.35-1.865 3.6-3.418 3.749-4.652l-14.643-18.453a31.009 31.009 0 0 1-2.31-1.843 31.037 31.037 0 0 0-2.31-1.845c-1.827-1.307-3.984-2.175-6.47-2.61-6.782-.728-14.45.196-23.006 2.77-5.383 1.605-13.31 4.757-23.789 9.458a3034.192 3034.192 0 0 1-14.698 6.31c-4.09 1.74-7.431 3.036-10.023 3.89.015.588.143 1.175.383 1.76.237.587.589 1.276 1.05 2.071.462.794 1.084 1.72 1.867 2.778.781 1.057 1.76 2.323 2.933 3.802 1.257 1.584 2.656 2.494 4.2 2.734.22-.005.727-.149 1.518-.432.79-.284 1.989-.76 3.598-1.435 3.477-1.727 6.138-2.635 7.986-2.724l1.635 2.059c.88 1.109 2.149 2.637 3.811 4.588l9.66 12.598a202.82 202.82 0 0 0-5.658 4.169 209.427 209.427 0 0 1-4.246 3.176c-1.121.717-.928 2.026.58 3.928l7.354 9.263c1.047 1.32 3.451.23 7.214-3.271l6.353-4.785 19.451-14.921 15.052-11.302zm-30.507 2.271l-8.547-10.77-.881-1.108c-.587-.74-1.432-1.876-2.535-3.408-1.218-1.96-1.814-2.993-1.785-3.101 1.109-.02 2.56-.29 4.35-.807 1.789-.516 3.915-1.28 6.384-2.293 4.962-2.13 8.903-3.063 11.82-2.798 4.39.56 8.645 3.507 12.768 8.84l-18.267 14.498c-.928.821-2.03 1.138-3.307.947zM207.357 534.477c-7.138-4.724-16.472-6.558-28-5.503-9.554.88-14.852 1.557-15.894 2.033-.784.328-1.59 1.12-2.418 2.372l-19.24 27.782-6.508 9.834c-2.682 4.053-3.404 6.486-2.168 7.305.28.185 1.379.968 3.3 2.343 1.916 1.376 4.658 3.401 8.221 6.078 1.548-1.73 3.855-4.757 6.921-9.084 3.066-4.327 6.89-9.952 11.474-16.876l4.579-6.185 4.545-6.685a39.931 39.931 0 0 1 5.938-1.55 72.496 72.496 0 0 1 6.707-.884c5.456-.308 9.563.45 12.317 2.273.392.26.76.558 1.107.89.343.336.612.724.803 1.169 3.889 5.115 3.028 11.91-2.578 20.38-7.022 10.605-18.578 19.64-34.671 27.103l1.686 1.115c.231.261.715.66 1.45 1.199.733.54 1.747 1.237 3.04 2.092a70.634 70.634 0 0 1 3.277 2.01l2.107 1.395c.787.52 1.317.82 1.591.893 1.723.083 3.587-.537 5.594-1.857 2.264-1.467 4.207-2.723 5.829-3.77a119.51 119.51 0 0 1 4.215-2.612c8.042-5.8 14.281-12.05 18.718-18.755 5.216-7.88 8.052-15.644 8.505-23.288.397-9.271-3.085-16.343-10.447-21.216zM290.781 580.638c-3.31-4.043-7.29-7.515-11.938-10.421-5.225-3.403-11.413-5.944-18.565-7.622-2.232-.524-4.105-.507-5.618.044l-10.871 45.899c-3.41 14.535-5.643 23.175-6.703 25.92 1.408.785 4.903 1.9 10.482 3.344 5.581 1.444 13.292 3.321 23.135 5.63 4.134.97 7.758 1.526 10.876 1.668 3.115.141 5.766-.166 7.953-.926 5.413-1.541 8.919-5.71 10.513-12.503l1.756-7.482c2.259-9.631 1.312-19.471-2.837-29.52-2.148-5.31-4.874-9.987-8.183-14.031zm-6.41 31.976c-.91 3.87-3.457 6.767-7.646 8.686-1.319.6-3.444.806-6.374.614-2.934-.187-6.653-.855-11.16-2.005l-3.249-.762c.081-.343.554-2.069 1.423-5.177.867-3.109 2.106-7.649 3.715-13.624a341.47 341.47 0 0 1 2.345-10.882l1.936-8.256c6.598 4.633 11.57 9.701 14.917 15.204 3.817 6.157 5.181 11.558 4.092 16.202zM413.889 598.296c-2.225-5.35-4.906-9.318-8.042-11.9a54.605 54.605 0 0 0-5.618-4.306 53.8 53.8 0 0 0-6.248-3.57c-5.406-2.863-9.784-4.107-13.132-3.735-1.159-.047-2.58-.021-4.264.076-1.685.1-3.617.405-5.798.915-1.482.698-2.625 1.092-3.429 1.183-9.525 3.375-16.713 8.843-21.565 16.405-4.89 7.834-6.767 16.844-5.631 27.027 1.205 10.797 6.037 19.457 14.496 25.98 8.402 6.616 18.095 9.313 29.081 8.087 10.582-1.182 19.179-6.185 25.79-15.012 6.63-8.65 9.416-17.716 8.358-27.197-.529-4.741-1.862-9.39-3.998-13.953zm-17.472 28.481c-3.856 4.964-8.16 7.711-12.915 8.241l-3.918.438c-5.225.583-10.413-.926-15.562-4.53-5.025-3.705-7.811-8.014-8.36-12.932-.715-6.408.835-11.96 4.652-16.652 3.673-4.763 8.958-7.531 15.859-8.302 3.415-.38 6.59-.202 9.52.538 2.93.74 5.522 1.94 7.777 3.598 2.252 1.66 4.097 3.764 5.536 6.315 1.437 2.551 2.338 5.451 2.7 8.698.51 4.565-1.254 9.43-5.289 14.588zM515.168 604.925c-.154-2.694-.283-5.002-.388-6.93a118.96 118.96 0 0 1-.184-4.957c-1.059-9.857-3.4-18.373-7.028-25.547-4.264-8.434-9.606-14.741-16.024-18.92-7.858-4.935-15.727-5.41-23.606-1.426-7.638 3.863-13.853 11.065-18.644 21.603-3.965 8.737-5.999 13.676-6.103 14.815-.101.845.186 1.937.864 3.277l14.615 30.47 5.321 10.524c2.194 4.336 3.95 6.169 5.274 5.499.3-.15 1.523-.72 3.669-1.706 2.144-.985 5.261-2.365 9.35-4.136-.736-2.201-2.224-5.704-4.465-10.51-2.242-4.806-5.235-10.913-8.982-18.323l-3.107-7.041-3.557-7.259a40.017 40.017 0 0 1 1.59-5.926 72.388 72.388 0 0 1 2.554-6.265c2.435-4.892 5.124-8.086 8.073-9.576.42-.213.862-.385 1.322-.522.461-.132.933-.173 1.412-.119 6.37-.846 11.848 3.266 16.432 12.33 5.74 11.352 7.867 25.865 6.384 43.543l1.803-.914c.341-.072.928-.294 1.76-.666a79.12 79.12 0 0 0 3.322-1.606 71.291 71.291 0 0 1 3.368-1.852l2.256-1.14c.841-.426 1.364-.739 1.564-.94.924-1.455 1.31-3.383 1.155-5.78z"/>
                <g>
                    <path class="st53" d="M597.064 508.571c-3.874-3.483-8.574-5.852-14.1-7.107-1.769-.411-3.698-.675-5.793-.791a61.818 61.818 0 0 0-6.703.023c-3.728.182-5.821.067-6.281-.347-.767-3.77-1.567-6.78-2.399-9.023-.833-2.245-1.643-3.723-2.431-4.431-5.582-5.02-12.319-3.145-20.205 5.625l-9.464 10.522-8.992 9.997-1.96 2.18c-.497.553-.824.983-.983 1.292-.509 1.357-.137 2.597 1.11 3.719 1.31 1.45 3.533 3.7 6.672 6.748 3.138 3.048 7.28 6.933 12.423 11.649 5.144 4.717 9.851 8.994 14.119 12.833l11.33 10.19c.394.354.88.838 1.46 1.449.579.612 1.2 1.24 1.868 1.885a62.27 62.27 0 0 1 1.869 1.884 27.293 27.293 0 0 0 1.459 1.449c1.315 1.182 2.759.895 4.337-.86l3.448-3.833 22.309-24.806c3.012-2.819 4.227-7.8 3.641-14.945-.416-6.538-2.66-11.638-6.734-15.302zm-47.2 4.73a562.283 562.283 0 0 1-.915 5.772c-.29 1.78-.56 3.465-.804 5.057-.988-.618-2.47-1.813-4.439-3.586l-9.525-8.43 5.481-6.492c1.758-1.953 4.008-3.465 6.751-4.534l3.983 2.903c.237 2.115.06 5.22-.533 9.31zm34.734 18.05c-.74 3.596-2.237 6.647-4.49 9.152a99.783 99.783 0 0 1-3.445 3.632 80.958 80.958 0 0 1-4.348 4.043l-2.18-1.144c-.654-.59-1.997-1.84-4.02-3.752-2.025-1.91-4.798-4.539-8.32-7.89 2.71-9.616 4.384-14.91 5.019-15.883 1.894-.652 5.506-.574 10.84.232 4.936.723 8.158 1.763 9.668 3.121 1.84 1.655 2.265 4.485 1.276 8.489zM634.023 403.688c-4.468-1.67-9.22-2.582-14.254-2.738-5.78-.432-10.53.167-14.251 1.797a54.929 54.929 0 0 0-6.38 3.066 54.088 54.088 0 0 0-6.007 3.96c-4.997 3.53-8.086 6.873-9.265 10.029-.566 1.011-1.186 2.292-1.86 3.839-.671 1.547-1.273 3.409-1.804 5.585-.047 1.637-.21 2.835-.494 3.591-1.293 10.024.338 18.908 4.89 26.653 4.78 7.903 11.97 13.647 21.566 17.234 10.178 3.805 20.087 3.407 29.728-1.193 9.7-4.504 16.483-11.933 20.353-22.288 3.729-9.973 3.15-19.904-1.737-29.79-4.72-9.823-11.549-16.405-20.486-19.745zm4.775 40.963l-1.382 3.694c-1.84 4.924-5.53 8.87-11.07 11.835-5.577 2.81-10.68 3.346-15.316 1.615-6.039-2.257-10.29-6.15-12.752-11.674-2.59-5.428-2.671-11.396-.24-17.9 1.202-3.218 2.795-5.968 4.78-8.25 1.985-2.278 4.226-4.05 6.724-5.312 2.5-1.258 5.21-1.954 8.135-2.085 2.927-.129 5.92.377 8.98 1.522 4.303 1.608 7.845 5.38 10.624 11.31 2.686 5.682 3.192 10.764 1.517 15.245zM672.313 343.813c.056-1.348.074-2.393.056-3.135-.02-.74-.032-1.279-.04-1.617l-57.621 1.407c-3.266.08-4.923-.79-4.968-2.61l-.313-12.835c-.043-1.75-2.05-4.33-6.02-7.74-4.06-3.34-6.792-4.957-8.205-4.856-.695.42-1.01 2.048-.941 4.877.024 1.01-.003 5.259-.085 12.743l1.127 40.727.04 1.618.038 1.617.02.809c7.72 4.868 12.196 7.286 13.432 7.255.353-.007.879-.19 1.577-.543l-.526-21.527c1.04-.835 2.667-1.21 4.877-1.13l10.334-.152c12.899-.113 22.771-.185 29.617-.217 6.847-.032 10.757-.061 11.727-.085 1.857.023 3.66-.292 5.411-.94 1.034-1.104 1.188-5.659.462-13.666z"/>
                </g>
            </g>
            <g>
                <path class="st54" d="M50.358 373.984c5.21.1 10.314-1.184 15.314-3.852 1.606-.846 3.238-1.91 4.898-3.193a61.618 61.618 0 0 0 5.054-4.402c2.7-2.577 4.358-3.86 4.978-3.848 3.046 2.35 5.62 4.101 7.718 5.253 2.098 1.154 3.677 1.74 4.737 1.76 7.506.144 11.374-5.681 11.599-17.472l.271-14.152.258-13.443.056-2.932c.014-.742-.021-1.282-.101-1.62-.505-1.36-1.597-2.052-3.274-2.085-1.94-.24-5.093-.486-9.462-.737-4.368-.253-10.041-.48-17.016-.68-6.976-.201-13.334-.356-19.074-.467-5.653-.107-10.731-.205-15.234-.292-.53-.01-1.215-.057-2.053-.14a58.833 58.833 0 0 0-2.646-.201c-.927-.053-1.81-.12-2.647-.202a26.76 26.76 0 0 0-2.05-.141c-1.769-.034-2.673 1.127-2.719 3.487l-.098 5.155-.638 33.356c-.434 4.102 1.908 8.664 7.026 13.684 4.593 4.671 9.626 7.059 15.103 7.164zm32.516-43.968l12.719.141.102 8.496c-.05 2.63-.763 5.243-2.138 7.847l-4.911.412c-1.563-1.446-3.46-3.91-5.69-7.39a573.34 573.34 0 0 1-3.085-4.963 562.472 562.472 0 0 0-2.7-4.349c1.15-.18 3.053-.245 5.703-.194zm-40.36 3.726c.121-1.785.337-3.753.644-5.903l2.396-.56c.882.017 2.715.085 5.496.206 2.78.12 6.598.294 11.453.522 4.244 9.047 6.442 14.145 6.598 15.294-1.006 1.732-3.788 4.039-8.349 6.919-4.205 2.681-7.322 4.005-9.352 3.966-2.474-.047-4.648-1.91-6.52-5.585-1.794-3.204-2.658-6.49-2.594-9.858.03-1.55.106-3.219.229-5zM88.239 440.37c3.67 4.692 7.093 7.79 10.267 9.294 3.667 1.826 7.993 1.839 12.976.034 5.981-2.164 8.61-7.487 7.89-15.97-.304-2.4-.886-5.235-1.741-8.51-.856-3.274-2.052-7.035-3.588-11.28l-7.396-20.44c-.924-2.03-2.03-2.885-3.322-2.56-21.736 7.435-37.585 12.955-47.552 16.563l-15.643 5.444c-3.489 1.262-5.254 2.616-5.293 4.066l2.683 7.415c.803 2.217 1.772 3.337 2.906 3.356.422.132 1.923-.266 4.498-1.198l4.86-1.758a331.726 331.726 0 0 1 7.136-2.475c2.764-.928 5.1-1.737 7.012-2.43l4.858-1.757c.492.322 1.14.878 1.941 1.663.8.786 1.873 1.865 3.217 3.244 2.451 2.624 3.794 4.253 4.023 4.888.642 1.772-3.794 6.783-13.303 15.026a5811.6 5811.6 0 0 0-10.897 9.803c-2.585 2.333-4.129 3.84-4.633 4.526l4.618 11.982c.39 1.076.781 1.904 1.178 2.477.395.573.798 1.036 1.208 1.39a328.06 328.06 0 0 0 8.646-8.235 563.835 563.835 0 0 1 8.61-8.33c9.129-9.038 14.077-14.447 14.84-16.228zm10.708-31.935l5.813 16.065c1.445 3.993 1.128 6.366-.948 7.116-2.242.813-5.753-1.358-10.528-6.51-2.767-3.23-6.035-6.418-9.804-9.57l-.48-1.33 15.947-5.771zM155.734 516.837l8.76-7.08c2.35-1.866 3.6-3.42 3.748-4.654l-14.643-18.45a31.229 31.229 0 0 1-2.31-1.845 31.297 31.297 0 0 0-2.31-1.845c-1.827-1.306-3.983-2.175-6.47-2.61-6.78-.728-14.45.196-23.006 2.77-5.382 1.605-13.31 4.757-23.788 9.458a3034.192 3034.192 0 0 1-14.699 6.31c-4.09 1.739-7.43 3.036-10.023 3.89.015.588.144 1.175.384 1.76.237.587.588 1.275 1.05 2.071.462.794 1.083 1.72 1.866 2.778.782 1.056 1.76 2.324 2.934 3.802 1.257 1.584 2.656 2.494 4.2 2.734.22-.005.727-.149 1.518-.431.789-.284 1.988-.762 3.597-1.437 3.477-1.726 6.139-2.633 7.987-2.723l1.634 2.058c.88 1.108 2.15 2.638 3.811 4.59l9.66 12.597a204.029 204.029 0 0 0-5.657 4.168 199.42 199.42 0 0 1-4.246 3.177c-1.122.717-.928 2.027.58 3.927l7.353 9.264c1.047 1.32 3.451.23 7.214-3.271l6.353-4.785 19.452-14.921 15.051-11.302zm-30.507 2.271l-8.547-10.77-.88-1.108c-.588-.74-1.433-1.876-2.536-3.408-1.218-1.96-1.813-2.994-1.785-3.101 1.11-.02 2.561-.29 4.35-.807 1.79-.516 3.916-1.28 6.385-2.293 4.962-2.13 8.902-3.063 11.82-2.797 4.39.559 8.645 3.506 12.767 8.84l-18.266 14.497c-.929.821-2.031 1.138-3.308.947zM207.358 534.48c-7.137-4.725-16.471-6.56-28-5.504-9.553.88-14.852 1.557-15.894 2.033-.784.328-1.59 1.12-2.418 2.37l-19.239 27.784-6.509 9.834c-2.682 4.053-3.404 6.486-2.167 7.305.28.185 1.378.968 3.299 2.343 1.917 1.376 4.659 3.401 8.222 6.078 1.548-1.73 3.855-4.757 6.921-9.084 3.065-4.327 6.89-9.952 11.474-16.876l4.578-6.185 4.546-6.685a39.931 39.931 0 0 1 5.937-1.55 72.507 72.507 0 0 1 6.708-.884c5.455-.308 9.562.45 12.316 2.273.392.26.761.558 1.107.89.343.336.612.724.804 1.169 3.887 5.115 3.027 11.91-2.58 20.38-7.02 10.605-18.577 19.64-34.67 27.103l1.687 1.115c.23.261.714.66 1.45 1.199.733.54 1.746 1.236 3.04 2.092a70.634 70.634 0 0 1 3.276 2.01l2.108 1.395c.786.52 1.317.82 1.59.892 1.723.084 3.588-.536 5.595-1.856 2.263-1.467 4.206-2.723 5.828-3.77a119.09 119.09 0 0 1 4.215-2.612c8.042-5.8 14.28-12.05 18.719-18.755 5.216-7.88 8.051-15.644 8.504-23.288.397-9.271-3.084-16.344-10.447-21.216zM290.782 580.638c-3.31-4.042-7.29-7.515-11.938-10.42-5.225-3.403-11.413-5.944-18.565-7.622-2.232-.524-4.105-.508-5.618.044l-10.87 45.899c-3.41 14.535-5.644 23.175-6.703 25.92 1.407.785 4.902 1.9 10.482 3.344s13.291 3.321 23.134 5.63c4.134.97 7.758 1.526 10.876 1.667 3.116.141 5.767-.166 7.953-.925 5.414-1.541 8.92-5.71 10.514-12.504l1.755-7.482c2.258-9.631 1.312-19.47-2.837-29.518-2.147-5.312-4.874-9.99-8.183-14.033zm-6.41 31.976c-.908 3.87-3.457 6.767-7.645 8.687-1.319.6-3.444.804-6.375.614-2.933-.187-6.653-.856-11.16-2.005l-3.249-.763c.082-.342.554-2.068 1.423-5.176.868-3.109 2.106-7.65 3.715-13.624.817-4.073 1.599-7.7 2.345-10.882l1.936-8.256c6.598 4.633 11.57 9.7 14.917 15.203 3.817 6.158 5.182 11.558 4.092 16.202zM413.89 598.297c-2.224-5.352-4.905-9.317-8.041-11.9a54.464 54.464 0 0 0-5.619-4.306 53.888 53.888 0 0 0-6.247-3.57c-5.406-2.864-9.784-4.107-13.132-3.735-1.16-.047-2.582-.021-4.264.076-1.685.1-3.617.405-5.799.915-1.482.698-2.624 1.092-3.428 1.183-9.525 3.374-16.713 8.843-21.566 16.404-4.89 7.835-6.767 16.845-5.63 27.027 1.205 10.798 6.037 19.457 14.496 25.98 8.401 6.617 18.095 9.313 29.081 8.086 10.582-1.18 19.179-6.183 25.79-15.01 6.63-8.65 9.416-17.716 8.358-27.197-.53-4.741-1.862-9.39-3.998-13.953zm-17.471 28.481c-3.856 4.963-8.16 7.711-12.915 8.241l-3.918.437c-5.225.584-10.413-.925-15.562-4.53-5.026-3.704-7.811-8.014-8.36-12.93-.715-6.41.835-11.96 4.652-16.653 3.672-4.763 8.958-7.532 15.858-8.302 3.416-.38 6.59-.203 9.52.537 2.932.74 5.523 1.94 7.777 3.599 2.253 1.66 4.098 3.764 5.537 6.314 1.437 2.552 2.338 5.451 2.7 8.698.51 4.566-1.254 9.43-5.29 14.59zM515.173 604.925c-.154-2.693-.283-5.002-.389-6.93a118.787 118.787 0 0 1-.183-4.956c-1.059-9.858-3.4-18.374-7.028-25.548-4.264-8.435-9.606-14.741-16.024-18.92-7.858-4.934-15.727-5.41-23.606-1.427-7.638 3.864-13.853 11.066-18.644 21.603-3.965 8.738-6 13.677-6.103 14.816-.101.845.186 1.936.864 3.276l14.614 30.47 5.322 10.525c2.193 4.336 3.95 6.169 5.274 5.499.3-.15 1.522-.719 3.668-1.706 2.144-.986 5.261-2.365 9.351-4.136-.736-2.201-2.224-5.704-4.464-10.51-2.244-4.805-5.236-10.913-8.983-18.323l-3.107-7.042-3.557-7.258a39.862 39.862 0 0 1 1.59-5.926 72.388 72.388 0 0 1 2.555-6.265c2.434-4.893 5.124-8.085 8.072-9.576.42-.213.861-.385 1.322-.52.461-.134.933-.175 1.412-.122 6.37-.844 11.848 3.268 16.431 12.331 5.74 11.353 7.868 25.865 6.384 43.543l1.804-.914c.341-.072.927-.294 1.76-.666.831-.37 1.938-.905 3.322-1.606a72.048 72.048 0 0 1 3.369-1.852c.96-.486 1.714-.865 2.255-1.14.841-.426 1.363-.738 1.564-.94.924-1.455 1.308-3.383 1.155-5.78z"/>
                <g>
                    <path class="st55" d="M597.071 508.573c-3.875-3.483-8.575-5.852-14.101-7.107-1.769-.411-3.698-.674-5.792-.791a62.038 62.038 0 0 0-6.703.022c-3.729.183-5.822.068-6.283-.346-.765-3.77-1.565-6.78-2.398-9.024-.833-2.245-1.643-3.721-2.43-4.43-5.583-5.02-12.32-3.147-20.206 5.624l-9.465 10.522-8.99 9.997-1.96 2.18c-.498.553-.825.983-.984 1.29-.509 1.36-.137 2.6 1.11 3.72 1.31 1.45 3.533 3.7 6.672 6.749 3.138 3.05 7.28 6.933 12.423 11.649 5.144 4.717 9.85 8.995 14.118 12.834l11.33 10.19c.395.354.881.837 1.46 1.449.58.612 1.2 1.24 1.868 1.884.666.646 1.29 1.275 1.87 1.885.58.612 1.065 1.093 1.459 1.448 1.314 1.183 2.758.896 4.335-.859l3.45-3.833 22.31-24.805c3.01-2.819 4.225-7.801 3.64-14.946-.416-6.537-2.66-11.638-6.733-15.302zm-47.2 4.73a537.476 537.476 0 0 1-.916 5.772c-.29 1.78-.559 3.464-.804 5.056-.988-.617-2.468-1.812-4.44-3.585l-9.523-8.43 5.48-6.492c1.758-1.955 4.009-3.467 6.752-4.534l3.982 2.902c.237 2.115.059 5.22-.532 9.312zm34.733 18.05c-.74 3.596-2.237 6.647-4.49 9.152a99.824 99.824 0 0 1-3.445 3.632 80.958 80.958 0 0 1-4.349 4.043l-2.178-1.144c-.656-.59-1.998-1.84-4.022-3.753a2649.15 2649.15 0 0 1-8.318-7.89c2.71-9.616 4.383-14.91 5.017-15.882 1.896-.652 5.508-.574 10.841.232 4.936.724 8.158 1.762 9.668 3.121 1.84 1.655 2.265 4.485 1.276 8.49zM634.03 403.69c-4.468-1.67-9.22-2.582-14.255-2.738-5.78-.433-10.529.166-14.25 1.797a54.54 54.54 0 0 0-6.38 3.066 53.95 53.95 0 0 0-6.007 3.96c-4.997 3.528-8.086 6.872-9.266 10.028-.566 1.012-1.185 2.292-1.858 3.839-.672 1.548-1.275 3.409-1.806 5.585-.046 1.638-.21 2.835-.493 3.592-1.293 10.023.338 18.907 4.89 26.65 4.78 7.905 11.968 13.65 21.565 17.237 10.178 3.805 20.087 3.407 29.727-1.193 9.7-4.504 16.485-11.933 20.355-22.287 3.727-9.974 3.15-19.905-1.737-29.791-4.721-9.822-11.55-16.405-20.486-19.745zm4.774 40.963l-1.381 3.694c-1.84 4.924-5.53 8.87-11.071 11.834-5.578 2.81-10.68 3.346-15.316 1.614-6.038-2.257-10.29-6.147-12.752-11.673-2.59-5.43-2.672-11.395-.24-17.898 1.203-3.221 2.796-5.97 4.781-8.25 1.985-2.281 4.225-4.051 6.724-5.313 2.5-1.259 5.21-1.954 8.134-2.086 2.926-.129 5.92.378 8.98 1.523 4.304 1.608 7.845 5.379 10.625 11.31 2.686 5.682 3.192 10.763 1.516 15.245zM672.32 343.815c.057-1.348.074-2.393.057-3.136l-.04-1.616-57.621 1.407c-3.266.08-4.923-.79-4.968-2.61l-.314-12.835c-.042-1.752-2.047-4.33-6.02-7.74-4.059-3.34-6.791-4.957-8.204-4.856-.694.42-1.01 2.047-.941 4.877.024 1.01-.003 5.259-.085 12.743l1.127 40.727.04 1.618.038 1.616.02.81c7.719 4.867 12.195 7.286 13.432 7.255.353-.008.879-.19 1.577-.544l-.527-21.526c1.04-.835 2.667-1.212 4.877-1.13l10.334-.153c12.9-.112 22.772-.184 29.618-.217 6.847-.031 10.757-.061 11.727-.084 1.856.022 3.66-.292 5.411-.941 1.034-1.103 1.188-5.658.462-13.665z"/>
                </g>
            </g>
        </g>
    </g>
    <g id="Head">
        <use xlink:href="#BrandonBotHead" width="424.979" height="539.895" x="-212.49" y="-269.947" transform="matrix(1 0 0 -1 350 290)" overflow="visible" id="XMLID_1_"/>
    </g>
</svg>
