<svg xmlns="http://www.w3.org/2000/svg" viewBox="0 0 919.8755 192">
  <defs>
    <style>
      .cls-1 {
        fill: #0c4d8c;
        stroke: #000;
        stroke-width: 28px;
      }

      .cls-1, .cls-2, .cls-3 {
        stroke-linecap: round;
        stroke-linejoin: round;
      }

      .cls-2, .cls-4 {
        fill: #dc143c;
      }

      .cls-2, .cls-3 {
        stroke: #fff;
        stroke-width: 11px;
      }

      .cls-3, .cls-5 {
        fill: #084c8d;
      }
    </style>
  </defs>
  <title>Name</title>
  <g id="Horozontal_Text" data-name="Horozontal Text">
    <g>
      <g>
        <path class="cls-1" d="M111.1344,128.7471q-11.5063,9.3-21.1172,8.6675H29.9742q-5.518,0-5.5156-3.1519c0-.63.0537-1.4429.1572-2.4424q.1553-1.4963.2363-3.1518.0777-1.6554.2364-3.1519.1552-1.4964.1572-2.4429v-18.123q0-10.2421.1582-22.6934.1553-12.4474.5518-20.2505.391-7.8009.8662-11.268a3.866,3.866,0,0,1,3.1523-3.94,14.4271,14.4271,0,0,1,2.5215-.1572H80.0885q27.5757,0,27.5791,13.395,0,1.8912-2.6006,5.6734a76.2666,76.2666,0,0,1-7.959,9.2978q0,1.1045,6.1465,5.8311a84.9209,84.9209,0,0,1,7.0127,5.91,41.8011,41.8011,0,0,1,5.1221,5.7525q6.46,8.827,6.4609,18.123Q121.85,120.3974,111.1344,128.7471ZM84.5006,98.8047q-6.936-8.0376-11.0313-9.771-2.6807.3179-23.6386,8.1948-.318,8.669-.4727,13.6319-.16,4.9642-.1582,6.54l.9463,2.8369q5.042.4723,9.2187.63,4.1735.1581,7.8008.1572a37.11,37.11,0,0,0,15.2871-3.3091q8.5094-3.465,8.51-7.88Q90.9625,106.2127,84.5006,98.8047ZM77.7242,59.8789a34.0281,34.0281,0,0,0-12.292-2.3638l-13.2373.3155L52.3521,72.96a33.7968,33.7968,0,0,0,.4727,6.7763q3.1509-1.5732,6.6982-3.3095,3.5449-1.7322,7.6426-3.7823,8.0376-4.0956,11.3467-6.934Z"/>
        <path class="cls-1" d="M198.4088,137.604a15.82,15.82,0,0,1-2.9785.22l-14.0108.2207a35.0137,35.0137,0,0,1-2.9228-4.9087q-2.1519-4.0262-6.0127-11.3076-7.3917-14.67-10.48-14.6719a34.9472,34.9472,0,0,0-6.5088,1.7652q-2.87.9932-4.5225,1.6a17.3641,17.3641,0,0,0-2.4267,1.0478v4.3023q0,2.5393-.11,6.1777-.1113,3.641-.11,6.2881V132.64q0,3.42-.4414,3.8609-.6621,1.3242-4.5235,1.3237h-8.6045q-2.2074-.6613-2.206-5.2949l.2207-13.79q0-13.2377.6621-41.9194.22-1.6545,3.86-1.8755h23.7177q7.39,0,12.9073.3863,5.5151.388,9.3769,1.0478,13.4575,2.7591,13.458,10.7007,0,6.6189-4.8535,10.1489-4.0825,3.09-13.3486,5.4053,2.3174,1.6553,11.1425,16.2163,2.647,4.6333,5.35,9.1011t5.24,9.101A9.5524,9.5524,0,0,1,198.4088,137.604ZM168.734,84.1011H148.9879v14.12h1.5439q3.64-1.5432,7.2256-2.7578,3.583-1.2121,7.2256-2.2061,11.1415-3.4182,11.1416-6.3984Q176.1246,84.1028,168.734,84.1011Z"/>
        <path class="cls-1" d="M200.8346,89.2861l.11-9.3769q0-3.7492,1.4336-4.854H228.193q1.5425.331,3.0888.5517,1.5426.222,3.0889.5518a18.9168,18.9168,0,0,1,6.6182,2.8682,49.0459,49.0459,0,0,1,13.2382,16.4365,80.9852,80.9852,0,0,1,3.75,8.3843q1.9864,5.0749,4.4131,12.0239,5.1841,15.1149,7.9424,21.4013a10.4318,10.4318,0,0,1-4.3017,1.1031q-2.76.2226-8.8252.2207a8.56,8.56,0,0,1-5.1856-1.3238q-.11-.22-.6064-1.2133a22.7811,22.7811,0,0,1-1.1582-3.0889q-1.5455-4.8529-3.1993-6.6191h-2.8681q-2.316,0-6.5088-.11l-17.209.2207q.1084,6.6189.3311,10.2593.3311,1.6545-3.6407,1.6548H204.1441q-2.5385,0-2.0957-6.3985l-.2207-6.6186-.4414-20.4082Zm17.43,18.4224a2.4528,2.4528,0,0,0,1.3242,2.6475h16.5469q1.5438,0,4.7431-.11a36.14,36.14,0,0,0,3.8613-.4409q-2.5384-2.3166-4.7431-8.605-2.3174-6.5076-5.626-9.1558-5.0757-3.9718-16.1064-3.7509Z"/>
        <path class="cls-1" d="M268.4566,115.21l.11-38.5a1.9581,1.9581,0,0,1,.9375-1.4893,2.6962,2.6962,0,0,1,2.4824-.2759q9.375,1.3242,21.5108,8.0532A60.5432,60.5432,0,0,1,304.4742,90.94a45.0646,45.0646,0,0,1,8.2188,10.149V95.0225l-.5518-19.857,19.7461-.2207a4.508,4.508,0,0,1,1.1582,2.041,15.2774,15.2774,0,0,1,.6074,4.0264l.2207,41.0371v7.7222q.8818,9.1575-.8828,10.2593-1.4355-.5508-17.54-.5518-1.3242-.6614-2.5371-13.2378v-1.6548a71.3493,71.3493,0,0,0-25.1524-24.6q-.8832.6621-.8818,4.854v30.8882q0,3.8628-1.5449,5.626a25.244,25.244,0,0,1-4.1367.6621,38.0141,38.0141,0,0,1-5.7911,0q-6.62-.1113-7.3916-2.5376Z"/>
        <path class="cls-1" d="M421.3521,90.2788v6.398q0,12.3567-10.3691,23.3872a52.941,52.941,0,0,1-12.19,9.8178,59.8692,59.8692,0,0,1-15.2783,6.1778,81.3748,81.3748,0,0,1-21.6211,2.6474,13.4388,13.4388,0,0,1-5.9571-1.103l-.11-39.2725q0-18.6408-.6621-22.2832,2.5356-.5506,11.9687-.7172t25.9795-.1656a86.1387,86.1387,0,0,1,11.9688.7173,28.3731,28.3731,0,0,1,8.2187,2.2612Q421.35,81.5644,421.3521,90.2788Zm-21.4,12.4653q0-4.9635-5.9571-8.4941a18.993,18.993,0,0,0-6.6191-1.71,91.1782,91.1782,0,0,0-12.3555-.4961H371.38q0,.4417.2207,4.4678.22,4.0276.5518,11.7486-.2228,5.1863-.2208,9.2661v7.06q12.2446-3.7485,19.6358-9.4868Q399.95,108.7033,399.9518,102.7441Z"/>
        <path class="cls-1" d="M509.8229,131.9775q-12.3561,10.04-29.7852,10.0391-18.0922,0-30.5566-9.377-12.5757-9.2665-12.5762-22.8349a29.2434,29.2434,0,0,1,9.3769-21.8428q9.2667-8.7129,25.3721-11.583a16.7277,16.7277,0,0,0,3.8613-.6616,49.93,49.93,0,0,1,6.3985-.2207q2.7554.1113,4.6328.331,5.5151,0,13.789,4.3023a60.9132,60.9132,0,0,1,6.3438,3.53,55.8555,55.8555,0,0,1,5.57,4.082,23.8681,23.8681,0,0,1,7.2813,10.59,29.133,29.133,0,0,1,2.6474,11.9141Q522.1783,122.16,509.8229,131.9775Zm-7.06-30.7226a17.3257,17.3257,0,0,0-5.24-5.7363,26.3281,26.3281,0,0,0-7.998-3.6954A37.2687,37.2687,0,0,0,479.2662,90.5q-11.3643,0-18.2021,5.4053-7.0606,5.2955-7.0606,13.3481,0,6.18,7.502,11.4727a28.7951,28.7951,0,0,0,16.3261,5.185h4.3028q7.831,0,15.0029-5.6264,7.5-5.8455,7.501-11.583A15.0541,15.0541,0,0,0,502.7633,101.2549Z"/>
        <path class="cls-1" d="M534.3131,115.21l.11-38.5a1.9584,1.9584,0,0,1,.9375-1.4893,2.6964,2.6964,0,0,1,2.4825-.2759q9.375,1.3242,21.5107,8.0532A60.544,60.544,0,0,1,570.3307,90.94a45.0642,45.0642,0,0,1,8.2187,10.149V95.0225l-.5517-19.857,19.746-.2207a4.5071,4.5071,0,0,1,1.1583,2.041,15.2816,15.2816,0,0,1,.6074,4.0264l.2207,41.0371v7.7222q.8818,9.1575-.8828,10.2593-1.4357-.5508-17.54-.5518-1.3242-.6614-2.5371-13.2378v-1.6548a71.349,71.349,0,0,0-25.1523-24.6q-.8833.6621-.8819,4.854v30.8882q0,3.8628-1.5449,5.626a25.24,25.24,0,0,1-4.1367.6621,38.0128,38.0128,0,0,1-5.791,0q-6.62-.1113-7.3916-2.5376Z"/>
        <path class="cls-1" d="M709.193,128.7471q-11.5063,9.3-21.1172,8.6675h-60.043q-5.518,0-5.5156-3.1519c0-.63.0537-1.4429.1572-2.4424q.1553-1.4963.2363-3.1518.0777-1.6554.2364-3.1519.1552-1.4964.1572-2.4429v-18.123q0-10.2421.1582-22.6934.1553-12.4474.5518-20.2505.391-7.8009.8662-11.268a3.866,3.866,0,0,1,3.1523-3.94,14.4271,14.4271,0,0,1,2.5215-.1572h47.5928q27.5757,0,27.5791,13.395,0,1.8912-2.6006,5.6734a76.2666,76.2666,0,0,1-7.959,9.2978q0,1.1045,6.1465,5.8311a84.9209,84.9209,0,0,1,7.0127,5.91,41.8011,41.8011,0,0,1,5.1221,5.7525q6.46,8.827,6.4609,18.123Q719.9088,120.3974,709.193,128.7471ZM682.5592,98.8047q-6.936-8.0376-11.0313-9.771-2.6807.3179-23.6386,8.1948-.318,8.669-.4727,13.6319-.16,4.9642-.1582,6.54l.9463,2.8369q5.042.4723,9.2187.63,4.1734.1581,7.8008.1572a37.11,37.11,0,0,0,15.2871-3.3091q8.5094-3.465,8.51-7.88Q689.0211,106.2127,682.5592,98.8047Zm-6.7764-38.9258a34.0281,34.0281,0,0,0-12.292-2.3638l-13.2373.3155.1572,15.1289a33.7968,33.7968,0,0,0,.4727,6.7763q3.1509-1.5732,6.6982-3.3095,3.5449-1.7322,7.6426-3.7823,8.0376-4.0956,11.3467-6.934Z"/>
        <path class="cls-1" d="M803.4166,131.9775q-12.356,10.04-29.7852,10.0391-18.0923,0-30.5566-9.377-12.5757-9.2665-12.5762-22.8349a29.2431,29.2431,0,0,1,9.377-21.8428q9.2666-8.7129,25.3721-11.583a16.7285,16.7285,0,0,0,3.8613-.6616,49.928,49.928,0,0,1,6.3984-.2207q2.7554.1113,4.6328.331,5.5152,0,13.7891,4.3023a60.9114,60.9114,0,0,1,6.3437,3.53,55.8684,55.8684,0,0,1,5.57,4.082,23.8679,23.8679,0,0,1,7.2812,10.59,29.1315,29.1315,0,0,1,2.6475,11.9141Q815.7721,122.16,803.4166,131.9775Zm-7.06-30.7226a17.3243,17.3243,0,0,0-5.24-5.7363,26.3287,26.3287,0,0,0-7.9981-3.6954A37.2674,37.2674,0,0,0,772.86,90.5q-11.3643,0-18.2022,5.4053-7.0605,5.2955-7.06,13.3481,0,6.18,7.5019,11.4727a28.7954,28.7954,0,0,0,16.3262,5.185h4.3027q7.8311,0,15.003-5.6264,7.5-5.8455,7.5009-11.583A15.053,15.053,0,0,0,796.357,101.2549Z"/>
        <path class="cls-1" d="M810.6979,75.6069q.6621-.8818,5.2949-.8828,1.6553,0,13.9-.3305l44.456.11h4.4131q8.2734,9.4885,8.2734,11.0313a2.9363,2.9363,0,0,1-.5517,1.3237H862.9869a4.966,4.966,0,0,0-1.1025,4.0815l.11,8.605q.3311,16.1075.5508,24.6553.22,8.55.2207,9.7627a9.779,9.779,0,0,1-.8818,4.5229q-1.7667,1.3236-14.8926.6621-2.2091.1107-3.42.11h-1.7657V91.2715q0-4.08-2.9775-4.0816H824.818q-2.87,0-8.6045-4.854Q810.5885,77.3724,810.6979,75.6069Z"/>
      </g>
      <g>
        <path class="cls-2" d="M111.1324,128.7471q-11.5064,9.3-21.1172,8.6675H29.9723q-5.518,0-5.5157-3.1519c0-.63.0538-1.4429.1573-2.4424q.1553-1.4963.2363-3.1518.0777-1.6554.2363-3.1519.1553-1.4964.1572-2.4429v-18.123q0-10.2421.1583-22.6934.1553-12.4474.5517-20.2505.3912-7.8009.8662-11.268a3.866,3.866,0,0,1,3.1524-3.94,14.4258,14.4258,0,0,1,2.5214-.1572H80.0865q27.5757,0,27.5791,13.395,0,1.8912-2.6006,5.6734a76.2733,76.2733,0,0,1-7.9589,9.2978q0,1.1045,6.1464,5.8311a84.9209,84.9209,0,0,1,7.0127,5.91,41.7945,41.7945,0,0,1,5.1221,5.7525q6.46,8.827,6.4609,18.123Q121.8482,120.3974,111.1324,128.7471ZM84.4986,98.8047q-6.936-8.0376-11.0312-9.771-2.6806.3179-23.6387,8.1948-.3178,8.669-.4726,13.6319-.16,4.9642-.1582,6.54l.9462,2.8369q5.0421.4723,9.2188.63,4.1733.1581,7.8008.1572a37.11,37.11,0,0,0,15.2871-3.3091q8.5092-3.465,8.51-7.88Q90.9605,106.2127,84.4986,98.8047ZM77.7223,59.8789A34.0285,34.0285,0,0,0,65.43,57.5151l-13.2373.3155L52.35,72.96a33.7891,33.7891,0,0,0,.4727,6.7763q3.1508-1.5732,6.6982-3.3095,3.545-1.7322,7.6426-3.7823Q75.2013,68.5484,78.51,65.71Z"/>
        <path class="cls-2" d="M198.4068,137.604a15.82,15.82,0,0,1-2.9785.22l-14.0107.2207a35,35,0,0,1-2.9229-4.9087q-2.1517-4.0262-6.0127-11.3076-7.3915-14.67-10.48-14.6719a34.9493,34.9493,0,0,0-6.5088,1.7652q-2.8695.9932-4.5224,1.6a17.3665,17.3665,0,0,0-2.4268,1.0478v4.3023q0,2.5393-.11,6.1777-.1113,3.641-.11,6.2881V132.64q0,3.42-.4414,3.8609-.6621,1.3242-4.5234,1.3237h-8.6045q-2.2075-.6613-2.2061-5.2949l.2207-13.79q0-13.2377.6621-41.9194.22-1.6545,3.86-1.8755h23.7178q7.39,0,12.9072.3863,5.5152.388,9.377,1.0478Q196.751,79.138,196.7516,87.08q0,6.6189-4.8536,10.1489-4.0824,3.09-13.3486,5.4053,2.3174,1.6553,11.1426,16.2163,2.6469,4.6333,5.35,9.1011t5.24,9.101A9.5524,9.5524,0,0,1,198.4068,137.604ZM168.732,84.1011H148.9859v14.12h1.544q3.64-1.5432,7.2256-2.7578,3.5829-1.2121,7.2256-2.2061,11.1416-3.4182,11.1416-6.3984Q176.1227,84.1028,168.732,84.1011Z"/>
        <path class="cls-2" d="M200.8326,89.2861l.11-9.3769q0-3.7492,1.4336-4.854H228.191q1.5425.331,3.0889.5517,1.5425.222,3.0888.5518a18.916,18.916,0,0,1,6.6182,2.8682,49.0462,49.0462,0,0,1,13.2383,16.4365,81.0066,81.0066,0,0,1,3.75,8.3843q1.9863,5.0749,4.4131,12.0239,5.184,15.1149,7.9424,21.4013a10.4323,10.4323,0,0,1-4.3018,1.1031q-2.76.2226-8.8252.2207a8.5592,8.5592,0,0,1-5.1855-1.3238q-.11-.22-.6065-1.2133a22.7947,22.7947,0,0,1-1.1582-3.0889q-1.5455-4.8529-3.1992-6.6191h-2.8682q-2.3159,0-6.5088-.11l-17.2089.2207q.1083,6.6189.331,10.2593.3311,1.6545-3.6406,1.6548H204.1422q-2.5386,0-2.0957-6.3985l-.2207-6.6186-.4414-20.4082Zm17.43,18.4224a2.4528,2.4528,0,0,0,1.3242,2.6475h16.5469q1.5439,0,4.7432-.11a36.1449,36.1449,0,0,0,3.8613-.4409q-2.5386-2.3166-4.7432-8.605-2.3173-6.5076-5.626-9.1558-5.0755-3.9718-16.1064-3.7509Z"/>
        <path class="cls-2" d="M268.4547,115.21l.11-38.5a1.9584,1.9584,0,0,1,.9375-1.4893,2.6964,2.6964,0,0,1,2.4825-.2759q9.375,1.3242,21.5107,8.0532A60.544,60.544,0,0,1,304.4723,90.94a45.0642,45.0642,0,0,1,8.2187,10.149V95.0225l-.5517-19.857,19.7461-.2207a4.508,4.508,0,0,1,1.1582,2.041,15.2816,15.2816,0,0,1,.6074,4.0264l.2207,41.0371v7.7222q.8819,9.1575-.8828,10.2593-1.4357-.5508-17.54-.5518-1.3242-.6614-2.5371-13.2378v-1.6548a71.349,71.349,0,0,0-25.1523-24.6q-.8834.6621-.8819,4.854v30.8882q0,3.8628-1.5449,5.626a25.24,25.24,0,0,1-4.1367.6621,38.0128,38.0128,0,0,1-5.791,0q-6.62-.1113-7.3916-2.5376Z"/>
        <path class="cls-2" d="M421.35,90.2788v6.398q0,12.3567-10.3691,23.3872a52.9394,52.9394,0,0,1-12.1905,9.8178,59.8677,59.8677,0,0,1-15.2783,6.1778,81.3737,81.3737,0,0,1-21.6211,2.6474,13.4383,13.4383,0,0,1-5.957-1.103l-.11-39.2725q0-18.6408-.6621-22.2832,2.5356-.5506,11.9688-.7172t25.98-.1656a86.1371,86.1371,0,0,1,11.9687.7173,28.3738,28.3738,0,0,1,8.2188,2.2612Q421.3482,81.5644,421.35,90.2788Zm-21.4,12.4653q0-4.9635-5.957-8.4941a18.9937,18.9937,0,0,0-6.6192-1.71,91.1766,91.1766,0,0,0-12.3554-.4961h-3.6407q0,.4417.2207,4.4678.22,4.0276.5518,11.7486-.2226,5.1863-.2207,9.2661v7.06q12.2446-3.7485,19.6357-9.4868Q399.9484,108.7033,399.95,102.7441Z"/>
        <path class="cls-2" d="M509.8209,131.9775q-12.356,10.04-29.7852,10.0391-18.0923,0-30.5566-9.377-12.5757-9.2665-12.5762-22.8349a29.2431,29.2431,0,0,1,9.377-21.8428q9.2666-8.7129,25.3721-11.583a16.7285,16.7285,0,0,0,3.8613-.6616,49.928,49.928,0,0,1,6.3984-.2207q2.7554.1113,4.6328.331,5.5152,0,13.7891,4.3023a60.9114,60.9114,0,0,1,6.3437,3.53,55.8684,55.8684,0,0,1,5.57,4.082,23.8679,23.8679,0,0,1,7.2812,10.59,29.1315,29.1315,0,0,1,2.6475,11.9141Q522.1764,122.16,509.8209,131.9775Zm-7.06-30.7226a17.3243,17.3243,0,0,0-5.24-5.7363,26.3287,26.3287,0,0,0-7.9981-3.6954A37.2674,37.2674,0,0,0,479.2643,90.5q-11.3643,0-18.2022,5.4053-7.06,5.2955-7.06,13.3481,0,6.18,7.5019,11.4727a28.7954,28.7954,0,0,0,16.3262,5.185h4.3027q7.831,0,15.003-5.6264,7.5-5.8455,7.5009-11.583A15.053,15.053,0,0,0,502.7613,101.2549Z"/>
        <path class="cls-2" d="M534.3111,115.21l.11-38.5a1.9581,1.9581,0,0,1,.9375-1.4893,2.6962,2.6962,0,0,1,2.4824-.2759q9.375,1.3242,21.5107,8.0532A60.5405,60.5405,0,0,1,570.3287,90.94a45.0646,45.0646,0,0,1,8.2188,10.149V95.0225l-.5518-19.857,19.7461-.2207a4.508,4.508,0,0,1,1.1582,2.041,15.2774,15.2774,0,0,1,.6074,4.0264l.2207,41.0371v7.7222q.8818,9.1575-.8828,10.2593-1.4355-.5508-17.54-.5518-1.3242-.6614-2.5371-13.2378v-1.6548a71.3493,71.3493,0,0,0-25.1524-24.6q-.8832.6621-.8818,4.854v30.8882q0,3.8628-1.5449,5.626a25.2436,25.2436,0,0,1-4.1368.6621,38.0127,38.0127,0,0,1-5.791,0q-6.62-.1113-7.3916-2.5376Z"/>
        <path class="cls-3" d="M709.191,128.7471q-11.5064,9.3-21.1172,8.6675H628.0309q-5.5182,0-5.5157-3.1519c0-.63.0537-1.4429.1573-2.4424q.1552-1.4963.2363-3.1518.0775-1.6554.2363-3.1519.1553-1.4964.1572-2.4429v-18.123q0-10.2421.1582-22.6934.1554-12.4474.5518-20.2505.3911-7.8009.8662-11.268a3.866,3.866,0,0,1,3.1524-3.94,14.4258,14.4258,0,0,1,2.5214-.1572h47.5928q27.5757,0,27.5791,13.395,0,1.8912-2.6006,5.6734a76.2666,76.2666,0,0,1-7.959,9.2978q0,1.1045,6.1465,5.8311a84.9209,84.9209,0,0,1,7.0127,5.91,41.7945,41.7945,0,0,1,5.1221,5.7525q6.46,8.827,6.4609,18.123Q719.9068,120.3974,709.191,128.7471ZM682.5572,98.8047q-6.936-8.0376-11.0312-9.771-2.6807.3179-23.6387,8.1948-.3179,8.669-.4727,13.6319-.16,4.9642-.1582,6.54l.9463,2.8369q5.0421.4723,9.2188.63,4.1733.1581,7.8008.1572a37.1108,37.1108,0,0,0,15.2871-3.3091q8.5092-3.465,8.51-7.88Q689.0191,106.2127,682.5572,98.8047Zm-6.7763-38.9258a34.0285,34.0285,0,0,0-12.292-2.3638l-13.2373.3155.1572,15.1289a33.7987,33.7987,0,0,0,.4726,6.7763q3.1509-1.5732,6.6983-3.3095,3.5449-1.7322,7.6426-3.7823,8.0376-4.0956,11.3466-6.934Z"/>
        <path class="cls-3" d="M803.4146,131.9775q-12.356,10.04-29.7851,10.0391-18.0923,0-30.5566-9.377-12.5757-9.2665-12.5762-22.8349a29.2434,29.2434,0,0,1,9.3769-21.8428q9.2667-8.7129,25.3721-11.583a16.7285,16.7285,0,0,0,3.8613-.6616,49.93,49.93,0,0,1,6.3985-.2207q2.7554.1113,4.6328.331,5.5151,0,13.789,4.3023a60.9132,60.9132,0,0,1,6.3438,3.53,55.8555,55.8555,0,0,1,5.57,4.082,23.8681,23.8681,0,0,1,7.2813,10.59,29.133,29.133,0,0,1,2.6474,11.9141Q815.77,122.16,803.4146,131.9775Zm-7.0595-30.7226a17.3257,17.3257,0,0,0-5.24-5.7363,26.3281,26.3281,0,0,0-7.998-3.6954A37.2687,37.2687,0,0,0,772.858,90.5q-11.3643,0-18.2021,5.4053-7.0606,5.2955-7.0606,13.3481,0,6.18,7.502,11.4727a28.7948,28.7948,0,0,0,16.3261,5.185h4.3028q7.8311,0,15.0029-5.6264,7.5-5.8455,7.501-11.583A15.0541,15.0541,0,0,0,796.3551,101.2549Z"/>
        <path class="cls-3" d="M810.6959,75.6069q.6621-.8818,5.2949-.8828,1.6552,0,13.9-.3305l44.4561.11H878.76q8.2734,9.4885,8.2734,11.0313a2.9368,2.9368,0,0,1-.5518,1.3237H862.985a4.966,4.966,0,0,0-1.1026,4.0815l.11,8.605q.3311,16.1075.5508,24.6553.22,8.55.2207,9.7627a9.7791,9.7791,0,0,1-.8819,4.5229q-1.7665,1.3236-14.8926.6621-2.2089.1107-3.42.11h-1.7656V91.2715q0-4.08-2.9775-4.0816H824.816q-2.87,0-8.6045-4.854Q810.5865,77.3724,810.6959,75.6069Z"/>
      </g>
      <g>
        <path class="cls-4" d="M111.1344,128.7471q-11.5063,9.3-21.1172,8.6675H29.9742q-5.518,0-5.5156-3.1519c0-.63.0537-1.4429.1572-2.4424q.1553-1.4963.2363-3.1518.0777-1.6554.2364-3.1519.1552-1.4964.1572-2.4429v-18.123q0-10.2421.1582-22.6934.1553-12.4474.5518-20.2505.391-7.8009.8662-11.268a3.866,3.866,0,0,1,3.1523-3.94,14.4271,14.4271,0,0,1,2.5215-.1572H80.0885q27.5757,0,27.5791,13.395,0,1.8912-2.6006,5.6734a76.2666,76.2666,0,0,1-7.959,9.2978q0,1.1045,6.1465,5.8311a84.9209,84.9209,0,0,1,7.0127,5.91,41.8011,41.8011,0,0,1,5.1221,5.7525q6.46,8.827,6.4609,18.123Q121.85,120.3974,111.1344,128.7471ZM84.5006,98.8047q-6.936-8.0376-11.0313-9.771-2.6807.3179-23.6386,8.1948-.318,8.669-.4727,13.6319-.16,4.9642-.1582,6.54l.9463,2.8369q5.042.4723,9.2187.63,4.1735.1581,7.8008.1572a37.11,37.11,0,0,0,15.2871-3.3091q8.5094-3.465,8.51-7.88Q90.9625,106.2127,84.5006,98.8047ZM77.7242,59.8789a34.0281,34.0281,0,0,0-12.292-2.3638l-13.2373.3155L52.3521,72.96a33.7968,33.7968,0,0,0,.4727,6.7763q3.1509-1.5732,6.6982-3.3095,3.5449-1.7322,7.6426-3.7823,8.0376-4.0956,11.3467-6.934Z"/>
        <path class="cls-4" d="M198.4088,137.604a15.82,15.82,0,0,1-2.9785.22l-14.0108.2207a35.0137,35.0137,0,0,1-2.9228-4.9087q-2.1519-4.0262-6.0127-11.3076-7.3917-14.67-10.48-14.6719a34.9472,34.9472,0,0,0-6.5088,1.7652q-2.87.9932-4.5225,1.6a17.3641,17.3641,0,0,0-2.4267,1.0478v4.3023q0,2.5393-.11,6.1777-.1113,3.641-.11,6.2881V132.64q0,3.42-.4414,3.8609-.6621,1.3242-4.5235,1.3237h-8.6045q-2.2074-.6613-2.206-5.2949l.2207-13.79q0-13.2377.6621-41.9194.22-1.6545,3.86-1.8755h23.7177q7.39,0,12.9073.3863,5.5151.388,9.3769,1.0478,13.4575,2.7591,13.458,10.7007,0,6.6189-4.8535,10.1489-4.0825,3.09-13.3486,5.4053,2.3174,1.6553,11.1425,16.2163,2.647,4.6333,5.35,9.1011t5.24,9.101A9.5524,9.5524,0,0,1,198.4088,137.604ZM168.734,84.1011H148.9879v14.12h1.5439q3.64-1.5432,7.2256-2.7578,3.583-1.2121,7.2256-2.2061,11.1415-3.4182,11.1416-6.3984Q176.1246,84.1028,168.734,84.1011Z"/>
        <path class="cls-4" d="M200.8346,89.2861l.11-9.3769q0-3.7492,1.4336-4.854H228.193q1.5425.331,3.0888.5517,1.5426.222,3.0889.5518a18.9168,18.9168,0,0,1,6.6182,2.8682,49.0459,49.0459,0,0,1,13.2382,16.4365,80.9852,80.9852,0,0,1,3.75,8.3843q1.9864,5.0749,4.4131,12.0239,5.1841,15.1149,7.9424,21.4013a10.4318,10.4318,0,0,1-4.3017,1.1031q-2.76.2226-8.8252.2207a8.56,8.56,0,0,1-5.1856-1.3238q-.11-.22-.6064-1.2133a22.7811,22.7811,0,0,1-1.1582-3.0889q-1.5455-4.8529-3.1993-6.6191h-2.8681q-2.316,0-6.5088-.11l-17.209.2207q.1084,6.6189.3311,10.2593.3311,1.6545-3.6407,1.6548H204.1441q-2.5385,0-2.0957-6.3985l-.2207-6.6186-.4414-20.4082Zm17.43,18.4224a2.4528,2.4528,0,0,0,1.3242,2.6475h16.5469q1.5438,0,4.7431-.11a36.14,36.14,0,0,0,3.8613-.4409q-2.5384-2.3166-4.7431-8.605-2.3174-6.5076-5.626-9.1558-5.0757-3.9718-16.1064-3.7509Z"/>
        <path class="cls-4" d="M268.4566,115.21l.11-38.5a1.9581,1.9581,0,0,1,.9375-1.4893,2.6962,2.6962,0,0,1,2.4824-.2759q9.375,1.3242,21.5108,8.0532A60.5432,60.5432,0,0,1,304.4742,90.94a45.0646,45.0646,0,0,1,8.2188,10.149V95.0225l-.5518-19.857,19.7461-.2207a4.508,4.508,0,0,1,1.1582,2.041,15.2774,15.2774,0,0,1,.6074,4.0264l.2207,41.0371v7.7222q.8818,9.1575-.8828,10.2593-1.4355-.5508-17.54-.5518-1.3242-.6614-2.5371-13.2378v-1.6548a71.3493,71.3493,0,0,0-25.1524-24.6q-.8832.6621-.8818,4.854v30.8882q0,3.8628-1.5449,5.626a25.244,25.244,0,0,1-4.1367.6621,38.0141,38.0141,0,0,1-5.7911,0q-6.62-.1113-7.3916-2.5376Z"/>
        <path class="cls-4" d="M421.3521,90.2788v6.398q0,12.3567-10.3691,23.3872a52.941,52.941,0,0,1-12.19,9.8178,59.8692,59.8692,0,0,1-15.2783,6.1778,81.3748,81.3748,0,0,1-21.6211,2.6474,13.4388,13.4388,0,0,1-5.9571-1.103l-.11-39.2725q0-18.6408-.6621-22.2832,2.5356-.5506,11.9687-.7172t25.9795-.1656a86.1387,86.1387,0,0,1,11.9688.7173,28.3731,28.3731,0,0,1,8.2187,2.2612Q421.35,81.5644,421.3521,90.2788Zm-21.4,12.4653q0-4.9635-5.9571-8.4941a18.993,18.993,0,0,0-6.6191-1.71,91.1782,91.1782,0,0,0-12.3555-.4961H371.38q0,.4417.2207,4.4678.22,4.0276.5518,11.7486-.2228,5.1863-.2208,9.2661v7.06q12.2446-3.7485,19.6358-9.4868Q399.95,108.7033,399.9518,102.7441Z"/>
        <path class="cls-4" d="M509.8229,131.9775q-12.3561,10.04-29.7852,10.0391-18.0922,0-30.5566-9.377-12.5757-9.2665-12.5762-22.8349a29.2434,29.2434,0,0,1,9.3769-21.8428q9.2667-8.7129,25.3721-11.583a16.7277,16.7277,0,0,0,3.8613-.6616,49.93,49.93,0,0,1,6.3985-.2207q2.7554.1113,4.6328.331,5.5151,0,13.789,4.3023a60.9132,60.9132,0,0,1,6.3438,3.53,55.8555,55.8555,0,0,1,5.57,4.082,23.8681,23.8681,0,0,1,7.2813,10.59,29.133,29.133,0,0,1,2.6474,11.9141Q522.1783,122.16,509.8229,131.9775Zm-7.06-30.7226a17.3257,17.3257,0,0,0-5.24-5.7363,26.3281,26.3281,0,0,0-7.998-3.6954A37.2687,37.2687,0,0,0,479.2662,90.5q-11.3643,0-18.2021,5.4053-7.0606,5.2955-7.0606,13.3481,0,6.18,7.502,11.4727a28.7951,28.7951,0,0,0,16.3261,5.185h4.3028q7.831,0,15.0029-5.6264,7.5-5.8455,7.501-11.583A15.0541,15.0541,0,0,0,502.7633,101.2549Z"/>
        <path class="cls-4" d="M534.3131,115.21l.11-38.5a1.9584,1.9584,0,0,1,.9375-1.4893,2.6964,2.6964,0,0,1,2.4825-.2759q9.375,1.3242,21.5107,8.0532A60.544,60.544,0,0,1,570.3307,90.94a45.0642,45.0642,0,0,1,8.2187,10.149V95.0225l-.5517-19.857,19.746-.2207a4.5071,4.5071,0,0,1,1.1583,2.041,15.2816,15.2816,0,0,1,.6074,4.0264l.2207,41.0371v7.7222q.8818,9.1575-.8828,10.2593-1.4357-.5508-17.54-.5518-1.3242-.6614-2.5371-13.2378v-1.6548a71.349,71.349,0,0,0-25.1523-24.6q-.8833.6621-.8819,4.854v30.8882q0,3.8628-1.5449,5.626a25.24,25.24,0,0,1-4.1367.6621,38.0128,38.0128,0,0,1-5.791,0q-6.62-.1113-7.3916-2.5376Z"/>
        <path class="cls-5" d="M709.193,128.7471q-11.5063,9.3-21.1172,8.6675h-60.043q-5.518,0-5.5156-3.1519c0-.63.0537-1.4429.1572-2.4424q.1553-1.4963.2363-3.1518.0777-1.6554.2364-3.1519.1552-1.4964.1572-2.4429v-18.123q0-10.2421.1582-22.6934.1553-12.4474.5518-20.2505.391-7.8009.8662-11.268a3.866,3.866,0,0,1,3.1523-3.94,14.4271,14.4271,0,0,1,2.5215-.1572h47.5928q27.5757,0,27.5791,13.395,0,1.8912-2.6006,5.6734a76.2666,76.2666,0,0,1-7.959,9.2978q0,1.1045,6.1465,5.8311a84.9209,84.9209,0,0,1,7.0127,5.91,41.8011,41.8011,0,0,1,5.1221,5.7525q6.46,8.827,6.4609,18.123Q719.9088,120.3974,709.193,128.7471ZM682.5592,98.8047q-6.936-8.0376-11.0313-9.771-2.6807.3179-23.6386,8.1948-.318,8.669-.4727,13.6319-.16,4.9642-.1582,6.54l.9463,2.8369q5.042.4723,9.2187.63,4.1734.1581,7.8008.1572a37.11,37.11,0,0,0,15.2871-3.3091q8.5094-3.465,8.51-7.88Q689.0211,106.2127,682.5592,98.8047Zm-6.7764-38.9258a34.0281,34.0281,0,0,0-12.292-2.3638l-13.2373.3155.1572,15.1289a33.7968,33.7968,0,0,0,.4727,6.7763q3.1509-1.5732,6.6982-3.3095,3.5449-1.7322,7.6426-3.7823,8.0376-4.0956,11.3467-6.934Z"/>
        <path class="cls-5" d="M803.4166,131.9775q-12.356,10.04-29.7852,10.0391-18.0923,0-30.5566-9.377-12.5757-9.2665-12.5762-22.8349a29.2431,29.2431,0,0,1,9.377-21.8428q9.2666-8.7129,25.3721-11.583a16.7285,16.7285,0,0,0,3.8613-.6616,49.928,49.928,0,0,1,6.3984-.2207q2.7554.1113,4.6328.331,5.5152,0,13.7891,4.3023a60.9114,60.9114,0,0,1,6.3437,3.53,55.8684,55.8684,0,0,1,5.57,4.082,23.8679,23.8679,0,0,1,7.2812,10.59,29.1315,29.1315,0,0,1,2.6475,11.9141Q815.7721,122.16,803.4166,131.9775Zm-7.06-30.7226a17.3243,17.3243,0,0,0-5.24-5.7363,26.3287,26.3287,0,0,0-7.9981-3.6954A37.2674,37.2674,0,0,0,772.86,90.5q-11.3643,0-18.2022,5.4053-7.0605,5.2955-7.06,13.3481,0,6.18,7.5019,11.4727a28.7954,28.7954,0,0,0,16.3262,5.185h4.3027q7.8311,0,15.003-5.6264,7.5-5.8455,7.5009-11.583A15.053,15.053,0,0,0,796.357,101.2549Z"/>
        <path class="cls-5" d="M810.6979,75.6069q.6621-.8818,5.2949-.8828,1.6553,0,13.9-.3305l44.456.11h4.4131q8.2734,9.4885,8.2734,11.0313a2.9363,2.9363,0,0,1-.5517,1.3237H862.9869a4.966,4.966,0,0,0-1.1025,4.0815l.11,8.605q.3311,16.1075.5508,24.6553.22,8.55.2207,9.7627a9.779,9.779,0,0,1-.8818,4.5229q-1.7667,1.3236-14.8926.6621-2.2091.1107-3.42.11h-1.7657V91.2715q0-4.08-2.9775-4.0816H824.818q-2.87,0-8.6045-4.854Q810.5885,77.3724,810.6979,75.6069Z"/>
      </g>
    </g>
  </g>
</svg>
